<?xml version="1.0" encoding="UTF-8" standalone="no"?>
<svg width="1600px" height="261px" viewBox="0 0 1600 261" version="1.1" xmlns="http://www.w3.org/2000/svg" xmlns:xlink="http://www.w3.org/1999/xlink" xmlns:sketch="http://www.bohemiancoding.com/sketch/ns">
    <!-- Generator: Sketch 3.2.2 (9983) - http://www.bohemiancoding.com/sketch -->
    <title>footer-bg-grunge</title>
    <desc>Created with Sketch.</desc>
    <defs></defs>
    <g id="Design" stroke="none" stroke-width="1" fill="none" fill-rule="evenodd" sketch:type="MSPage">
        <g id="Style-Guide" sketch:type="MSArtboardGroup" transform="translate(0.000000, -5165.000000)" fill="#0A0906">
            <path d="M930,5931.97043 C929.104976,5931.72007 928.048617,5932.00364 927.519797,5930.86809 C928.090871,5927.09098 930.659424,5922.13233 926.96921,5919.60191 C928.311106,5916.18118 929.372587,5913.86536 927.245784,5910.53277 C928.491648,5909.31801 926.85013,5909.7357 928.346958,5908.61036 C927.705461,5907.87845 927.608148,5909.33845 926.96921,5908.61036 C930.386691,5906.18852 926.014006,5900.64357 928.897546,5898.16552 C927.793811,5898.00968 927.647841,5896.83325 927.519797,5896.24184 C927.414802,5895.76284 927.166397,5893.80467 927.245784,5892.94629 C927.326452,5892.03427 928.154893,5891.52589 928.070385,5890.74415 C927.96795,5889.76571 926.8194,5888.96864 926.692637,5887.99914 C926.635017,5887.54568 927.20481,5886.81249 927.245784,5886.0729 C927.340537,5884.28334 926.812997,5883.1529 927.519797,5881.40166 C926.804034,5879.76282 926.17278,5878.77033 925.868036,5877.27839 C925.93718,5876.12622 927.560771,5875.74685 927.795091,5874.53338 C928.134406,5872.78469 926.691356,5872.27248 926.417343,5870.40883 C926.23296,5869.13532 927.377669,5867.02004 927.519797,5864.9137 C927.669608,5862.69878 927.372547,5862.07927 928.070385,5860.79171 C927.96795,5859.42878 926.76306,5859.16565 926.417343,5858.04414 C926.072906,5855.85222 928.978213,5853.53256 928.620972,5851.17331 C928.480124,5850.22679 926.925676,5849.42079 926.692637,5848.42446 C926.276495,5846.63363 927.582539,5843.95376 927.245784,5841.00437 C927.038354,5839.19948 926.017847,5837.77141 926.142049,5836.33185 C926.34948,5833.97004 927.504432,5832.12044 926.96921,5829.18638 C926.841167,5828.48895 926.042176,5828.2041 925.868036,5827.53861 C925.79121,5827.2461 926.445513,5826.31236 926.417343,5825.887 C926.326432,5824.46276 925.010145,5823.82026 925.868036,5822.59145 C928.682432,5820.54387 926.180463,5819.11069 925.591462,5817.36967 C925.262391,5816.3925 925.215015,5813.87997 925.317449,5813.24768 C925.494149,5812.1415 926.375089,5811.60374 926.96921,5810.22421 C926.14461,5808.75654 925.839867,5806.77027 924.489008,5805.82759 C924.842408,5804.36248 924.992219,5803.11834 925.040875,5801.97895 C925.934619,5801.95596 926.734891,5801.83972 927.245784,5801.42969 C926.564593,5801.46674 925.917973,5801.47185 925.591462,5801.15634 C926.759219,5799.71039 924.773265,5798.48669 924.489008,5797.03308 C924.101036,5795.03914 924.683634,5792.79357 925.591462,5791.81129 C924.414743,5788.96282 926.275215,5784.75908 925.591462,5781.36773 C926.58508,5779.91666 928.464758,5780.99474 929.448133,5779.71868 C930.239441,5776.82166 926.728489,5775.83938 924.489008,5775.04743 C925.805295,5771.75443 925.445493,5768.54064 923.664408,5765.42775 C925.295682,5761.20485 923.742514,5755.95752 923.938421,5750.58884 C927.624793,5746.49623 920.911473,5741.1416 924.214995,5736.29792 C921.495351,5732.56296 924.853932,5727.23899 922.561953,5723.65732 C924.499251,5721.99549 921.513277,5719.23898 923.387834,5716.23595 C923.067725,5715.27155 921.996001,5715.06079 922.010086,5713.76301 C922.487688,5709.70617 924.097195,5706.58178 921.459499,5703.8687 C922.642621,5699.22811 920.775747,5692.65618 922.28666,5687.37947 C920.307107,5685.00233 922.465921,5682.19984 920.081751,5680.78454 C922.590123,5678.84681 919.442814,5675.73137 921.182925,5673.36445 C919.687377,5671.71667 920.678434,5670.21324 920.633618,5668.14266 C920.619534,5667.55509 920.05102,5666.78357 920.081751,5666.21898 C920.122725,5665.4628 920.820562,5664.77431 920.908912,5664.0194 C921.038236,5662.903 920.299425,5661.29482 920.358325,5659.89869 C920.447955,5657.71443 920.545268,5657.31717 920.081751,5655.50079 C919.158557,5651.87696 919.282759,5649.05914 920.908912,5646.9809 C919.299405,5643.68536 919.906331,5638.44824 922.561953,5636.53862 C922.336597,5635.36857 920.526062,5634.71712 920.081751,5633.51386 C919.318612,5631.44968 920.351923,5627.94592 919.806457,5625.54579 C919.597746,5624.62738 918.802596,5624.01809 918.705283,5623.34621 C918.377492,5621.12874 919.709144,5619.31235 919.529883,5617.02591 C919.193129,5612.68166 917.346742,5607.77538 920.358325,5604.11068 C918.080431,5601.04505 918.867899,5596.49643 918.428709,5593.94174 C919.418486,5593.55471 920.259731,5593.01822 920.358325,5591.74343 C919.765483,5589.62815 918.828205,5587.79005 919.529883,5585.14723 C919.942183,5583.60164 921.473584,5582.74454 921.459499,5581.29987 C921.447975,5580.10811 920.16754,5579.1105 920.081751,5578.00177 C919.862796,5575.17628 921.919175,5573.89383 922.561953,5571.68019 C920.547829,5571.86029 921.479986,5570.32748 921.459499,5568.9339 C920.935801,5567.806 919.19569,5567.89159 918.980577,5566.45841 C920.934521,5565.62558 919.575979,5563.58949 919.806457,5562.06179 C919.948586,5561.12294 920.884584,5560.50981 920.908912,5559.58885 C920.940923,5558.34472 919.862796,5556.62158 919.529883,5555.19223 C918.697601,5551.59268 920.69636,5551.34742 920.908912,5548.87065 C921.097136,5546.67745 919.276357,5544.22495 919.806457,5541.72519 C921.591384,5540.62284 922.129166,5537.27109 922.010086,5535.13026 C921.729671,5534.31021 920.04846,5534.88885 919.529883,5534.3051 C920.661788,5530.79623 919.22642,5527.44704 919.529883,5525.23723 C919.96267,5522.08986 922.90639,5518.92715 921.734792,5515.89346 C921.253349,5514.64677 919.358305,5514.44495 918.980577,5512.86999 C920.040777,5511.58242 918.890946,5510.60526 918.980577,5509.84651 C920.487649,5508.81825 920.275097,5506.02087 918.705283,5505.17399 C919.162399,5502.50945 918.433831,5499.63542 919.806457,5497.20464 C917.22254,5492.38139 919.295564,5489.53546 918.980577,5484.01351 C917.497833,5483.62264 918.856375,5482.33635 918.428709,5481.8152 C918.01897,5482.45259 917.651485,5482.33891 917.327535,5481.8152 C917.42869,5479.33843 919.632318,5478.06747 919.529883,5475.76953 C919.494031,5474.92648 918.693759,5474.57266 918.428709,5473.57122 C918.308348,5473.11776 919.025392,5472.36796 918.980577,5471.92089 C918.997222,5472.10227 918.414625,5471.31543 918.428709,5471.37291 C917.482468,5467.48723 919.610551,5464.16741 917.050961,5461.75451 C918.01897,5458.52921 918.632298,5455.84934 917.050961,5452.95999 C918.54907,5447.25665 919.711705,5442.48832 917.601548,5437.02001 C921.085612,5432.86737 916.210996,5427.1883 920.081751,5423.55298 C918.655346,5423.39586 919.816701,5421.91414 919.806457,5421.62802 C918.869179,5420.13097 917.865318,5420.37239 917.601548,5418.88045 C917.351864,5417.45877 919.387755,5414.96284 919.25587,5413.11069 C919.148314,5411.60342 918.231522,5411.83079 917.878122,5410.08721 C918.707844,5407.08929 917.211016,5404.4669 919.25587,5402.39249 C917.969033,5398.84658 919.828225,5395.08992 920.358325,5391.12504 C917.049681,5390.09678 919.865357,5386.26602 918.428709,5384.25421 C919.223859,5383.11737 920.075349,5380.58823 919.806457,5379.30833 C919.753959,5380.85775 918.350603,5379.68898 918.154696,5379.03242 C919.217457,5378.35288 919.353183,5378.71692 918.705283,5377.10874 C921.229021,5375.51078 919.948586,5369.56858 919.25587,5367.76497 C921.182925,5363.8052 918.643822,5358.57959 920.081751,5353.47532 C921.031834,5352.77278 923.071566,5353.15854 923.387834,5351.82499 C922.451836,5349.85788 921.733512,5349.30479 920.633618,5347.703 C920.447955,5346.37073 921.442853,5346.37329 922.010086,5345.23006 C921.248227,5344.33592 920.351923,5343.87863 920.358325,5342.4825 C920.362166,5341.52832 921.513277,5341.04676 921.734792,5340.00828 C922.141971,5338.10759 920.506855,5335.53758 922.561953,5335.06113 C925.175321,5334.10695 926.914152,5335.46349 928.620972,5334.7865 C929.377709,5333.74291 929.039674,5332.6495 928.620972,5331.4884 C926.247045,5330.52911 924.651623,5330.49079 922.010086,5329.83934 C922.506895,5328.95159 921.957588,5327.46348 922.010086,5326.81587 C921.833386,5326.25767 920.723249,5326.63577 920.633618,5325.99198 C919.582381,5322.19444 921.975514,5317.95749 920.358325,5313.90192 C920.450516,5311.66657 921.695099,5310.07117 921.734792,5307.57907 C921.759121,5306.1229 920.410823,5304.49045 920.358325,5302.90654 C920.241805,5299.3683 922.088192,5295.45196 920.081751,5292.73888 C920.531184,5292.08616 920.692518,5291.14859 920.908912,5290.26595 C920.163699,5287.85943 920.426188,5284.40549 921.734792,5281.74734 C920.906351,5279.73424 919.508116,5278.28829 918.428709,5276.52428 C919.586223,5274.98508 918.175183,5273.77416 918.428709,5272.67692 C918.830766,5272.52747 919.852553,5272.99881 919.806457,5272.40229 C919.103499,5272.37163 918.390296,5272.34992 918.428709,5271.5784 C921.37499,5269.97278 923.047238,5266.95825 921.182925,5263.8824 C922.026732,5263.21435 924.144571,5263.12749 923.938421,5262.23463 C923.58374,5260.5728 920.190588,5261.94339 919.529883,5260.58558 C919.564455,5255.01508 919.310929,5252.45656 918.705283,5248.49296 C919.034355,5247.81341 919.647683,5247.41871 920.358325,5247.11981 C919.500433,5244.05419 920.250768,5240.84167 918.705283,5238.3253 C920.719407,5237.3047 919.217457,5235.55985 920.358325,5233.37815 C916.650185,5229.38134 921.378831,5224.20554 918.428709,5220.46164 C919.724509,5219.09105 918.710405,5217.3347 918.705283,5215.7904 C918.691198,5211.23155 919.648964,5206.63184 919.25587,5202.32336 C920.811599,5200.51847 920.707884,5197.18077 919.25587,5193.80347 C921.803936,5189.29955 919.070207,5185.14819 919.25587,5180.33771 C919.295564,5179.73608 919.949866,5179.74758 920.633618,5179.78845 C920.007486,5178.08831 918.766744,5176.78158 918.980577,5174.8413 C919.094535,5173.79387 919.890966,5173.37107 920.358325,5172.36836 C920.837207,5171.33626 920.532464,5170.10874 921.459499,5169.61824 C919.993401,5168.77647 921.302005,5166.72122 921.182925,5164.94699 C918.115003,5161.22353 920.145773,5156.5229 918.705283,5151.2066 C920.597766,5149.29058 919.042038,5146.49064 920.358325,5143.78778 C918.830766,5141.09642 921.061284,5138.26838 920.358325,5134.99199 C919.935781,5133.01977 916.997183,5130.70778 919.25587,5128.12243 C918.878142,5127.52336 918.967772,5126.90513 918.980577,5125.92285 C919.002344,5124.09114 918.798755,5121.9056 919.806457,5121.52623 C917.492711,5119.17719 920.898668,5116.24441 920.633618,5113.28225 C918.269935,5111.05584 918.917835,5107.3822 921.182925,5105.3129 C920.410823,5103.63575 920.955007,5101.11299 922.28666,5100.64038 C920.418505,5100.95588 922.214955,5098.85976 920.081751,5098.16744 C920.93196,5095.7226 920.027973,5092.24311 919.806457,5089.09829 C920.231562,5086.11059 922.69896,5083.02197 922.28666,5080.02915 C922.152214,5079.06476 920.951166,5078.20638 920.633618,5077.28031 C920.030533,5075.52268 920.468442,5073.78294 919.25587,5072.60778 C918.953688,5071.1184 920.853853,5071.82221 920.358325,5070.13612 C917.203333,5066.19296 920.591364,5062.42607 923.938421,5061.0657 C924.033173,5059.61719 924.564554,5057.39844 924.214995,5056.39445 C923.67081,5055.01236 921.482547,5055.27294 920.358325,5054.47077 C920.857694,5051.5316 920.504294,5047.089 919.529883,5044.02721 C921.131708,5040.53111 919.975475,5034.40625 920.358325,5028.91239 C920.513257,5027.78322 921.646442,5027.63249 921.734792,5026.43945 C920.838488,5024.43275 919.464581,5023.95885 919.806457,5021.4923 C919.995962,5020.12937 921.688697,5019.28888 921.734792,5017.92085 C921.777047,5016.67927 920.647703,5016.1249 920.633618,5014.89737 C920.999823,5013.4297 922.946084,5013.53956 922.28666,5011.04873 C921.748877,5010.48543 920.204673,5010.92611 920.081751,5009.94894 C921.25591,5006.44902 918.501694,5002.17247 920.081751,4999.50665 C917.969033,4995.68356 921.208534,4989.09374 919.806457,4982.46816 C921.193168,4981.07585 920.276377,4979.81128 920.358325,4977.79563 C920.449236,4976.69584 921.497912,4976.55278 921.459499,4975.3227 C921.015188,4973.01581 921.176523,4972.79611 921.734792,4970.65017 C920.920436,4968.81335 918.817962,4966.45537 922.010086,4963.77934 C921.353223,4961.77902 921.537605,4958.93948 920.358325,4957.46032 C921.777047,4954.59523 920.953727,4950.76064 922.28666,4948.11527 C920.253329,4945.42901 921.326334,4938.80726 923.664408,4937.12244 C922.28794,4936.9385 921.587542,4936.07885 920.908912,4935.19876 C921.540166,4933.08348 922.076669,4930.69996 922.010086,4928.32793 C921.980636,4927.2524 921.163718,4926.33272 921.459499,4925.30445 C921.618273,4924.75264 922.204712,4924.48057 922.28666,4923.93259 C922.873099,4919.94855 920.752699,4915.33606 922.561953,4912.1146 C922.088192,4911.21279 921.830825,4910.09384 921.734792,4908.8165 C923.025471,4908.40136 921.627236,4907.01544 923.11126,4906.89281 C919.746277,4904.16952 924.387854,4900.9455 921.734792,4897.82367 C921.755279,4896.21677 923.933299,4895.53084 923.387834,4894.24966 C923.001143,4892.90462 921.738634,4895.26771 921.734792,4893.15115 C921.898688,4891.76906 923.093334,4893.2048 923.664408,4893.15115 C923.504353,4891.93639 921.75784,4892.30554 921.734792,4890.95284 C922.55299,4889.24886 923.606788,4886.36589 922.010086,4884.35663 C922.830845,4882.46105 922.938401,4881.77384 923.938421,4880.7839 C919.056122,4876.29148 922.439032,4869.11281 923.664408,4862.92152 C923.235462,4861.88304 922.309708,4861.34017 922.010086,4860.17395 C922.186786,4857.572 920.61057,4853.6991 920.633618,4851.10481 C921.920455,4849.94754 921.679734,4848.3598 922.28666,4846.98154 C922.245686,4845.92135 921.355784,4845.71186 921.459499,4844.5086 C921.568336,4842.14169 922.334036,4839.99702 922.561953,4837.36186 C922.791151,4834.71776 921.583701,4832.13114 922.010086,4829.66842 C922.157336,4828.81515 922.978095,4828.04108 923.11126,4827.1942 C923.363506,4825.62818 922.239284,4824.00084 923.664408,4822.79759 C920.995981,4819.15205 924.489008,4814.46164 924.214995,4810.70497 C924.162497,4809.99349 923.515877,4809.25518 923.387834,4808.50666 C923.061323,4806.57148 923.330214,4804.74616 924.214995,4803.28488 C922.526101,4802.90295 924.133047,4801.55663 924.214995,4800.53731 C923.152234,4798.90103 923.144551,4797.6569 923.11126,4795.31553 C923.46594,4794.84419 924.423706,4794.97575 924.489008,4794.21701 C923.962749,4794.08928 923.304606,4795.06389 923.387834,4793.94238 C923.367347,4792.75828 923.956347,4792.15027 925.040875,4791.46817 C925.067765,4790.25724 924.118962,4790.34283 925.040875,4789.54576 C925.422445,4789.8932 925.82066,4790.88697 926.142049,4789.81911 C926.003763,4788.74231 924.908991,4788.25181 924.214995,4787.07155 C925.176602,4784.32526 924.121523,4782.57402 923.938421,4781.02588 C923.824462,4780.04999 924.392975,4778.70111 924.214995,4778.00368 C923.952506,4776.98308 922.78859,4776.33419 922.561953,4775.25356 C922.08051,4772.96584 922.835966,4769.17851 921.734792,4767.56012 C921.289201,4766.90356 920.830805,4767.13731 920.633618,4766.45904 C919.477386,4762.498 921.889725,4761.65495 922.561953,4759.31486 C923.508195,4756.01548 921.282799,4752.15024 923.938421,4749.42183 C920.148333,4746.85692 924.559432,4742.62636 922.010086,4738.97699 C924.328954,4734.90737 922.326353,4730.11733 923.11126,4725.78713 C922.793712,4724.63752 922.204712,4723.76126 922.010086,4722.48903 C924.241884,4719.48088 922.127886,4716.06271 922.561953,4713.14525 C922.761701,4711.79382 924.002443,4710.54203 923.938421,4709.29662 C921.780888,4707.19539 923.52228,4704.20129 922.561953,4701.32727 C922.956327,4700.8968 923.997321,4701.11012 923.938421,4700.22875 C922.14069,4696.85145 921.733512,4692.47527 923.387834,4688.41076 C920.468442,4684.51103 924.157375,4677.01047 921.182925,4673.57058 C923.782208,4667.2605 921.487668,4662.36061 919.806457,4656.80671 C920.426188,4655.15766 919.828225,4653.36427 920.081751,4651.3103 C920.281499,4649.68552 921.394197,4646.95073 921.182925,4645.53798 C921.004944,4644.34239 919.851273,4643.45975 919.806457,4642.24116 C919.773166,4641.29976 920.485088,4640.42861 920.633618,4639.49231 C920.741175,4638.8051 920.28406,4638.0272 920.358325,4637.294 C920.467162,4636.18399 921.163718,4635.45463 921.182925,4634.54644 C921.276397,4630.62882 919.78469,4627.48911 920.633618,4624.10287 C920.125286,4623.51018 919.78597,4622.75016 919.25587,4622.17919 C921.189327,4621.14965 919.762923,4619.1621 919.806457,4617.50667 C919.838468,4616.366 920.724529,4615.13719 920.633618,4613.93394 C920.37241,4610.49405 920.715566,4606.67734 920.633618,4603.76628 C920.034375,4602.62305 919.60799,4601.30739 918.705283,4600.46817 C922.057462,4595.03052 920.586242,4588.83285 922.561953,4583.42968 C920.301986,4579.99235 922.408301,4572.00511 920.358325,4569.14003 C920.951166,4567.54974 921.367308,4564.67699 921.182925,4562.54383 C921.111221,4561.69056 920.458199,4560.91393 920.358325,4560.06961 C920.22644,4558.98387 920.974214,4557.06019 920.908912,4555.39836 C920.834647,4553.53089 920.545268,4552.31102 921.459499,4550.72711 C921.395477,4549.57367 920.394177,4548.87624 920.358325,4547.70364 C920.340399,4547.19398 921.565775,4545.48617 921.459499,4544.40554 C921.396758,4543.77453 920.543988,4543.45136 920.633618,4543.03112 C920.759101,4542.4346 922.195749,4542.23916 921.734792,4541.65797 C920.926838,4538.37647 918.817962,4535.43603 919.806457,4532.03957 C920.054862,4531.17992 921.097136,4530.76861 921.182925,4529.83998 C921.325053,4528.32505 920.182905,4527.51522 919.806457,4525.99262 C919.276357,4523.84796 919.232822,4521.8949 920.358325,4520.49621 C919.869199,4520.43362 918.978016,4520.77212 919.25587,4519.94695 C918.285301,4517.65795 918.942164,4515.25655 919.25587,4512.25223 C921.788571,4510.30173 919.102218,4508.12513 918.154696,4506.47991 C920.331436,4503.8869 918.574679,4500.01017 918.980577,4495.76172 L676.422662,4495.76172 C675.21137,4496.9356 676.26901,4498.72899 675.869514,4500.21582 C675.656962,4501.0116 674.829801,4501.1751 674.752975,4502.1676 C674.523777,4505.08889 677.243421,4508.05999 675.591659,4510.53165 C675.322768,4511.7298 676.965566,4511.02087 676.988614,4511.92651 C674.852848,4515.4622 675.431605,4518.4333 673.35602,4523.079 C674.914309,4525.75759 674.632614,4528.95734 674.47512,4533.11893 C674.363722,4536.00445 674.508411,4539.48265 674.193424,4541.76271 C674.058979,4542.74244 673.420042,4543.6238 673.35602,4544.54988 C673.26639,4545.79657 673.980872,4547.07008 673.91429,4548.17626 C673.854109,4549.17642 673.023107,4549.91345 673.076885,4550.9647 C673.082007,4551.06561 674.225435,4551.41305 673.076885,4551.52035 C672.635135,4551.80008 674.26897,4552.35701 674.193424,4553.19367 C669.918052,4556.39597 675.572453,4562.79674 671.67865,4566.02076 C674.712001,4567.93422 670.408459,4571.06116 673.35602,4572.99122 C672.407218,4573.84449 671.933457,4575.13716 671.957785,4576.33786 C671.97315,4577.18219 672.878418,4577.72123 673.076885,4578.56811 C674.249764,4583.59701 670.229198,4587.14547 673.076885,4590.55726 C672.968048,4591.818 671.760598,4590.24814 671.398235,4591.11801 C671.728587,4591.5306 672.453313,4591.54976 672.79647,4591.95212 C670.245844,4595.02924 672.142168,4600.81306 672.23692,4604.49947 C670.850209,4605.44726 671.473781,4607.02606 670.841246,4608.96123 C672.866894,4610.74441 672.085829,4612.62593 670.841246,4614.81786 C672.464837,4617.27164 670.58772,4621.3502 672.79647,4623.46037 C671.567252,4626.39698 671.258668,4630.36058 672.23692,4633.50029 C671.11782,4635.22598 671.26507,4639.48337 670,4641.86562 C672.840005,4644.71282 671.357261,4651.0229 670,4654.41297 C670.907828,4654.66333 671.980833,4654.37721 672.517335,4655.52682 C671.938579,4659.36268 669.332893,4664.39158 673.076885,4666.96032 C671.713222,4670.42959 670.637657,4672.7799 672.79647,4676.16231 C671.5314,4677.39367 673.197246,4676.97087 671.67865,4678.11281 C672.329111,4678.85367 672.426424,4677.37323 673.076885,4678.11281 C669.609467,4680.57042 674.044894,4686.19585 671.11782,4688.70966 C672.23692,4688.87061 672.388011,4690.06365 672.517335,4690.66272 C672.62105,4691.14556 672.875857,4693.13438 672.79647,4694.00808 C672.713242,4694.93033 671.873276,4695.44765 671.957785,4696.23833 C672.064061,4697.23338 673.226696,4698.04322 673.35602,4699.02677 C673.41364,4699.48661 672.836163,4700.23131 672.79647,4700.97855 C672.699157,4702.79621 673.234379,4703.94199 672.517335,4705.71878 C673.244622,4707.38316 673.88612,4708.3897 674.193424,4709.9008 C674.123001,4711.07085 672.476361,4711.45533 672.23692,4712.69052 C671.893763,4714.4622 673.359861,4714.98208 673.635155,4716.87255 C673.824659,4718.16777 672.662024,4720.31116 672.517335,4722.44943 C672.364963,4724.69372 672.664585,4725.32345 671.957785,4726.63145 C672.064061,4728.01354 673.286877,4728.28178 673.635155,4729.4199 C673.984714,4731.64248 671.038433,4733.99407 671.398235,4736.39036 C671.541644,4737.34965 673.12042,4738.16843 673.35602,4739.17881 C673.778564,4740.99647 672.452033,4743.71466 672.79647,4746.70875 C673.006461,4748.53663 674.042333,4749.98897 673.91429,4751.4477 C673.704298,4753.84272 672.53142,4755.72169 673.076885,4758.6979 C673.203648,4759.40427 674.016724,4759.69551 674.193424,4760.36995 C674.270251,4760.66501 673.606985,4761.61536 673.635155,4762.04327 C673.729907,4763.49177 675.065401,4764.1445 674.193424,4765.38991 C671.338055,4767.46687 673.878437,4768.92304 674.47512,4770.68705 C674.809314,4771.67827 674.854129,4774.22785 674.752975,4774.87036 C674.572433,4775.99186 673.67997,4776.53857 673.076885,4777.93726 C673.911729,4779.42792 674.221594,4781.44229 675.591659,4782.39902 C675.233138,4783.88585 675.080766,4785.14914 675.030829,4786.30514 C674.123001,4786.32558 673.313766,4786.44693 672.79647,4786.86206 C673.486624,4786.82374 674.143488,4786.81863 674.47512,4787.13925 C673.289437,4788.60436 675.303562,4789.84722 675.591659,4791.32255 C675.984753,4793.34714 675.394472,4795.62081 674.47512,4796.62097 C675.667205,4799.51032 673.779844,4803.77538 674.47512,4807.21782 C673.464857,4808.68932 671.56085,4807.59591 670.55955,4808.88859 C669.757998,4811.82903 673.320168,4812.82536 675.591659,4813.62881 C674.257446,4816.97034 674.62237,4820.22885 676.429064,4823.389 C674.773462,4827.67321 676.349677,4832.99718 676.15121,4838.44505 C672.411059,4842.5977 679.221693,4848.02896 675.869514,4852.94418 C678.631412,4856.73151 675.221614,4862.13723 677.548164,4865.77255 C675.582696,4867.45737 678.613486,4870.25475 676.71076,4873.29994 C677.033429,4874.27839 678.123079,4874.49298 678.108995,4875.80992 C677.62371,4879.92553 675.989875,4883.09589 678.665984,4885.84857 C677.466216,4890.55558 679.35998,4897.2246 677.827299,4902.57667 C679.836301,4904.99085 677.642916,4907.83422 680.064219,4909.26995 C677.518714,4911.23834 680.713399,4914.39721 678.946399,4916.7999 C680.463714,4918.47066 679.458573,4919.99709 679.504669,4922.09704 C679.518753,4922.69228 680.094949,4923.4753 680.064219,4924.04882 C680.023245,4924.81523 679.315164,4925.51522 679.224253,4926.27907 C679.093649,4927.41463 679.842703,4929.04452 679.783803,4930.46237 C679.694173,4932.67856 679.594299,4933.08092 680.064219,4934.92285 C681.000217,4938.60161 680.874734,4941.4603 679.224253,4943.56792 C680.858088,4946.91328 680.242199,4952.22704 677.548164,4954.16349 C677.776081,4955.35142 679.613506,4956.01181 680.064219,4957.23039 C680.836321,4959.32651 679.788925,4962.88136 680.344634,4965.31598 C680.557186,4966.24972 681.360019,4966.86668 681.462454,4967.54622 C681.794086,4969.79946 680.441947,4971.64011 680.621208,4973.96105 C680.965645,4978.36788 682.838921,4983.34697 679.783803,4987.06532 C682.094989,4990.17438 681.295997,4994.79198 681.740308,4997.38243 C680.736447,4997.7733 679.883677,4998.32 679.783803,4999.61523 C680.385608,5001.75989 681.335691,5003.62098 680.621208,5006.30723 C680.205067,5007.87453 678.651899,5008.74185 678.665984,5010.2108 C678.677508,5011.42044 679.975869,5012.43082 680.064219,5013.55744 C680.285734,5016.42124 678.201186,5017.72413 677.548164,5019.96971 C679.593019,5019.78832 678.644216,5021.34157 678.665984,5022.75687 C679.197364,5023.90009 680.961804,5023.81196 681.182038,5025.26813 C679.198645,5026.11501 680.576393,5028.17792 680.344634,5029.72861 C680.198664,5030.68151 679.248582,5031.30358 679.224253,5032.23732 C679.192243,5033.50189 680.287014,5035.24802 680.621208,5036.6978 C681.470136,5040.35229 679.443208,5040.60009 679.224253,5043.11263 C679.033469,5045.33776 680.882417,5047.82603 680.344634,5050.36283 C678.531538,5051.48179 677.986073,5054.8808 678.108995,5057.05484 C678.393251,5057.88511 680.09879,5057.29881 680.621208,5057.8915 C679.473938,5061.45018 680.931073,5064.84919 680.621208,5067.09349 C680.183299,5070.28429 677.197325,5073.49426 678.386849,5076.57266 C678.875975,5077.83723 680.801749,5078.04288 681.182038,5079.64084 C680.105193,5080.94756 681.271669,5081.93878 681.182038,5082.70646 C679.650638,5083.75005 679.867032,5086.58959 681.462454,5087.44669 C680.996375,5090.15466 681.736467,5093.06828 680.344634,5095.53355 C682.964404,5100.42706 680.86321,5103.31641 681.182038,5108.92012 C682.685269,5109.31482 681.307521,5110.62026 681.740308,5111.14909 C682.15773,5110.50403 682.530336,5110.61899 682.858128,5111.14909 C682.755693,5113.66162 680.518773,5114.95046 680.621208,5117.28417 C680.660901,5118.13871 681.471417,5118.49765 681.740308,5119.51441 C681.861949,5119.97298 681.137223,5120.733 681.182038,5121.18646 C681.161551,5121.00252 681.755673,5121.80214 681.740308,5121.74466 C682.699354,5125.68526 680.541821,5129.05617 683.137263,5131.50484 C682.15773,5134.77357 681.532878,5137.49431 683.137263,5140.42709 C681.619947,5146.21474 680.441947,5151.05204 682.580273,5156.59954 C679.043712,5160.81223 683.991313,5166.5756 680.064219,5170.26202 C681.512391,5170.42041 680.33311,5171.92384 680.344634,5172.2138 C681.295997,5173.73639 682.312663,5173.48987 682.580273,5175.00224 C682.8338,5176.44564 680.768458,5178.97861 680.902904,5180.85759 C681.011741,5182.38785 681.941336,5182.15792 682.301139,5183.92449 C681.459893,5186.96712 682.977208,5189.62783 680.902904,5191.73162 C682.208947,5195.3299 680.321586,5199.14277 679.783803,5203.16513 C683.139823,5204.20999 680.283173,5208.09695 681.740308,5210.13687 C680.933634,5211.28776 680.071901,5213.8565 680.344634,5215.15683 C680.397132,5213.58314 681.819695,5214.76724 682.020723,5215.43402 C680.940036,5216.12378 680.80303,5215.75591 681.462454,5217.38452 C678.901584,5219.00803 680.198664,5225.03837 680.902904,5226.86752 C678.946399,5230.88349 681.522634,5236.18703 680.064219,5241.36666 C679.100051,5242.07814 677.030868,5241.68599 676.71076,5243.0387 C677.659562,5245.03391 678.388129,5245.59722 679.504669,5247.222 C679.694173,5248.57343 678.68391,5248.57088 678.108995,5249.73071 C678.879816,5250.6389 679.788925,5251.10385 679.783803,5252.52043 C679.779962,5253.48738 678.613486,5253.97404 678.386849,5255.02913 C677.973268,5256.9592 679.632712,5259.56498 677.548164,5260.04782 C674.897664,5261.01732 673.129383,5259.63906 671.398235,5260.32755 C670.632535,5261.38519 670.975691,5262.49393 671.398235,5263.67292 C673.808014,5264.64881 675.426483,5264.68585 678.108995,5265.34752 C677.603223,5266.24677 678.160212,5267.75786 678.108995,5268.41314 C678.284414,5268.97901 679.412477,5268.59708 679.504669,5269.2498 C680.569991,5273.10483 678.139725,5277.40309 679.783803,5281.51869 C679.690332,5283.78598 678.426542,5285.40437 678.386849,5287.93096 C678.363801,5289.41012 679.731306,5291.06556 679.783803,5292.67246 C679.902884,5296.26308 678.028327,5300.23817 680.064219,5302.98957 C679.608384,5303.64996 679.444488,5304.60158 679.224253,5305.49827 C679.98099,5307.94056 679.71338,5311.44431 678.386849,5314.14206 C679.228095,5316.18581 680.646817,5317.65093 681.740308,5319.43921 C680.564869,5321.00396 681.998956,5322.23148 681.740308,5323.34405 C681.33441,5323.49605 680.295977,5323.01705 680.344634,5323.62379 C681.055275,5323.65572 681.782562,5323.67616 681.740308,5324.45917 C678.750492,5326.08906 677.053916,5329.14702 678.946399,5332.26758 C678.091068,5332.94585 675.942499,5333.03398 676.15121,5333.93962 C676.509731,5335.62571 679.954101,5334.23469 680.621208,5335.61549 C680.589197,5341.26519 680.849125,5343.86075 681.462454,5347.88311 C681.12698,5348.57287 680.504688,5348.97396 679.783803,5349.27797 C680.654499,5352.38702 679.89264,5355.64425 681.462454,5358.19894 C679.41888,5359.23614 680.940036,5361.00526 679.783803,5363.21762 C683.545721,5367.27447 678.749212,5372.52691 681.740308,5376.32445 C680.426582,5377.71548 681.456052,5379.49482 681.462454,5381.0634 C681.473978,5385.68994 680.503408,5390.3548 680.902904,5394.72587 C679.322847,5396.55758 679.429123,5399.9451 680.902904,5403.37094 C678.316425,5407.94255 681.091128,5412.15396 680.902904,5417.03213 C680.860649,5417.6427 680.198664,5417.63376 679.504669,5417.59161 C680.141045,5419.3173 681.399712,5420.64191 681.182038,5422.6103 C681.064238,5423.6756 680.257564,5424.10223 679.783803,5425.12155 C679.297238,5426.16514 679.603262,5427.41311 678.665984,5427.90872 C680.153849,5428.76454 678.826038,5430.84916 678.946399,5432.64894 C682.059136,5436.42605 680.000197,5441.19948 681.462454,5446.58988 C679.541801,5448.53655 681.116736,5451.37736 679.783803,5454.11982 C681.33441,5456.84951 679.070601,5459.72097 679.783803,5463.04335 C680.21403,5465.04495 683.192321,5467.39015 680.902904,5470.01254 C681.284473,5470.62183 681.193562,5471.24901 681.182038,5472.2415 C681.158991,5474.10387 681.36386,5476.32134 680.344634,5476.70582 C682.691671,5479.08934 679.235777,5482.063 679.504669,5485.06987 C681.901643,5487.32949 681.24478,5491.05806 678.946399,5493.15674 C679.731306,5494.85816 679.176877,5497.41923 677.827299,5497.89824 C679.721062,5497.57762 677.899003,5499.70312 680.064219,5500.40566 C679.201206,5502.88754 680.117997,5506.41557 680.344634,5509.60893 C679.913127,5512.64007 677.408597,5515.77339 677.827299,5518.81091 C677.963025,5519.78808 679.181999,5520.65795 679.504669,5521.59936 C680.116717,5523.38253 679.671125,5525.14654 680.902904,5526.33958 C681.206367,5527.85196 679.280593,5527.13664 679.783803,5528.84701 C682.984891,5532.8502 679.545643,5536.66819 676.15121,5538.049 C676.055177,5539.51922 675.514833,5541.77245 675.869514,5542.78922 C676.422662,5544.19302 678.642936,5543.92861 679.783803,5544.741 C679.278032,5547.7236 679.635273,5552.2339 680.621208,5555.33657 C678.998897,5558.88503 680.171775,5565.10059 679.783803,5570.67492 C679.62631,5571.81942 678.476479,5571.9727 678.386849,5573.18362 C679.297238,5575.21716 680.690351,5575.69999 680.344634,5578.20231 C680.151288,5579.58695 678.432945,5580.43894 678.386849,5581.82741 C678.343314,5583.08687 679.489303,5583.6489 679.504669,5584.89431 C679.133343,5586.3837 677.156351,5586.27001 677.827299,5588.79788 C678.372764,5589.36885 679.938736,5588.92306 680.064219,5589.913 C678.872134,5593.46529 681.669884,5597.80443 680.064219,5600.50729 C682.206386,5604.38914 678.918229,5611.07476 680.344634,5617.79742 C678.936156,5619.20761 679.865751,5620.4939 679.783803,5622.53892 C679.691612,5623.65277 678.627571,5623.79966 678.665984,5625.04635 C679.116697,5627.38644 678.954082,5627.61126 678.386849,5629.78657 C679.211449,5631.6515 681.347215,5634.04396 678.108995,5636.75704 C678.774821,5638.78802 678.589158,5641.66971 679.783803,5643.17186 C678.343314,5646.07782 679.180719,5649.96989 677.827299,5652.65231 C679.888799,5655.37689 678.800429,5662.09444 676.429064,5663.8048 C677.826018,5663.99385 678.535379,5664.865 679.224253,5665.75786 C678.585316,5667.90508 678.041132,5670.32309 678.108995,5672.72833 C678.137164,5673.8179 678.965606,5674.7542 678.665984,5675.79651 C678.504649,5676.35471 677.909247,5676.63317 677.827299,5677.19137 C677.231897,5681.23161 679.384308,5685.91052 677.548164,5689.17925 C678.028327,5690.09638 678.288255,5691.23066 678.386849,5692.52589 C677.078244,5692.94741 678.494405,5694.35249 676.988614,5694.47767 C680.402254,5697.24056 675.695375,5700.51312 678.386849,5703.67838 C678.367642,5705.30955 676.155051,5706.00442 676.71076,5707.30476 C677.101292,5708.67024 678.381727,5706.27266 678.386849,5708.4186 C678.221673,5709.82368 677.00654,5708.36495 676.429064,5708.4186 C676.590399,5709.65252 678.365082,5709.27826 678.386849,5710.65012 C677.557127,5712.38092 676.487964,5715.30476 678.108995,5717.34341 C677.275431,5719.26709 677.162753,5719.96452 676.15121,5720.96723 C681.103932,5725.52607 677.673647,5732.81077 676.429064,5739.09147 C676.864412,5740.14655 677.802971,5740.69581 678.108995,5741.87863 C677.929734,5744.5189 679.526436,5748.44929 679.504669,5751.08062 C678.198625,5752.2545 678.443188,5753.86778 677.827299,5755.2652 C677.868273,5756.33945 678.77226,5756.55276 678.665984,5757.7739 C678.554586,5760.17403 677.779923,5762.3519 677.548164,5765.02283 C677.313844,5767.70781 678.540501,5770.33147 678.108995,5772.83124 C677.956623,5773.696 677.125621,5774.48156 676.988614,5775.34122 C676.735088,5776.92896 677.875955,5778.58056 676.429064,5779.80298 C679.135903,5783.49961 675.591659,5788.26028 675.869514,5792.07059 C675.923292,5792.79485 676.581436,5793.54209 676.71076,5794.29956 C677.042392,5796.26539 676.767099,5798.11754 675.869514,5799.60054 C677.584016,5799.98757 675.954023,5801.35433 675.869514,5802.3877 C676.94764,5804.04825 676.957884,5805.30899 676.988614,5807.68613 C676.631373,5808.16513 675.658242,5808.03101 675.591659,5808.80125 C676.126881,5808.93026 676.793988,5807.94159 676.71076,5809.08099 C676.729966,5810.28041 676.132003,5810.89992 675.030829,5811.58841 C675.00522,5812.81722 675.968107,5812.73163 675.030829,5813.54147 C674.644138,5813.18637 674.240801,5812.17854 673.91429,5813.26301 C674.056418,5814.35769 675.167835,5814.85203 675.869514,5816.05145 C674.895103,5818.83734 675.966827,5820.61285 676.15121,5822.18654 C676.267729,5823.1752 675.690253,5824.54451 675.869514,5825.25216 C676.135844,5826.28553 677.316405,5826.94464 677.548164,5828.0406 C678.03601,5830.36026 677.267749,5834.20762 678.386849,5835.85156 C678.837562,5836.51451 679.304921,5836.2782 679.504669,5836.96285 C680.676267,5840.98521 678.228075,5841.84103 677.548164,5844.21306 C676.587838,5847.56226 678.846525,5851.48115 676.15121,5854.25171 C679.997636,5856.85238 675.521236,5861.14553 678.108995,5864.84728 C675.754275,5868.97821 677.787605,5873.83595 676.988614,5878.23257 C677.310003,5879.3975 677.909247,5880.28909 678.108995,5881.57665 C675.842625,5884.62823 677.988634,5888.09749 677.548164,5891.0571 C677.344575,5892.42897 676.084627,5893.69993 676.15121,5894.96322 C678.340753,5897.09638 676.573753,5900.13135 677.548164,5903.04881 C677.146107,5903.48566 676.089749,5903.26596 676.15121,5904.16521 C677.974549,5907.58721 678.388129,5912.02981 676.71076,5916.1518 C679.671125,5920.11285 675.928414,5927.72071 678.946399,5931.21041 C676.309983,5937.61246 678.637814,5942.58389 680.344634,5948.21953 C679.71338,5949.89413 680.321586,5951.71306 680.064219,5953.79641 C679.86191,5955.44674 678.731286,5958.21986 678.946399,5959.65431 C679.12566,5960.86779 680.297258,5961.76449 680.344634,5962.99968 C680.377925,5963.95513 679.651919,5964.83778 679.504669,5965.78557 C679.395832,5966.483 679.859349,5967.27495 679.783803,5968.01709 C679.672406,5969.1437 678.966886,5969.88584 678.946399,5970.80681 C678.852927,5974.78318 680.366401,5977.96504 679.504669,5981.40237 C680.020684,5982.00528 680.363841,5982.77552 680.902904,5983.35416 C678.941277,5984.39775 680.388169,5986.4134 680.344634,5988.09438 C680.311343,5989.25165 679.412477,5990.49707 679.504669,5991.71948 C679.768438,5995.21174 679.42144,5999.08337 679.504669,6002.03531 C680.112875,6003.19387 680.544382,6004.52997 681.462454,6005.38323 C678.057777,6010.89753 679.552045,6017.18717 677.548164,6022.66953 C679.840143,6026.15796 677.701816,6034.26271 679.783803,6037.16994 C679.181999,6038.78451 678.759456,6041.6943 678.946399,6043.85939 C679.020664,6044.72799 679.682649,6045.51483 679.783803,6046.37065 C679.916969,6047.47172 679.158951,6049.42606 679.224253,6051.11215 C679.299799,6053.00518 679.593019,6054.2442 678.665984,6055.8511 C678.731286,6057.01732 679.746671,6057.73135 679.783803,6058.91928 C679.800449,6059.43661 678.557147,6061.16741 678.665984,6062.26337 C678.728725,6062.9046 679.594299,6063.23032 679.504669,6063.65951 C679.377906,6064.26497 677.91949,6064.46168 678.386849,6065.05181 C679.206327,6068.38057 681.347215,6071.36572 680.344634,6074.81455 C680.088547,6075.68315 679.032188,6076.09956 678.946399,6077.04224 C678.80299,6078.57889 679.961784,6079.40022 680.344634,6080.94708 C680.882417,6083.12368 680.925951,6085.10611 679.783803,6086.52524 C680.279332,6086.58656 681.184599,6086.24167 680.902904,6087.08089 C681.887558,6089.40182 681.219171,6091.83899 680.902904,6094.89185 C680.531577,6095.17542 680.279332,6095.46793 680.107754,6095.76172 L923.938421,6095.76172 C924.124084,6092.54409 925.423725,6091.05981 923.664408,6088.34163 C924.869297,6087.18308 923.820621,6085.41268 924.214995,6083.94373 C924.426267,6083.15944 925.239343,6082.99722 925.317449,6082.02005 C925.542806,6079.14219 922.861575,6076.21197 924.489008,6073.77479 C924.754058,6072.59581 923.136869,6073.29324 923.11126,6072.40165 C925.218856,6068.91833 924.646501,6065.98938 926.692637,6061.4101 C925.154834,6058.76983 925.43653,6055.61479 925.591462,6051.51579 C925.700299,6048.66987 925.556891,6045.24276 925.868036,6042.99719 C925.999921,6042.03151 926.628615,6041.15909 926.692637,6040.24834 C926.779706,6039.01954 926.078028,6037.76519 926.142049,6036.67306 C926.200949,6035.68822 927.021708,6034.96141 926.96921,6033.92804 C926.964089,6033.82586 925.836026,6033.48353 926.96921,6033.37751 C927.403278,6033.1016 925.793771,6032.55234 925.868036,6031.72846 C930.084509,6028.57342 924.508214,6022.26461 928.346958,6019.08658 C925.354582,6017.20122 929.600504,6014.12027 926.692637,6012.21702 C927.628634,6011.37398 928.094713,6010.1043 928.070385,6008.91764 C928.055019,6008.08609 927.163837,6007.55727 926.96921,6006.71806 C925.814258,6001.76196 929.773363,5998.26715 926.96921,5994.90135 C927.076767,5993.66105 928.267572,5995.20919 928.620972,5994.35464 C928.295741,5993.94589 927.581258,5993.92546 927.245784,5993.5282 C929.757998,5990.49707 927.887282,5984.79628 927.795091,5981.15968 C929.162596,5980.2285 928.547987,5978.67269 929.174119,5976.76306 C927.17536,5975.00927 927.943621,5973.15201 929.174119,5970.9933 C927.571015,5968.57528 929.419963,5964.55421 927.245784,5962.47341 C928.454515,5959.57895 928.760539,5955.67283 927.795091,5952.58038 C928.900106,5950.87768 928.754137,5946.68288 930,5944.33512 C927.200969,5941.5288 928.661945,5935.31197 930,5931.97043" id="footer-bg-grunge" sketch:type="MSShapeGroup" transform="translate(800.000000, 5295.761719) rotate(-270.000000) translate(-800.000000, -5295.761719) "></path>
        </g>
    </g>
</svg>