<?xml version="1.0" encoding="UTF-8" standalone="no"?>
<svg width="120px" height="84px" viewBox="0 0 120 84" version="1.1" xmlns="http://www.w3.org/2000/svg" xmlns:xlink="http://www.w3.org/1999/xlink" xmlns:sketch="http://www.bohemiancoding.com/sketch/ns">
    <!-- Generator: Sketch 3.2.2 (9983) - http://www.bohemiancoding.com/sketch -->
    <title>icon-digdeeper</title>
    <desc>Created with Sketch.</desc>
    <defs></defs>
    <g id="Design" stroke="none" stroke-width="1" fill="none" fill-rule="evenodd" sketch:type="MSPage">
        <g id="Style-Guide" sketch:type="MSArtboardGroup" transform="translate(-754.000000, -1165.000000)">
            <g id="icon-digdeeper" sketch:type="MSLayerGroup" transform="translate(754.000000, 1164.000000)">
                <g id="Group" transform="translate(47.500000, 42.500000) scale(-1, 1) translate(-47.500000, -42.500000) " sketch:type="MSShapeGroup">
                    <path d="M76.1303385,67.6790469 C73.4639635,63.6930743 73.0063107,63.1810195 70.2384912,59.2629373 C68.9969496,57.5069921 67.9640607,56.2515948 65.664269,54.8120879 C70.4482968,51.4670469 72.7826718,45.761951 73.632269,40.1684715 C73.7244912,39.5655126 73.5988385,39.0408003 73.3498385,38.60354 C73.2495468,38.2709921 73.0639496,37.9418962 72.7526996,37.639266 C69.8304079,34.7959236 68.5658107,35.2331838 64.8988246,33.56354 C65.5109496,32.2954852 66.1392135,31.0331838 66.7882273,29.7800879 C68.7502551,25.9897318 69.5560468,21.7920332 72.1405746,18.3215674 C78.0347273,19.8542797 83.696019,15.4885811 85.4194218,10.2311016 C85.7202968,9.31400576 85.2499635,8.05745781 84.3623246,7.6305537 C82.0521579,6.51554 79.5079773,6.33373178 77.1747551,5.32688247 C74.7124218,4.26595096 72.6224357,2.57214274 70.2742273,1.29718384 C69.1767829,0.70227973 67.770394,1.01181398 67.1282968,2.1245263 C66.8009079,2.68836192 66.5542135,3.21882767 66.3213523,3.82638932 C66.0527551,4.37871809 65.9294079,4.79181398 65.9513107,5.3015674 C66.0723523,8.01718384 65.3806857,10.653403 66.1680329,13.3264441 C66.5081023,14.4782797 67.1951579,15.4218414 68.0574357,16.1928003 C66.1772551,18.9682523 64.9311023,22.0060606 63.7103107,25.181951 C62.8549496,27.4085263 61.8808523,29.5913756 60.8733246,31.7627181 C56.3671162,29.7075948 55.5036857,28.4084715 50.4268523,28.3290743 C49.4124079,28.3141153 48.4694357,29.0424989 48.2089079,30.0205811 C48.1904635,30.1241427 48.172019,30.2288551 48.1535746,30.3335674 C47.891894,30.9227181 42.7366718,42.9692386 44.229519,48.6052934 C36.915144,48.4787181 29.7218107,50.4786085 25.5614357,54.6993208 C21.8345051,58.4827729 19.1370051,61.0810195 16.621644,65.7010195 C14.6688385,69.2900058 12.7402412,73.9537318 8.8565329,75.9329099 C7.07664402,76.3828277 -0.903217095,82.0409099 1.15449124,83.1168003 C4.90447735,85.0787181 17.7594357,82.2248551 21.964769,82.7346085 C29.5442829,83.6528551 37.2021857,83.5642523 44.8047551,83.7690743 C60.0018246,84.1764167 71.7013662,85.0222797 86.6874773,82.6369099 C86.8776857,82.6069921 94.0390746,82.5149373 94.1900885,82.4343893 C96.578644,82.1800879 89.3734496,76.1342797 86.6517412,75.8258962 C81.4181301,75.2309921 78.7840329,71.6466085 76.1303385,67.6790469 Z M70.4967135,6.81586877 C71.9065607,7.72030713 73.3071857,8.63395096 74.8542135,9.30480028 C76.5222829,10.0285811 78.3367551,10.3415674 80.0659218,10.8628277 C78.4866162,13.1780058 75.665769,14.4828825 72.8057273,13.7429921 C69.6425051,12.9225537 70.2719218,9.53263589 70.4967135,6.81586877 L70.4967135,6.81586877 Z M52.4107829,33.1205263 C55.8933246,33.6889647 55.7296301,34.3287455 58.9424218,35.8787181 C57.7977135,38.3158688 56.6726023,40.7610743 55.683519,43.2615126 C54.5906857,46.0254578 59.0415607,47.2141153 60.1194079,44.4858414 C61.0231857,42.2017318 61.9776857,39.94754 62.9759912,37.7140606 C65.902894,39.0442523 66.4919635,38.2180606 68.8931996,40.3560332 C67.7323523,44.7585537 65.4521579,50.6638688 61.3148385,52.3035948 C61.223769,52.3415674 61.1465329,52.3910469 61.0635329,52.4347729 C57.2547551,49.7870469 56.3302273,49.1357592 51.6361162,48.4522523 C50.7254218,48.3199236 49.8193385,48.2566359 48.919019,48.2347729 C47.4134912,43.5031564 52.3911857,33.4346633 52.4107829,33.1205263 Z" id="Fill-37" fill="#FFFFFF"></path>
                    <path d="M59.1486019,61.1314763 C58.9964352,60.8564626 58.7820185,60.647038 58.5387824,60.4859421 C58.4926713,60.4307092 58.4557824,60.3731749 58.4039074,60.3213941 C57.5081991,59.4261612 55.874713,59.4733393 55.0896713,60.4755859 C55.0458658,60.5089558 55.0205047,60.5296681 54.9663241,60.5710927 C54.629713,60.983038 54.5720741,61.0992571 54.3680324,61.5882982 C54.1328658,62.1532845 54.3265324,62.7999695 54.6446991,63.3085722 C54.7034908,63.4455037 54.7611297,63.5835859 54.8199213,63.7205174 C54.9225185,63.9610106 55.1161852,64.1635311 55.2764213,64.3625996 C55.6395463,64.810216 56.3231435,65.062216 56.881088,65.0472571 C57.8033102,65.0230927 58.6044908,64.4212845 59.049463,63.6411201 C59.4875185,62.8770654 59.5831991,61.9162434 59.1486019,61.1314763" id="Fill-38" fill="#363020"></path>
                    <path d="M49.2471803,57.3861507 C49.2321942,57.3470274 49.2091387,57.3113562 49.1803192,57.2814384 C48.1578053,55.8833562 46.4251803,55.8833562 45.4038192,57.2814384 C45.373847,57.3113562 45.3507915,57.3470274 45.3369581,57.3861507 C44.9980415,58.1502055 44.8919859,58.915411 45.3369581,59.674863 C45.7404303,60.365274 46.4931942,60.7979315 47.2909165,60.7979315 C48.0897915,60.7979315 48.8437081,60.365274 49.2471803,59.674863 C49.6909998,58.915411 49.5849442,58.1502055 49.2471803,57.3861507" id="Fill-39" fill="#363020"></path>
                    <path d="M50.3144722,66.5890411 C49.3253889,66.5890411 48.5,67.4152329 48.5,68.4059726 C48.5,69.3967123 49.3253889,70.2229041 50.3144722,70.2229041 C51.3035556,70.2229041 52.1289444,69.3967123 52.1289444,68.4059726 C52.1289444,67.4152329 51.3035556,66.5890411 50.3144722,66.5890411" id="Fill-40" fill="#363020"></path>
                    <path d="M63.7685659,70.5458033 C63.7374409,70.4652553 63.6890242,70.4065704 63.6521353,70.3352279 C63.617552,70.2661868 63.6002603,70.1936937 63.555302,70.1281046 C63.5391631,70.1062416 63.5207186,70.0924334 63.5045797,70.0705704 C63.4976631,70.0602142 63.4895936,70.0521594 63.4815242,70.042954 C62.9201214,69.2835019 62.2549686,68.9670635 61.3189131,68.8957211 C60.4716214,68.830132 59.6969547,69.3813101 59.2427603,70.0418033 C58.5245797,71.0843238 58.9810797,72.5974745 59.5666909,73.5916663 C60.0139686,74.3476663 60.7701909,74.5237211 61.5805936,74.410954 C63.4227325,74.1578033 64.4152742,72.2373101 63.7685659,70.5458033" id="Fill-41" fill="#363020"></path>
                    <path d="M32.1236389,64.2876712 C29.3661944,64.2876712 29.3661944,68.5682192 32.1236389,68.5682192 C34.8810833,68.5682192 34.8810833,64.2876712 32.1236389,64.2876712" id="Fill-42" fill="#363020"></path>
                    <path d="M24.3553576,68.890411 C22.7333993,68.890411 22.7333993,71.410411 24.3553576,71.410411 C25.977316,71.410411 25.977316,68.890411 24.3553576,68.890411" id="Fill-43" fill="#363020"></path>
                    <path d="M33.2959066,72.3424658 C31.7938372,72.3424658 30.6341427,74.123726 31.5114066,75.4550685 C31.54599,75.4999452 31.5748094,75.548274 31.5990177,75.6000548 C31.5990177,75.6000548 31.5990177,75.5989041 31.597865,75.5989041 C31.7477261,75.8888767 31.9667539,76.136274 32.2895316,76.3249863 C32.8912816,76.6782466 33.6267539,76.6632877 34.2296566,76.3249863 C34.6181427,76.1075068 34.8337122,75.8152329 35.0804066,75.4550685 C35.9911011,74.1340822 34.772615,72.3424658 33.2959066,72.3424658" id="Fill-44" fill="#363020"></path>
                    <path d="M70.9362257,73.3412603 C70.763309,72.7900822 70.3056562,72.3424658 69.5575035,72.3424658 C67.6104618,72.3424658 67.6104618,75.3653151 69.5575035,75.3653151 C70.3056562,75.3653151 70.763309,74.9188493 70.9362257,74.3676712 C71.0676424,74.0420274 71.0676424,73.6669041 70.9362257,73.3412603" id="Fill-45" fill="#363020"></path>
                </g>
                <path d="M60.832,19.968 C61.488,20.016 62.384,20.08 63.584,20.08 C67.84,20.08 70.272,18.56 70.272,14.384 C70.272,11.024 68.336,9.024 64.384,9.024 C63.12,9.024 61.872,9.072 60.832,9.168 L60.832,19.968 Z M64.512,11.216 C66.208,11.216 67.344,12.176 67.344,14.432 C67.344,17.024 66.08,17.872 64.176,17.872 C64,17.872 63.76,17.872 63.616,17.84 L63.616,11.264 C63.824,11.232 64.112,11.216 64.512,11.216 L64.512,11.216 Z M75.352,9.072 L72.568,9.072 L72.568,20 L75.352,20 L75.352,9.072 Z M82.848,15.936 L84.144,15.936 L84.144,17.808 C84.016,17.84 83.744,17.872 83.456,17.872 C81.744,17.872 80.56,16.752 80.56,14.544 C80.56,12.224 81.856,11.248 83.568,11.248 C84.688,11.248 85.472,11.44 86.176,11.712 L86.56,9.456 C85.904,9.184 84.768,8.944 83.488,8.944 C79.92,8.944 77.664,11.136 77.664,14.64 C77.664,17.664 79.28,20.128 83.344,20.128 C84.592,20.128 86.048,19.84 86.848,19.568 L86.848,13.712 L82.976,13.712 L82.848,15.936 Z M60.832,32.968 C61.488,33.016 62.384,33.08 63.584,33.08 C67.84,33.08 70.272,31.56 70.272,27.384 C70.272,24.024 68.336,22.024 64.384,22.024 C63.12,22.024 61.872,22.072 60.832,22.168 L60.832,32.968 Z M64.512,24.216 C66.208,24.216 67.344,25.176 67.344,27.432 C67.344,30.024 66.08,30.872 64.176,30.872 C64,30.872 63.76,30.872 63.616,30.84 L63.616,24.264 C63.824,24.232 64.112,24.216 64.512,24.216 L64.512,24.216 Z M79.56,22.072 L72.568,22.072 L72.568,33 L79.64,33 L79.768,30.712 L75.352,30.712 L75.352,28.552 L79.048,28.552 L79.176,26.28 L75.352,26.28 L75.352,24.36 L79.432,24.36 L79.56,22.072 Z M89.104,22.072 L82.112,22.072 L82.112,33 L89.184,33 L89.312,30.712 L84.896,30.712 L84.896,28.552 L88.592,28.552 L88.72,26.28 L84.896,26.28 L84.896,24.36 L88.976,24.36 L89.104,22.072 Z M95.496,29.192 C98.04,29.224 99.736,27.928 99.736,25.512 C99.736,22.632 97.368,22.024 95,22.024 C93.592,22.024 92.504,22.088 91.656,22.168 L91.656,33 L94.408,33 L94.408,29.176 L95.496,29.192 Z M94.408,24.232 C94.648,24.216 94.968,24.2 95.4,24.2 C96.36,24.2 96.968,24.568 96.968,25.544 C96.968,26.52 96.136,27.016 95.032,27 C94.776,27 94.584,26.984 94.408,26.984 L94.408,24.232 Z M108.96,22.072 L101.968,22.072 L101.968,33 L109.04,33 L109.168,30.712 L104.752,30.712 L104.752,28.552 L108.448,28.552 L108.576,26.28 L104.752,26.28 L104.752,24.36 L108.832,24.36 L108.96,22.072 Z M119.592,25.32 C119.592,23 118.072,22.024 114.936,22.024 C113.608,22.024 112.424,22.088 111.512,22.168 L111.512,33 L114.264,33 L114.264,28.92 L115.272,28.92 L117.064,33 L120.056,33 L117.72,28.2 L117.72,28.168 C118.76,27.784 119.592,26.696 119.592,25.32 L119.592,25.32 Z M114.264,24.2 C114.504,24.184 114.824,24.168 115.32,24.168 C116.2,24.168 116.792,24.472 116.792,25.48 C116.792,26.344 116.088,26.824 115.144,26.824 L114.264,26.824 L114.264,24.2 Z" id="DIG-" fill="#FFFFFF" sketch:type="MSShapeGroup"></path>
            </g>
        </g>
    </g>
</svg>