<?xml version="1.0" encoding="UTF-8" standalone="no"?>
<svg width="100px" height="100px" viewBox="0 0 100 100" version="1.1" xmlns="http://www.w3.org/2000/svg" xmlns:xlink="http://www.w3.org/1999/xlink" xmlns:sketch="http://www.bohemiancoding.com/sketch/ns">
    <!-- Generator: Sketch 3.2.2 (9983) - http://www.bohemiancoding.com/sketch -->
    <title>icon-weed</title>
    <desc>Created with Sketch.</desc>
    <defs></defs>
    <g id="Design" stroke="none" stroke-width="1" fill="none" fill-rule="evenodd" sketch:type="MSPage">
        <g id="Style-Guide" sketch:type="MSArtboardGroup" transform="translate(-210.000000, -550.000000)" fill="#81C14B">
            <g id="icon-weed" sketch:type="MSLayerGroup" transform="translate(210.000000, 550.000000)">
                <path d="M79.6677329,1.72224113 C78.769195,-0.612792897 75.9352372,-0.345064409 74.7516266,1.16746355 C71.8002859,2.05069155 68.9467642,4.30844313 66.8897692,5.95621537 C62.3523624,9.5843504 57.5746002,12.4934826 53.7149397,16.8323402 C48.6576944,22.5139803 46.6957236,29.5949848 46.5210467,36.9864992 C46.4204328,41.1625116 47.4601097,45.3178233 48.457864,49.3420309 C49.1621613,52.184921 50.0075974,56.7487257 51.7208283,59.4784523 C51.207977,60.7977741 50.7314584,62.1295163 50.2745037,63.4681588 C49.009843,61.3042502 47.3958286,59.281106 45.5079208,57.3366244 C45.2214507,57.039915 44.9210064,56.7542459 44.6177674,56.4685768 C44.2055299,49.6663412 43.0806107,43.1966961 39.7561602,37.139684 C38.3070408,34.5010404 35.883923,32.0569829 33.315474,30.4740727 C29.2308297,27.9568729 21.9642712,27.9554929 18.8061131,24.5026234 C18.2457496,23.892644 17.5680033,23.606975 16.8860647,23.5476331 C15.1225268,22.2296913 11.746372,24.0706697 12.5135529,26.8735385 C13.4218727,30.198064 11.968561,35.3525274 11.9112669,38.8937196 C11.8246272,44.2151684 12.5722443,49.1916061 16.0406286,53.4338606 C21.5576234,60.1933149 32.0927358,59.0520188 40.0761683,59.8648645 C44.3913861,63.7869489 47.6864909,68.2624308 47.5551339,74.7582967 C47.5006347,77.4631825 50.7104972,77.7571318 52.2867814,76.1935422 C52.7255698,75.8278306 53.0567571,75.303414 53.1755374,74.5830312 C53.9035907,70.1793115 55.1780333,65.9425772 56.7249718,61.7872655 C59.0069506,61.3263309 61.4468374,59.7158198 63.6351894,59.0727194 C70.9855929,56.9170911 76.7345586,53.3772788 81.2524016,47.1781223 C91.3976352,33.2659012 85.1735484,16.038815 79.6677329,1.72224113 L79.6677329,1.72224113 Z M18.7314386,45.5540136 C16.5289866,40.6040246 18.2190772,35.1977592 18.5559723,30 C22.8499816,32.0742295 27.9202534,32.2976289 32.0486226,35.3439843 C36.7511172,38.8114137 38.3654064,44.8729839 39.047619,50.6407501 C34.8195851,47.6282431 32.2325112,46.2567062 27.5945881,40.005585 C25.4974159,37.182629 21.8519298,36.1983177 23.4507779,39.3556958 C25.6588448,43.7194307 29.1176349,49.7038266 33.2095071,52.8571429 C27.1608356,52.4604397 21.2932453,51.3109483 18.7314386,45.5540136 L18.7314386,45.5540136 Z M79.4999798,37.2826745 C77.9809937,43.8075777 72.9858665,49.2264954 66.9516526,52.0209246 C65.1906303,52.8363662 63.2640775,53.3640049 61.4126394,53.9409812 C60.7560813,54.1465547 60.073094,54.4453216 59.3859336,54.7619048 C63.859431,44.4955637 67.2854957,40.4279492 69.8101841,29.4969205 C71.1302553,23.7901999 69.4624309,14.8052671 68.2007822,20.1734766 C65.7539905,30.5741257 58.8184003,42.6604775 54.4867862,52.4539995 C52.9928384,47.9834609 52.4169591,42.5576908 52.0330395,38.8930004 C51.2415532,31.3361182 54.1738083,24.7454315 59.1411153,19.1785008 C61.8368983,16.1551998 65.692786,13.8034388 68.8489942,11.2036192 C70.2080138,10.0839288 73.0275969,8.18854106 75.2949479,7.14285714 C79.1174512,17.4448309 82.0928278,26.1447018 79.4999798,37.2826745 L79.4999798,37.2826745 Z" id="Fill-35" sketch:type="MSShapeGroup"></path>
                <path d="M96.3925761,85.0104727 C91.5731183,82.0683125 88.3022758,77.2964437 82.8050383,75.1306087 C76.9064108,72.8058521 71.8466745,75.5764332 67.9952749,79.4088359 C62.5313708,75.8970893 56.2119088,73.0561889 50.7452269,72.8761714 C42.4021481,72.6005197 36.5201873,75.3471922 31.0451721,79.3300783 C21.242367,71.1463162 11.9617856,80.6197346 1.82425742,84.6265292 C0.761754466,85.0456324 0.283975359,85.7474191 0.203419579,86.4970231 C-0.454915586,88.1115546 0.485364808,90.4194345 3.01453851,90.5896073 C11.7840074,91.1802896 19.8034741,94.243399 27.7812741,96.8550584 C35.4674066,99.3724899 47.5118845,100.657927 55.6980184,99.6622055 C64.6688767,98.5694433 66.0619362,99.0265189 74.1355697,95.4542976 C78.5175264,93.5162973 82.5661488,91.9678659 87.4744957,91.7526888 C90.2995036,91.6275204 93.0245112,91.6795567 95.7036853,91.1141894 C97.753691,91.6739312 99.5384182,90.2197277 99.8245301,88.6516069 C100.537032,86.6657894 99.0175834,84.1483579 96.3925761,85.0104727 L96.3925761,85.0104727 Z M25.9435066,90.2013125 C21.3417083,88.0219964 15.5735493,88.4621751 10.952381,86.858256 C12.3816226,86.0239304 13.7901104,85.1593964 15.219352,84.3034934 C19.4558842,81.7659927 22.7709499,80.841042 26.2631143,83.3224415 C25.111973,84.3178783 23.9539137,85.3449619 22.7681828,86.3893075 C19.8474383,88.9627705 24.2721379,93.0380196 27.1845808,90.4703106 C34.3861322,84.1251203 40.7257111,77.2117255 51.8967631,78.8026982 C58.2681644,79.7089485 67.1978113,85.8513113 71.9047619,90.3552312 C65.6246771,92.9114323 65.9539699,92.6683271 58.9848606,93.9514623 C48.9870873,95.7912942 34.9879909,94.4808276 25.9435066,90.2013125 L25.9435066,90.2013125 Z M77.9966225,88.0952381 C77.8658994,87.7398771 77.6498624,87.3873705 77.3278709,87.0562711 C76.0756818,85.7689795 74.5482862,84.3932045 72.8571429,83.0274196 C74.2029022,81.5788598 75.7619465,80.2901411 77.8810358,80.0318265 C80.5739304,79.7064357 83.0700525,81.9484923 84.8630223,83.452711 C86.1317238,84.5202211 87.3371278,85.6476716 88.5714286,86.7394432 C85.0611709,87.0591254 81.4711033,87.1561718 77.9966225,88.0952381 L77.9966225,88.0952381 Z" id="Fill-36" sketch:type="MSShapeGroup"></path>
            </g>
        </g>
    </g>
</svg>