<?xml version="1.0" encoding="UTF-8" standalone="no"?>
<svg width="100px" height="58px" viewBox="0 0 100 58" version="1.1" xmlns="http://www.w3.org/2000/svg" xmlns:xlink="http://www.w3.org/1999/xlink" xmlns:sketch="http://www.bohemiancoding.com/sketch/ns">
    <!-- Generator: Sketch 3.2.2 (9983) - http://www.bohemiancoding.com/sketch -->
    <title>icon-more</title>
    <desc>Created with Sketch.</desc>
    <defs></defs>
    <g id="Design" stroke="none" stroke-width="1" fill="none" fill-rule="evenodd" sketch:type="MSPage">
        <g id="Type-Guide" sketch:type="MSArtboardGroup" transform="translate(-530.000000, -1633.000000)" fill="#B3D993">
            <path d="M604.695544,1660.0872 C604.635635,1650.94499 604.411627,1708.48154 604.200643,1699.48932 C604.487165,1699.21111 604.776291,1699.12644 605.062813,1699.01274 C607.099723,1698.21439 609.928475,1688.36819 603.794303,1689.55119 C603.682299,1687.39325 603.565085,1685.23289 603.455686,1683.07253 C610.144669,1682.26694 609.001186,1673.21182 603.096231,1673.52632 C603.041532,1670.7418 603.044137,1667.95487 603.143117,1665.17519 C603.434848,1657.03695 604.63824,1647.97942 600.439393,1640.40002 C596.532276,1633.35769 586.040367,1613.21289 578.835645,1612.00087 C578.614242,1611.96458 574.173153,1613.07984 574.024683,1613.21289 C565.077387,1625.30654 557.198036,1640.09278 553.942106,1647.67701 C549.795353,1657.34177 552.202137,1659.87953 551.321733,1670.04991 C550.011547,1685.16515 553.207568,1691.82767 551.975524,1705.11399 C550.912788,1716.60284 551.152425,1665.85702 551.566579,1677.37248 C551.840077,1684.9422 551.590022,1692.85545 552.868951,1700.36953 C555.080379,1713.36796 570.966713,1712.30835 581.812868,1711.66484 C593.739991,1710.95601 602.536212,1706.72238 603.588528,1694.68921 C603.807327,1692.19017 603.989659,1689.6766 604.138129,1687.16062 C606.253181,1686.01149 610.235835,1675.87257 604.565307,1676.79429 C604.625216,1674.63151 604.635635,1672.46148 604.661683,1670.29628 C610.147274,1667.95448 610.725527,1658.85823 604.695544,1660.0872 Z M575.913122,1702.24926 C570.813033,1702.39199 563.235833,1703.45403 563.116015,1696.30525 C563.037872,1691.41602 561.748524,1686.4155 562.079326,1681.51901 C563.144667,1665.75541 561.883971,1714.95777 562.457014,1699.0708 C563.11341,1680.93153 560.758721,1667.01863 563.897438,1650.64297 C564.629371,1646.80368 572.938504,1630.14013 578.17925,1622.88733 C578.473586,1623.51874 579.077886,1623.52116 580.124993,1624.38724 C582.281722,1627.7306 585.581932,1634.47778 587.350553,1638.00016 C591.234227,1645.73681 593.041919,1648.74389 593.054943,1657.55708 C593.078386,1673.04489 593.461283,1688.4577 593.825947,1703.96245 C594.172378,1718.73901 593.005453,1666.81987 593.198204,1681.57224 C593.260718,1686.37679 593.703524,1691.10878 592.854378,1695.89156 C591.60931,1702.89277 581.713887,1702.07991 575.913122,1702.24926 Z" id="icon-more" sketch:type="MSShapeGroup" transform="translate(580.000000, 1662.000000) rotate(-270.000000) translate(-580.000000, -1662.000000) "></path>
        </g>
    </g>
</svg>