<?xml version="1.0" encoding="UTF-8" standalone="no"?>
<svg width="731px" height="231px" viewBox="0 0 731 231" version="1.1" xmlns="http://www.w3.org/2000/svg" xmlns:xlink="http://www.w3.org/1999/xlink" xmlns:sketch="http://www.bohemiancoding.com/sketch/ns">
    <!-- Generator: Sketch 3.2.2 (9983) - http://www.bohemiancoding.com/sketch -->
    <title>logo</title>
    <desc>Created with Sketch.</desc>
    <defs>
        <path d="M66.59,56.855 L0.496,56.855 L0.496,55.435 C2.616,55.386 4.516,54.616 5.75,53.306 C6.853,52.136 7.62,50.943 8.156,49.563 C9.328,46.541 9.865,43.673 9.849,40.522 L9.849,11.435 C9.851,10.013 9.553,8.718 8.914,7.381 C8.051,5.573 6.085,4.257 3.614,3.833 L3.614,2.413 L35.414,2.413 L35.414,3.833 C34,3.924 32.745,4.318 31.659,5.012 C30.574,5.705 29.849,6.577 29.489,7.619 C28.825,9.528 28.529,11.327 28.555,13.301 L28.555,44.223 C28.556,46.296 29.072,48.183 30.158,50.084 C30.779,51.171 31.701,52.044 32.963,52.74 C34.225,53.437 35.603,53.833 37.156,53.946 C38.432,54.039 39.606,54.026 40.878,53.904 C48.389,53.124 54.947,50.78 60.523,46.88 C64.85,43.858 68.426,40.815 71.89,37.208 L73.761,37.919 L66.59,56.855 L66.59,56.855 Z M115.499,32.238 L106.146,16.615 L96.794,32.238 L115.499,32.238 L115.499,32.238 Z M94.923,35.078 L88.91,45.784 C88.356,46.769 88.068,47.736 88.01,48.806 C87.947,49.942 88.3,50.99 89.074,51.963 C89.847,52.936 90.904,53.662 92.256,54.149 C93.762,54.692 95.187,55.096 96.794,55.435 L96.794,56.855 L70.606,56.855 L70.606,55.671 C71.926,55.443 73.063,55.014 74.101,54.353 C79.202,51.1 83.007,47.374 85.886,42.812 L112.768,1.02 L114.75,1.013 L145.791,47.91 C147.131,49.919 148.747,51.596 150.865,53.173 C152.169,54.146 153.651,54.806 155.405,55.198 L155.405,56.855 L120.176,56.855 L120.176,55.435 C121.566,55.585 122.921,55.233 123.9,54.468 C125.083,53.533 125.634,52.296 125.44,51.008 C125.207,49.435 124.728,48.027 123.931,46.565 L117.37,35.078 L94.923,35.078 L94.923,35.078 Z M249.495,2.413 L249.495,3.828 C244.218,6.515 240.428,10.125 238.158,14.63 L215.915,57.552 L213.145,57.552 L196.495,22.533 L179.265,57.552 L176.127,57.552 L150.268,6.978 C149.825,6.117 149.16,5.41 148.232,4.812 C147.401,4.27 146.451,3.946 145.366,3.833 L145.366,2.413 L177.789,2.413 L177.789,3.845 C176.462,3.722 175.19,3.995 174.144,4.627 C173.099,5.26 172.464,6.14 172.326,7.15 C172.137,8.408 172.333,9.586 172.929,10.769 L185.058,35.27 L201.353,0.745 L203.813,0.745 L222.637,35.527 L232.049,16.463 C232.931,14.717 233.155,12.956 232.729,11.115 C232.303,9.273 231.302,7.676 229.689,6.263 C228.263,4.977 226.416,4.152 224.242,3.833 L224.242,2.413 L249.495,2.413 L249.495,2.413 Z M277.479,2.413 L318.943,35.078 L318.943,19.633 C318.947,16.176 318.216,13.028 316.655,9.781 C315.266,6.874 312.247,4.714 308.343,3.833 L308.343,2.413 L334.531,2.413 L334.531,3.828 C329.529,5.293 325.905,8.437 324.658,12.396 C323.777,15.178 323.351,17.777 323.308,20.639 L323.308,55.679 C323.304,57.154 321.261,58.308 319.4,57.887 C318.561,57.691 317.861,57.351 317.275,56.855 L265.32,12.591 L265.32,40.347 C265.317,43.921 266.19,47.177 268.032,50.465 C269.457,53.034 272.356,54.856 275.946,55.439 L275.946,56.855 L250.355,56.855 L250.355,55.439 C253.612,54.748 256.214,53.125 257.738,50.833 C260.241,47.097 261.487,43.293 261.579,39.102 L261.579,14.527 C261.579,12.885 261.368,11.392 260.911,9.788 C260.477,8.268 259.531,6.972 258.063,5.888 C256.595,4.803 254.863,4.12 252.849,3.833 L252.849,2.413 L277.479,2.413 L277.479,2.413 Z M458.525,51.648 C446.103,57.014 432.697,59.143 418.484,58.005 C409.087,57.249 400.86,54.091 394.488,48.793 C388.116,43.495 384.719,36.988 384.58,29.815 C384.44,22.641 387.583,16.061 393.746,10.622 C399.909,5.184 408.01,1.843 417.374,0.877 C431.531,-0.596 445.025,1.269 457.589,6.437 L451.042,23.479 L449.484,23.006 C449.284,18.432 447.679,14.298 444.58,10.372 C441.161,6.054 435.171,3.458 428.535,3.418 C421.899,3.378 415.856,5.901 412.346,10.178 C407.5,16.192 405.091,22.61 405.033,29.66 C404.975,36.711 407.278,43.151 412.025,49.211 C415.355,53.435 421.176,55.993 427.659,56.082 C432.735,56.189 437.408,55.106 441.541,52.866 C445.673,50.627 448.54,47.623 450.057,43.944 C450.989,41.68 451.593,39.563 451.978,37.208 L453.225,36.735 L458.525,51.648 L458.525,51.648 Z M500.407,32.238 L491.054,16.615 L481.701,32.238 L500.407,32.238 L500.407,32.238 Z M479.831,35.078 L473.818,45.784 C473.264,46.769 472.976,47.736 472.917,48.806 C472.855,49.942 473.208,50.99 473.981,51.963 C474.755,52.936 475.812,53.662 477.164,54.149 C478.67,54.692 480.095,55.096 481.701,55.435 L481.701,56.855 L455.513,56.855 L455.513,55.671 C456.834,55.443 457.971,55.014 459.008,54.353 C464.11,51.1 467.914,47.374 470.794,42.812 L497.676,1.02 L499.657,1.013 L530.699,47.91 C532.038,49.919 533.655,51.596 535.772,53.173 C537.077,54.146 538.558,54.806 540.313,55.198 L540.313,56.855 L505.083,56.855 L505.083,55.435 C506.474,55.585 507.829,55.233 508.807,54.468 C509.991,53.533 510.541,52.297 510.348,51.008 C510.115,49.435 509.636,48.027 508.838,46.565 L502.278,35.078 L479.831,35.078 L479.831,35.078 Z M570.423,26.083 C574.825,26.249 578.85,26.084 583.204,25.559 C586.406,25.174 589.161,24.028 591.31,22.186 C593.459,20.343 594.625,18.128 594.74,15.668 C594.892,13.748 594.282,11.962 592.919,10.34 C591.556,8.719 589.68,7.546 587.322,6.842 C583.626,5.741 580.005,5.231 576.034,5.253 L570.423,5.253 L570.423,26.083 L570.423,26.083 Z M598.17,56.855 L591.598,41.054 C590.222,37.75 588.202,34.925 585.3,32.249 C582.983,30.119 579.673,28.931 576.034,28.924 L570.423,28.924 L570.423,45.72 C570.435,48.275 571.201,50.602 572.773,52.862 C573.338,53.673 574.13,54.301 575.171,54.767 C576.212,55.233 577.32,55.453 578.528,55.435 L578.528,56.855 L543.611,56.855 L543.611,55.435 C545.657,55.382 547.486,54.625 548.652,53.347 C549.811,52.079 550.522,50.742 550.848,49.218 C551.466,46.336 551.738,43.679 551.717,40.759 L551.717,11.756 C551.718,10.351 551.472,9.072 550.943,7.726 C550.556,6.744 549.886,5.922 548.903,5.221 C547.919,4.52 546.796,4.064 545.482,3.833 L545.482,2.413 L593.725,2.413 C598.679,2.419 603.195,3.405 607.398,5.397 C609.791,6.534 611.589,8.037 612.85,9.955 C614.111,11.873 614.612,13.868 614.37,16.004 C614.128,18.139 613.185,20.04 611.511,21.766 C609.837,23.492 607.727,24.74 605.113,25.549 C599.691,27.22 594.356,28 588.505,27.977 C593.648,28.06 598.304,29.43 602.177,32.001 C606.227,34.684 609.049,37.887 610.77,41.753 C612.29,45.145 614.094,48.12 616.5,51.201 C618.233,53.432 621.007,54.93 624.351,55.439 L624.351,56.855 L598.17,56.855 L598.17,56.855 Z M694.99,56.855 L627.65,56.855 L627.65,55.435 C629.558,55.365 631.269,54.837 632.701,53.877 C634.133,52.916 635.034,51.692 635.361,50.263 C636.089,47.028 636.409,44.041 636.379,40.759 L636.379,12.57 C636.379,11.401 636.268,10.339 636.024,9.185 C635.603,7.2 634.188,5.517 631.993,4.392 C631.423,4.097 630.825,3.916 630.144,3.833 L630.144,2.413 L690.937,2.413 L695.926,17.088 L693.743,17.088 C686.574,9.612 675.528,5.315 663.348,5.265 L654.461,5.265 L654.461,26.083 L663.092,26.083 C667.318,26.084 671.169,25.415 674.974,24.018 C678.807,22.61 681.567,20.176 682.832,17.088 L684.702,17.088 L684.702,37.919 L683.143,37.919 C681.829,34.702 678.796,32.206 674.678,30.953 C670.11,29.558 665.621,28.907 660.696,28.924 L654.461,28.924 L654.461,43.729 C654.463,45.705 654.934,47.503 655.927,49.329 C656.968,51.243 659.094,52.613 661.751,53.081 C666.2,53.863 670.528,53.684 674.839,52.54 C685.736,49.652 694.564,44.601 701.225,37.445 L702.784,37.919 L694.99,56.855 L694.99,56.855 Z" id="path-1"></path>
        <path d="M30.553,26.665 C35.473,26.849 39.971,26.666 44.836,26.082 C51.992,25.228 57.471,20.555 57.728,15.085 C58.068,10.815 54.708,6.838 49.438,5.271 C45.308,4.047 41.261,3.481 36.824,3.505 L30.553,3.505 L30.553,26.665 L30.553,26.665 Z M15.92,42.982 L15.92,11.665 C15.924,9.241 15.069,7.03 13.338,4.99 C11.684,3.039 8.883,1.898 5.816,1.926 C8.643,2.294 10.93,3.797 11.803,5.861 C12.728,8.054 13.151,10.152 13.132,12.453 L13.132,45.997 C13.139,49.666 12.137,53.011 10.041,56.32 C9.295,57.496 8.121,58.389 6.571,58.961 C10.298,58.164 13.137,56.002 14.162,53.18 C15.395,49.759 15.952,46.529 15.92,42.982 L15.92,42.982 Z M61.56,60.878 L54.216,43.31 C52.679,39.636 50.421,36.495 47.178,33.521 C44.589,31.152 40.891,29.831 36.824,29.823 L30.553,29.823 L30.553,48.497 C30.567,51.339 31.423,53.926 33.179,56.439 C34.442,58.242 36.911,59.34 39.611,59.299 L39.611,60.878 L0.59,60.878 L0.59,59.299 C2.876,59.241 4.92,58.398 6.224,56.978 C7.518,55.568 8.313,54.081 8.677,52.387 C9.367,49.183 9.672,46.229 9.648,42.982 L9.648,10.735 C9.649,9.173 9.375,7.751 8.784,6.254 C7.919,4.072 5.618,2.44 2.68,1.926 L2.68,0.347 L56.593,0.347 C62.13,0.355 67.176,1.45 71.873,3.665 C77.222,6.193 80.206,10.709 79.665,15.458 C79.124,20.207 75.162,24.271 69.32,26.071 C63.261,27.929 57.299,28.796 50.76,28.77 C56.508,28.862 61.711,30.386 66.039,33.244 C70.565,36.227 73.719,39.789 75.641,44.088 C77.34,47.858 79.357,51.166 82.046,54.592 C83.982,57.073 87.082,58.738 90.819,59.304 L90.819,60.878 L61.56,60.878 L61.56,60.878 Z M110.532,42.982 L110.532,10.678 C110.533,9.005 110.193,7.482 109.464,5.902 C108.594,4.02 106.547,2.644 103.97,2.211 C102.772,2.01 101.655,1.92 100.428,1.926 C103.681,2.214 106.338,4.062 106.984,6.488 C107.525,8.511 107.765,10.389 107.744,12.453 L107.744,46.482 C107.744,48.541 107.462,50.414 106.85,52.421 C105.842,55.724 102.641,58.318 98.35,59.309 C103.146,59.128 107.283,56.667 108.64,53.187 C109.974,49.777 110.574,46.537 110.532,42.982 L110.532,42.982 Z M169.76,60.878 L94.505,60.878 L94.505,59.299 C98.77,59.143 102.392,56.727 103.123,53.549 C103.936,49.952 104.294,46.631 104.26,42.982 L104.26,11.64 C104.26,10.341 104.136,9.16 103.864,7.877 C103.393,5.67 101.812,3.799 99.359,2.548 C98.722,2.22 98.053,2.019 97.292,1.926 L97.292,0.347 L165.231,0.347 L170.805,16.664 L168.366,16.664 C160.355,8.351 148.011,3.574 134.399,3.519 L124.468,3.519 L124.468,26.665 L134.113,26.665 C138.836,26.666 143.14,25.922 147.391,24.368 C151.675,22.803 154.76,20.097 156.172,16.664 L158.263,16.664 L158.263,39.824 L156.521,39.824 C155.052,36.248 151.662,33.473 147.061,32.08 C141.955,30.529 136.939,29.804 131.436,29.823 L124.468,29.823 L124.468,46.285 C124.469,48.481 124.996,50.481 126.106,52.511 C127.269,54.639 129.645,56.162 132.614,56.683 C137.586,57.552 142.423,57.352 147.241,56.081 C159.418,52.87 169.284,47.254 176.728,39.298 L178.47,39.824 L169.76,60.878 L169.76,60.878 Z M222.111,55.615 L194.587,1.926 L186.574,1.926 C190.175,3.346 192.81,5.583 194.257,8.45 L220.352,59.141 L222.111,55.615 L222.111,55.615 Z M208.175,0.347 L230.124,38.245 L250.68,0.347 L278.552,0.347 L278.552,1.921 C276.665,1.885 274.927,2.403 273.581,3.402 C272.235,4.402 271.52,5.707 271.537,7.132 L271.537,46.57 C271.521,49.375 271.927,51.929 272.824,54.651 C273.248,55.943 274.09,57.037 275.369,57.953 C276.625,58.853 278.215,59.321 279.946,59.299 L279.946,60.878 L241.622,60.878 L241.622,59.299 C244.509,59.299 247.113,58.049 248.337,56.073 C248.944,55.093 249.324,54.141 249.536,53.071 C250.355,48.91 250.715,45.083 250.68,40.877 L250.68,8.769 L221.066,62.457 L219.007,62.457 L192.148,10.874 L192.148,40.001 C192.151,44.551 193.108,48.693 195.148,52.973 C196.65,56.137 200.032,58.464 204.343,59.299 L204.343,60.878 L175.425,60.878 L175.425,59.304 C178.263,58.611 180.532,57.234 182.043,55.292 C185.878,50.373 187.807,45.192 187.928,39.484 L187.928,13.414 C187.952,10.729 187.204,8.277 185.625,5.87 C184.374,3.968 182.276,2.593 179.606,1.926 L179.606,0.347 L208.175,0.347 L208.175,0.347 Z M299.923,42.719 L299.923,8.77 C299.911,6.925 298.984,5.246 297.257,3.941 C295.53,2.636 293.308,1.935 290.865,1.926 C292.359,2.144 293.655,2.602 294.833,3.33 C295.309,3.623 295.648,3.977 295.868,4.409 C296.77,6.184 297.177,7.921 297.136,9.821 L297.136,47.514 C297.139,50.243 296.666,52.728 295.644,55.346 C294.804,57.477 292.392,59.022 289.471,59.299 C293.609,59.102 297.13,56.891 298.144,53.855 C299.399,50.106 299.961,46.585 299.923,42.719 L299.923,42.719 Z M322.221,60.878 L284.594,60.878 L284.594,59.299 C287.344,59.303 289.835,58.206 291.188,56.398 C292.049,55.247 292.566,54.084 292.799,52.774 C293.409,49.338 293.677,46.185 293.652,42.719 L293.652,8.162 C293.664,6.732 293.04,5.424 291.823,4.328 C290.609,3.225 289.154,2.438 287.381,1.926 L287.381,0.347 L320.131,0.347 L320.131,1.921 C317.269,2.125 314.897,3.729 314.311,5.855 C313.985,7.02 313.843,8.104 313.859,9.295 L313.859,46.965 C313.857,49.925 314.395,52.618 315.553,55.445 C316.457,57.669 319.143,59.222 322.221,59.299 L322.221,60.878 L322.221,60.878 Z M342.735,42.982 L342.735,10.678 C342.737,9.005 342.396,7.482 341.668,5.902 C340.797,4.02 338.75,2.644 336.174,2.211 C334.976,2.01 333.859,1.92 332.631,1.926 C335.884,2.214 338.541,4.063 339.187,6.488 C339.729,8.511 339.968,10.389 339.948,12.453 L339.948,46.482 C339.947,48.541 339.665,50.414 339.054,52.421 C338.045,55.724 334.845,58.318 330.553,59.309 C335.349,59.128 339.487,56.667 340.843,53.187 C342.177,49.777 342.778,46.537 342.735,42.982 L342.735,42.982 Z M401.964,60.878 L326.709,60.878 L326.709,59.299 C330.973,59.143 334.595,56.727 335.326,53.549 C336.14,49.952 336.497,46.631 336.464,42.982 L336.464,11.64 C336.464,10.341 336.339,9.16 336.067,7.877 C335.597,5.67 334.015,3.799 331.563,2.548 C330.926,2.22 330.257,2.019 329.496,1.926 L329.496,0.347 L397.434,0.347 L403.009,16.664 L400.57,16.664 C392.559,8.351 380.214,3.574 366.602,3.519 L356.671,3.519 L356.671,26.665 L366.317,26.665 C371.039,26.666 375.343,25.922 379.594,24.368 C383.878,22.803 386.963,20.097 388.376,16.664 L390.466,16.664 L390.466,39.824 L388.724,39.824 C387.255,36.248 383.866,33.473 379.265,32.08 C374.159,30.529 369.142,29.804 363.639,29.823 L356.671,29.823 L356.671,46.285 C356.673,48.481 357.199,50.481 358.309,52.511 C359.473,54.639 361.848,56.162 364.817,56.683 C369.789,57.552 374.627,57.352 379.444,56.081 C391.621,52.87 401.488,47.254 408.931,39.298 L410.674,39.824 L401.964,60.878 L401.964,60.878 Z M438.232,26.665 C443.152,26.849 447.65,26.666 452.515,26.082 C459.672,25.228 465.151,20.555 465.408,15.085 C465.748,10.815 462.388,6.838 457.118,5.271 C452.987,4.047 448.941,3.481 444.504,3.505 L438.232,3.505 L438.232,26.665 L438.232,26.665 Z M423.599,42.982 L423.599,11.665 C423.604,9.241 422.749,7.03 421.018,4.99 C419.364,3.039 416.563,1.898 413.496,1.926 C416.322,2.294 418.61,3.797 419.483,5.861 C420.408,8.054 420.831,10.152 420.812,12.453 L420.812,45.997 C420.819,49.666 419.817,53.011 417.72,56.32 C416.975,57.496 415.801,58.389 414.25,58.961 C417.978,58.164 420.817,56.002 421.842,53.18 C423.075,49.759 423.632,46.529 423.599,42.982 L423.599,42.982 Z M469.24,60.878 L461.896,43.31 C460.359,39.636 458.101,36.495 454.858,33.521 C452.269,31.152 448.57,29.831 444.504,29.823 L438.232,29.823 L438.232,48.497 C438.246,51.339 439.102,53.926 440.859,56.439 C442.122,58.242 444.59,59.34 447.291,59.299 L447.291,60.878 L408.27,60.878 L408.27,59.299 C410.556,59.241 412.6,58.398 413.903,56.978 C415.198,55.568 415.993,54.081 416.357,52.387 C417.047,49.183 417.352,46.229 417.328,42.982 L417.328,10.735 C417.329,9.173 417.055,7.751 416.464,6.254 C415.599,4.072 413.297,2.44 410.36,1.926 L410.36,0.347 L464.273,0.347 C469.81,0.355 474.856,1.45 479.553,3.665 C484.902,6.193 487.886,10.709 487.345,15.458 C486.803,20.207 482.842,24.271 476.999,26.071 C470.94,27.929 464.979,28.796 458.44,28.77 C464.187,28.862 469.39,30.386 473.719,33.244 C478.244,36.227 481.399,39.789 483.321,44.088 C485.02,47.858 487.037,51.166 489.725,54.592 C491.661,57.073 494.761,58.738 498.499,59.304 L498.499,60.878 L469.24,60.878 L469.24,60.878 Z" id="path-3"></path>
        <path d="M76.457,24.583 C75.697,17.54 71.057,11.607 64.391,9.154 C58.605,7.038 52.981,6.078 46.819,6.154 L40.691,6.154 L40.691,52.199 L49.999,52.199 C57.428,52.448 64.299,49.654 69.432,44.296 C74.565,38.938 77.049,31.968 76.457,24.583 L76.457,24.583 Z M21.836,76.631 L21.836,20.509 C21.836,16.414 20.825,12.681 18.757,9.142 C16.641,5.525 12.839,3.343 8.638,3.334 C12.701,4.401 15.728,7.74 16.382,11.877 C16.908,15.212 17.14,18.283 17.123,21.659 L17.123,83.966 C17.122,88.919 16.271,93.43 14.467,98.045 C12.803,102.279 9.102,105.258 4.599,105.987 C11.155,105.998 17.008,101.742 18.999,95.517 C20.997,89.232 21.899,83.223 21.836,76.631 L21.836,76.631 Z M106.684,27.767 C106.597,37.608 101.067,46.45 92.24,50.86 C75.939,58.977 58.687,61.627 40.691,58.777 L40.691,85.833 C40.691,90.276 41.328,94.321 42.694,98.55 C44.103,102.947 48.319,105.913 52.947,105.762 L52.947,108.581 L0.625,108.581 L0.625,105.771 C5.242,105.263 9.047,101.885 10.086,97.372 C11.721,90.368 12.454,83.822 12.409,76.631 L12.409,18.357 C12.404,14.752 11.719,11.469 10.281,8.161 C9.202,5.671 7.055,3.91 4.395,3.334 L4.395,0.515 L63.085,0.515 C75.198,0.496 86.247,3.561 96.609,9.814 C102.946,13.656 106.716,20.373 106.684,27.767 L106.684,27.767 Z" id="path-5"></path>
    </defs>
    <g id="Design" stroke="none" stroke-width="1" fill="none" fill-rule="evenodd" sketch:type="MSPage">
        <g id="Type-Guide" sketch:type="MSArtboardGroup" transform="translate(-515.000000, -2055.000000)">
            <g id="logo" sketch:type="MSLayerGroup" transform="translate(515.000000, 2055.000000)">
                <g id="Group-3" transform="translate(14.000000, 158.000000)">
                    <mask id="mask-2" sketch:name="Clip 2" fill="white">
                        <use xlink:href="#path-1"></use>
                    </mask>
                    <g id="Clip-2"></g>
                    <path d="M0.496,0.413 L702.784,0.413 L702.784,58.286 L0.496,58.286 L0.496,0.413 Z" id="Fill-1" fill="#000000" sketch:type="MSShapeGroup" mask="url(#mask-2)"></path>
                </g>
                <path d="M0.692,226.043 L730.589,226.043 L730.589,230.11 L0.692,230.11 L0.692,226.043 Z" id="Fill-12" fill="#1E641E" sketch:type="MSShapeGroup"></path>
                <g id="Group-25" transform="translate(232.000000, 38.000000)">
                    <mask id="mask-4" sketch:name="Clip 24" fill="white">
                        <use xlink:href="#path-3"></use>
                    </mask>
                    <g id="Clip-24"></g>
                    <path d="M0.59,0.347 L498.499,0.347 L498.499,62.457 L0.59,62.457 L0.59,0.347 Z" id="Fill-23" fill="#000000" sketch:type="MSShapeGroup" mask="url(#mask-4)"></path>
                </g>
                <g id="Group-28" transform="translate(117.000000, 21.000000)">
                    <mask id="mask-6" sketch:name="Clip 27" fill="white">
                        <use xlink:href="#path-5"></use>
                    </mask>
                    <g id="Clip-27"></g>
                    <path d="M0.625,0.513 L106.686,0.513 L106.686,108.581 L0.625,108.581 L0.625,0.513 Z" id="Fill-26" fill="#000000" sketch:type="MSShapeGroup" mask="url(#mask-6)"></path>
                </g>
                <path d="M78.745,141.277 L79.508,141.277 C80.253,129.395 80.879,118.592 81.512,106.704 C80.413,104.932 79.637,103.182 79.059,101.179 C78.958,101.088 78.777,101.144 78.745,101.275 L78.745,141.277 M234.116,136.693 L234.359,136.693 C234.193,126.102 234.328,116.47 234.789,105.888 L233.44,105.888 C233.19,116.481 233.401,126.121 234.116,136.693 M230.372,135.29 L230.558,135.29 C230.818,127.028 231.077,119.519 231.387,111.259 L231.158,111.18 L229.871,112.473 C229.685,120.319 229.842,127.459 230.372,135.29 M225.608,129.506 C225.699,129.629 225.916,129.595 225.966,129.451 C225.847,125.621 225.861,122.136 226.011,118.307 L225.906,118.271 L225.316,118.865 C225.228,122.525 225.319,125.856 225.608,129.506 M215.47,143.762 C215.56,143.948 215.874,143.927 215.939,143.731 C215.777,138.51 215.797,133.76 216.001,128.541 L215.858,128.492 L215.053,129.3 C214.933,134.275 215.064,138.802 215.47,143.762 M97.291,134.914 L97.46,134.914 C97.625,132.28 97.764,129.886 97.904,127.251 C97.708,127.157 97.54,127.049 97.375,126.908 C97.34,126.882 97.284,126.916 97.291,126.959 L97.291,134.914 M725.455,113.399 C727.086,109.915 727.189,106.752 727.006,103.289 L730.909,103.289 L730.909,149.968 L0.69,149.979 L0.684,135.986 L0.627,85.533 L0.626,85.003 C-0.264,60.379 0.922,37.914 4.4,13.52 C5.088,54.629 6.339,92.026 9.702,133.002 C9.387,104.784 11.013,79.037 15.806,51.249 C16.071,80.638 17.09,107.402 20.106,136.647 C20.297,99.136 21.956,64.693 26.208,27.081 L30.537,91.972 C32.085,75.925 33.438,61.232 35.988,45.239 L36.958,44.571 C34.5,75.912 35.277,104.654 39.423,135.816 C39.302,101.502 40.996,70.321 45.802,36.447 L46.666,36.927 L50.806,145.41 C50.345,110.807 51.55,79.101 56.555,44.779 L57.909,44.292 C55.975,72.036 56.306,97.409 58.962,125.093 L60.125,124.644 C58.95,89.862 60.533,58.146 65.168,23.655 C65.806,60.674 66.981,94.235 69.953,131.02 C72.959,101.493 73.483,74.596 72.94,45.026 C73.385,44.889 74.732,57.76 74.732,57.76 C77.274,52.416 79.241,47.638 81.902,42.65 C81.799,40.071 81.817,37.721 81.959,35.144 C82.175,35.21 82.93,40.094 82.93,40.094 C94.64,20.361 113.434,7.206 135.983,2.96 C143.355,1.223 150.244,0.422 157.818,0.421 C177.488,-0.081 195.591,5.678 211.356,17.453 C211.973,17.927 212.092,18.859 211.613,19.473 C211.135,20.087 210.202,20.2 209.591,19.717 C194.343,8.372 176.855,2.83 157.856,3.322 C150.483,3.321 143.777,4.101 136.601,5.796 C119.668,8.96 105.228,17.235 93.936,30.245 C82.645,43.254 76.484,58.716 75.734,75.926 C75.749,86.018 77.865,95.211 82.263,104.294 C98.347,131.006 126.221,147.246 157.39,148.066 C173.302,148.894 188.044,145.24 201.728,137.077 C215.411,128.915 225.631,117.679 232.462,103.285 L236.509,103.285 C235.979,116.276 236.035,128.108 236.69,141.094 C236.987,141.333 237.833,103.289 237.833,103.289 L241.235,103.289 C241.175,110.02 241.38,116.14 241.891,122.851 C242.97,116.097 243.002,109.98 242.513,103.289 L248.283,103.289 C248.186,110.482 248.348,117.023 248.801,124.202 L249.388,103.289 L253.361,103.289 L254.155,132.632 C254.671,132.465 254.776,103.289 254.776,103.289 L258.019,103.289 C257.641,109.813 257.731,115.769 258.305,122.279 L259.164,103.289 L262.885,103.289 C262.466,116.952 262.675,129.39 263.552,143.031 C264.768,129.274 264.754,116.891 264.216,103.289 L266.853,112.048 L267.768,103.289 L273.009,103.289 L273.393,129.168 C274.068,120.266 274.314,112.164 275.038,103.289 L278.5,103.289 L278.5,132.447 C279.858,122.438 280.101,113.318 279.992,103.289 L282.041,142.283 L283.308,103.289 L286.587,103.289 L287.278,118.604 C288.446,113.425 288.616,108.596 288.525,103.289 L293.444,103.289 L294.413,132.84 L295.382,103.289 L298.66,103.289 L300.16,131.303 C300.501,121.681 300.517,112.91 301.045,103.289 L303.803,118.266 C304.902,113.133 305.135,108.446 305.144,103.289 L308.423,103.289 C307.767,117.253 307.977,129.985 309.094,143.919 L310.063,103.289 L311.915,113.358 C313.306,109.912 313.417,106.753 313.285,103.289 L318.511,103.289 C318.08,113.409 318.144,122.628 318.714,132.742 C320.256,122.639 320.526,113.421 320.338,103.289 L323.789,103.289 L324.093,126.785 L325.057,103.289 L327.949,120.829 C329.156,114.886 329.41,109.363 329.37,103.289 L334.587,103.285 C334.107,115.041 334.119,125.746 334.629,137.501 C335.22,137.854 335.911,103.289 335.911,103.289 L339.312,103.289 C339.252,110.02 339.458,116.14 339.969,122.851 L340.59,103.289 L346.361,103.289 C346.263,110.482 346.425,117.023 346.879,124.202 L347.466,103.289 L351.439,103.289 L352.233,132.632 C352.748,132.465 352.853,103.289 352.853,103.289 L356.097,103.289 C355.719,109.813 355.809,115.769 356.383,122.279 L357.242,103.289 L360.963,103.289 C360.596,114.778 360.905,125.242 361.949,136.689 C362.113,136.844 362.294,103.289 362.294,103.289 L364.931,112.048 L365.845,103.289 L371.086,103.289 L371.47,129.168 C372.146,120.266 372.391,112.164 373.116,103.289 L376.578,103.289 L376.578,132.447 C377.936,122.438 378.179,113.318 378.07,103.289 L380.119,142.283 L381.385,103.289 L384.665,103.289 L385.356,118.604 C386.523,113.425 386.693,108.596 386.603,103.289 L391.521,103.289 L392.49,132.84 L393.459,103.289 L396.738,103.289 L398.237,131.303 C398.579,121.681 398.596,112.91 399.123,103.289 L401.881,118.266 C402.979,113.133 403.213,108.446 403.222,103.289 L406.501,103.289 C405.775,118.745 406.075,132.843 407.458,148.254 L408.141,103.289 L409.993,113.358 C411.384,109.912 411.496,106.753 411.363,103.289 L416.589,103.289 C416.158,113.409 416.221,122.628 416.792,132.742 C418.333,122.639 418.603,113.421 418.415,103.289 L421.866,103.289 L422.171,126.785 L423.135,103.289 L426.027,120.829 C427.234,114.886 427.488,109.363 427.448,103.289 L433.115,103.285 C432.634,115.041 432.647,125.746 433.156,137.501 C433.747,137.853 434.438,103.289 434.438,103.289 L437.84,103.289 C437.779,110.02 437.985,116.14 438.496,122.851 L439.118,103.289 L444.888,103.289 C444.79,110.482 444.952,117.023 445.406,124.202 L445.993,103.289 L449.966,103.289 L450.76,132.632 C451.275,132.465 451.38,103.289 451.38,103.289 L454.624,103.289 C454.246,109.813 454.336,115.769 454.91,122.279 L455.769,103.289 L459.49,103.289 C459.123,114.778 459.432,125.242 460.476,136.689 C460.641,136.844 460.821,103.289 460.821,103.289 L463.458,112.048 L464.372,103.289 L469.613,103.289 L469.998,129.168 C470.673,120.266 470.918,112.164 471.643,103.289 L475.104,103.289 L475.104,132.447 C476.463,122.438 476.706,113.318 476.597,103.289 L478.646,142.283 L479.913,103.289 L483.192,103.289 L483.883,118.604 C485.05,113.425 485.22,108.596 485.13,103.289 L490.049,103.289 L491.017,132.84 L491.986,103.289 L495.265,103.289 L496.765,131.303 C497.107,121.681 497.123,112.91 497.65,103.289 L500.407,118.266 C501.506,113.133 501.74,108.446 501.749,103.289 L505.028,103.289 C504.303,118.745 504.603,132.843 505.985,148.254 L506.668,103.289 L508.52,113.358 C509.911,109.912 510.022,106.753 509.89,103.289 L515.117,103.289 C514.685,113.409 514.749,122.628 515.319,132.742 C516.861,122.639 517.131,113.421 516.943,103.289 L520.393,103.289 L520.698,126.785 L521.662,103.289 L524.554,120.829 C525.761,114.886 526.015,109.363 525.975,103.289 L531.596,103.285 C531.064,116.276 531.121,128.108 531.776,141.094 C532.073,141.333 532.919,103.289 532.919,103.289 L536.32,103.289 C536.261,110.02 536.466,116.14 536.977,122.851 C538.055,116.097 538.088,109.98 537.599,103.289 L543.368,103.289 C543.271,110.482 543.433,117.023 543.886,124.202 L544.474,103.289 L548.447,103.289 L549.241,132.632 C549.756,132.465 549.861,103.289 549.861,103.289 L553.105,103.289 C552.727,109.813 552.817,115.769 553.391,122.279 L554.25,103.289 L557.97,103.289 C557.552,116.952 557.761,129.39 558.638,143.031 C559.854,129.274 559.84,116.891 559.302,103.289 L561.939,112.048 L562.853,103.289 L568.094,103.289 L568.478,129.168 C569.154,120.266 569.4,112.164 570.124,103.289 L573.585,103.289 L573.585,132.447 C574.944,122.438 575.187,113.318 575.078,103.289 L577.127,142.283 L578.394,103.289 L581.673,103.289 L582.364,118.604 C583.531,113.425 583.701,108.596 583.611,103.289 L588.529,103.289 L589.498,132.84 L590.467,103.289 L593.746,103.289 L595.246,131.303 C595.587,121.681 595.603,112.91 596.131,103.289 L598.888,118.266 C599.988,113.133 600.221,108.446 600.23,103.289 L603.509,103.289 C602.852,117.253 603.062,129.985 604.18,143.919 L605.149,103.289 L607.001,113.358 C608.392,109.912 608.504,106.753 608.371,103.289 L613.598,103.289 C613.166,113.409 613.229,122.628 613.8,132.742 C615.342,122.639 615.612,113.421 615.424,103.289 L618.874,103.289 L619.178,126.785 L620.143,103.289 L623.035,120.829 C624.241,114.886 624.496,109.363 624.456,103.289 L628.853,103.289 L629.309,126.735 L630.121,103.289 L633.572,103.289 C633.384,113.421 633.653,122.639 634.434,132.742 C635.766,122.628 635.829,113.409 635.398,103.289 L640.625,103.289 C640.492,106.753 640.603,109.912 640.98,113.358 L642.356,103.289 L644.07,143.77 C645.933,129.985 646.143,117.253 645.486,103.289 L648.766,103.289 C648.775,108.446 649.008,113.133 649.511,118.266 L650.927,103.289 C653.392,112.91 653.408,121.681 652.916,131.303 L655.249,103.289 L658.528,103.289 L659.025,132.832 L660.466,103.289 L665.385,103.289 C665.294,108.596 665.465,113.425 665.928,118.712 L667.322,103.289 L670.602,103.289 L670.75,142.283 L672.127,103.289 C673.809,113.318 674.051,122.438 674.693,132.447 L675.41,103.289 L678.872,103.289 C679.596,112.164 679.841,120.266 679.655,129.168 L680.901,103.289 L686.142,103.289 L686.312,112.048 L687.629,103.289 C689.156,116.891 689.142,129.274 689.647,142.877 C691.234,129.39 691.443,116.952 691.025,103.289 L694.746,103.289 L695.223,122.279 C696.179,115.769 696.268,109.813 695.89,103.289 L699.135,103.289 L699.135,132.442 C699.163,132.447 700.549,103.289 700.549,103.289 L704.521,103.289 L704.659,124.202 C705.563,117.023 705.725,110.482 705.627,103.289 L711.397,103.289 C710.907,109.979 710.94,116.097 711.501,122.782 C712.53,116.14 712.735,110.02 712.675,103.289 L716.077,103.289 L716.21,141.035 C717.874,128.108 717.931,116.276 717.4,103.285 L724.557,103.285 C724.49,106.781 724.772,109.969 725.455,113.399 Z" id="Fill-29" fill="#125814" sketch:type="MSShapeGroup"></path>
            </g>
        </g>
    </g>
</svg>