<?xml version="1.0" encoding="UTF-8" standalone="no"?>
<svg width="1600px" height="494px" viewBox="0 0 1600 494" version="1.1" xmlns="http://www.w3.org/2000/svg" xmlns:xlink="http://www.w3.org/1999/xlink" xmlns:sketch="http://www.bohemiancoding.com/sketch/ns">
    <!-- Generator: Sketch 3.2.2 (9983) - http://www.bohemiancoding.com/sketch -->
    <title>main-bg-grunge</title>
    <desc>Created with Sketch.</desc>
    <defs></defs>
    <g id="Design" stroke="none" stroke-width="1" fill="none" fill-rule="evenodd" sketch:type="MSPage">
        <g id="Style-Guide" sketch:type="MSArtboardGroup" transform="translate(0.000000, -2764.000000)" fill="#FCFCFB">
            <g id="main-bg-grunge" sketch:type="MSLayerGroup" transform="translate(-8.000000, 2763.000000)">
                <g id="soft-edge" sketch:type="MSShapeGroup">
                    <path d="M171.820094,606.113321 C172.206603,606.065488 172.195167,606.072321 172.396426,605.867321 C170.82066,603.655597 172.519926,600.393817 171.627983,597.762982 C172.007631,597.348426 172.288936,596.546647 172.590824,596.047814 C172.10826,595.211868 172.009918,594.485257 171.916149,593.344089 C172.044223,593.262089 172.172297,593.180089 172.300371,593.100367 C172.142566,592.444366 171.980186,591.792921 171.820094,591.132365 C172.012205,591.216643 172.204315,591.298643 172.396426,591.378366 C171.552511,588.879641 172.602259,585.216972 172.300371,583.155581 C171.477039,577.488466 172.060232,570.513905 171.433585,564.493734 C171.227752,562.505232 171.98476,559.917675 171.627983,557.619395 C171.312372,555.596727 171.209456,550.706334 171.820094,548.16661 C172.073955,547.102887 171.42215,542.449383 171.433585,541.410716 C171.456455,539.727437 171.847538,538.139824 171.433585,536.502101 C171.268919,535.843823 172.009918,534.775544 171.916149,534.046655 C171.351252,529.689262 171.957316,524.555147 171.529641,519.316254 C171.417576,517.938198 171.92301,514.398528 171.433585,513.667361 C171.563946,512.76536 171.689733,511.870193 171.820094,510.965915 C171.762918,510.385081 171.387844,510.453414 171.241474,510.107192 C171.19116,509.986469 171.724038,506.515133 171.627983,505.567577 C171.188873,501.264851 171.767492,496.843681 171.724038,493.411068 C171.529641,492.634345 171.33753,491.857622 171.145419,491.078621 C170.978465,489.839509 171.38327,488.84412 171.529641,488.133452 C171.467891,487.229174 171.401567,486.334007 171.33753,485.432006 C171.280354,484.671228 171.284928,483.163338 171.627983,482.607559 C171.202595,481.445892 171.255196,479.664668 171.433585,478.065667 C172.005344,478.136278 172.071668,478.2365 172.396426,477.819667 L172.396426,477.694389 C171.678298,477.503055 171.470178,477.268444 171.145419,476.589666 C171.646279,474.822109 170.994475,472.460051 170.857253,471.06605 C170.749762,469.974994 171.00591,467.378325 171.145419,466.524158 C171.049363,465.501435 170.953308,464.478712 170.857253,463.455989 C170.914428,460.67482 170.973891,456.670484 171.145419,454.369926 C170.484466,454.39726 170.191726,454.347149 169.990467,453.757204 C170.484466,453.702537 170.69716,453.595481 170.953308,453.262926 C170.566799,452.463425 170.662855,450.998813 170.953308,450.076312 C170.92129,449.992034 170.889271,449.910034 170.857253,449.828034 C170.761197,449.910034 170.665142,449.992034 170.569086,450.076312 C170.312939,450.768757 170.054504,451.465758 169.798356,452.158202 L169.606245,452.158202 L169.606245,451.547758 C171.108826,447.737032 170.523346,445.270197 170.857253,440.495971 C170.761197,440.454971 170.665142,440.413971 170.569086,440.375249 C170.312939,440.495971 170.054504,440.621249 169.798356,440.744249 L169.798356,440.621249 C169.830375,440.495971 169.862393,440.375249 169.894411,440.249971 C170.182578,439.965249 170.473031,439.678248 170.761197,439.38897 C171.072234,436.484801 171.056225,431.981631 170.278633,429.571741 C169.857819,429.421407 169.74118,429.321185 169.51019,428.95674 C169.59481,428.564962 170.187152,427.227905 170.278633,427.483017 C170.639984,425.685849 170.667429,423.182569 170.376976,421.469679 C170.473031,420.813678 170.569086,420.157678 170.665142,419.503955 C170.239754,416.492731 170.081948,412.549894 170.182578,409.55917 C170.312939,409.479447 170.438725,409.395169 170.569086,409.313169 C170.363253,408.996558 170.312939,409.058058 170.182578,408.575169 C170.463883,408.336002 170.461596,408.033057 170.665142,407.721002 C171.136271,408.814336 172.375843,408.661724 172.012205,410.538615 C172.508491,410.15367 172.405574,409.891725 172.87899,410.048892 C173.196888,410.538615 173.51936,411.035171 173.841832,411.524893 L174.804673,411.524893 L174.804673,411.155893 C174.360988,410.110392 173.31124,409.966892 172.87899,409.069447 L172.87899,407.349723 C172.597685,406.379389 171.358113,405.889667 170.761197,405.632278 C171.02878,405.096999 171.058512,404.86011 170.857253,404.156277 L170.473031,404.156277 C170.278633,404.406832 170.086522,404.650555 169.894411,404.896555 C169.798356,404.814555 169.702301,404.732555 169.606245,404.650555 L169.606245,404.035554 C169.969884,403.570887 170.143698,403.500276 170.376976,402.807831 C170.312939,402.725831 170.246615,402.643831 170.182578,402.561831 L170.086522,402.561831 C169.928717,403.005998 170.059078,402.851109 169.702301,403.051553 C169.638264,402.605109 169.574227,402.151831 169.51019,401.70083 L169.51019,401.582386 C170.127689,401.559608 170.077374,401.441163 170.665142,401.213385 C170.596531,402.38872 170.754336,403.75311 171.33753,404.406832 C171.689733,404.074276 172.044223,403.748554 172.396426,403.420554 L172.396426,403.051553 C171.86126,402.730387 171.66915,402.648386 171.33753,402.072108 C171.563946,401.500386 171.788075,400.924107 172.012205,400.352385 C172.076242,400.393385 172.142566,400.434385 172.204315,400.475385 C172.371269,401.10633 172.860694,401.450274 173.359267,401.213385 C173.800665,401.069885 173.860128,400.917274 174.129998,400.596107 L174.129998,400.475385 C173.530795,399.915051 172.314093,399.514162 171.627983,399.493662 C171.477039,398.912828 171.319233,398.880939 171.145419,398.386661 C171.241474,398.101939 171.33753,397.812661 171.433585,397.52566 C170.985327,397.812661 170.534781,398.101939 170.086522,398.386661 C170.024772,398.673661 169.958448,398.958384 169.894411,399.247662 C170.326661,399.637162 170.379263,399.757884 170.182578,400.352385 C169.894411,400.475385 169.606245,400.596107 169.318079,400.721385 C169.28606,400.639385 169.254042,400.557385 169.219737,400.475385 C169.350097,400.024384 169.475884,399.573384 169.606245,399.126939 C169.28606,399.083662 168.963589,399.040384 168.643404,399.001661 C168.709728,398.876384 168.773765,398.755661 168.835515,398.632661 C169.919569,397.748883 168.977311,396.122548 168.835515,394.580491 C169.160274,394.190991 169.180857,394.231991 169.123681,393.598768 C169.475884,393.557768 169.830375,393.516768 170.182578,393.475768 L170.182578,393.724046 C170.408994,394.539491 170.630836,395.359492 170.857253,396.179493 L170.857253,395.933492 C171.250622,395.295714 171.154567,394.377769 171.241474,393.598768 C171.401567,393.557768 171.563946,393.516768 171.724038,393.475768 C171.890992,393.810602 172.064806,394.799158 172.204315,395.318492 C172.87899,395.555381 173.327249,395.91527 173.841832,395.19777 C173.745776,395.033769 173.647434,394.865214 173.553665,394.701214 C172.535935,394.544047 171.895566,393.603324 171.529641,392.619323 C171.81552,392.011156 171.913862,391.778823 171.820094,390.897322 L171.724038,390.897322 C171.563946,390.979322 171.401567,391.0636 171.241474,391.143322 C171.179724,391.512322 171.1134,391.8836 171.049363,392.248045 C170.335809,392.097712 170.242041,392.30499 169.414134,392.248045 C169.217449,391.521433 168.938431,391.430322 168.835515,390.528322 C168.535913,389.98621 169.144264,390.02721 169.318079,390.038599 C169.080227,389.421321 168.805783,389.357543 168.643404,388.690153 C168.812645,388.168542 168.80807,388.063764 169.219737,387.829153 C168.93157,387.091152 168.643404,386.357707 168.355238,385.619707 C168.643404,385.537707 168.93157,385.457984 169.219737,385.373706 C169.059644,384.69265 168.773765,384.581039 168.355238,384.268983 C168.558784,382.430815 168.302636,381.435426 167.968729,379.973091 C168.035053,378.827368 168.09909,377.679367 168.16084,376.535922 C168.34609,374.813921 167.916127,369.438361 167.392397,368.675305 C167.554776,368.513582 167.712581,368.35186 167.872674,368.18786 C166.784046,366.55697 167.959581,363.864634 167.680563,361.928522 C167.518183,360.79191 167.449572,359.744131 167.776618,358.858075 C167.106517,356.359351 166.809203,352.935848 167.10423,349.769735 C167.168267,349.687734 167.232304,349.605734 167.296341,349.523734 C168.82408,350.655791 168.728024,347.977122 168.739459,346.699288 C168.483312,346.742566 168.227164,346.781288 167.968729,346.824566 C167.938998,346.908843 167.906979,346.988566 167.872674,347.070566 C167.712581,347.920178 167.865813,348.248178 167.872674,348.911012 C167.650831,349.034012 167.424415,349.15929 167.200286,349.280012 C167.184277,347.494233 166.989879,345.90662 166.429555,344.98412 C165.981297,344.243841 166.459287,336.754502 165.565057,334.672612 C165.267742,333.982445 165.937843,329.636441 165.757168,328.902996 C165.629094,328.734441 165.498733,328.57044 165.372946,328.408718 L165.372946,327.795995 C165.466714,327.445217 165.901251,327.351828 165.757168,326.565994 C165.480436,325.069493 165.215141,322.31338 165.469001,321.042379 C165.372946,319.732656 165.27689,318.42521 165.180835,317.117765 C165.057335,315.562041 165.519316,313.641873 165.757168,312.081594 C166.205426,309.127314 164.769169,307.908702 166.141389,305.204978 C166.155111,305.179922 165.279177,300.066307 165.372946,299.435362 C165.695418,297.230472 165.942417,294.043858 166.141389,292.192023 C166.207713,291.597523 165.768603,291.656745 165.661112,291.331023 C165.224289,290.0418 165.85551,288.891521 166.045334,288.016854 C165.821204,286.953131 165.594788,285.889407 165.372946,284.827962 C165.519316,284.226628 166.020176,283.595683 166.141389,282.739238 C165.711427,282.28596 165.469001,280.454625 165.565057,279.425069 C166.230584,278.894347 166.219148,277.857957 166.621666,277.338623 C165.295187,274.928732 166.251167,274.782954 166.621666,272.673731 C166.797768,271.687452 166.145963,272.129341 166.717722,271.325285 C166.399824,270.464284 166.077352,269.603284 165.757168,268.744561 C166.088787,267.849394 166.543907,267.623893 166.621666,266.412115 C166.267176,265.446336 165.988158,265.268669 165.949278,264.081946 C166.237445,263.628668 166.525611,263.177668 166.813777,262.731223 C166.777185,261.184611 166.022463,260.683499 166.141389,259.291776 C166.429555,258.471775 166.717722,257.654052 167.008175,256.836329 C166.475296,256.132496 166.141389,255.424106 165.853223,254.383161 C166.173408,253.60416 166.495879,252.82516 166.813777,252.046159 C165.944704,251.738659 165.720575,251.285381 165.27689,250.451713 L165.27689,250.328713 C167.262036,247.909711 166.189417,244.315375 164.50616,242.347374 C164.830919,239.901039 165.569631,237.507092 167.200286,236.08348 L167.200286,235.965036 C166.223722,235.705369 165.697705,235.662091 164.986437,234.981035 C164.954419,233.992479 165.055048,233.259034 165.757168,232.894589 C165.567344,232.167977 165.160252,231.220421 164.892669,230.44142 C166.740592,226.295861 164.888095,220.904357 166.3335,216.567465 C165.73201,216.303243 165.441557,215.75202 165.27689,214.973019 C165.469001,214.235019 165.661112,213.497018 165.853223,212.759018 C165.725149,209.362848 165.594788,205.966679 165.469001,202.572788 C165.77089,201.443009 166.463861,200.347397 166.141389,199.502341 C164.65253,198.782562 165.210566,195.044726 164.986437,193.117725 C165.356937,192.751002 166.676555,190.404889 166.525611,189.680555 C166.427268,189.199944 165.606223,188.739832 165.661112,187.837832 C165.821204,186.694386 165.981297,185.546386 166.141389,184.40294 C165.91726,183.62394 165.693131,182.844939 165.469001,182.070494 C165.702279,175.453544 165.340927,168.61565 165.180835,162.670646 C165.06877,158.545587 164.394095,153.586861 165.565057,150.149692 C164.515308,149.27958 165.876093,147.619079 165.661112,146.587244 C165.56277,146.115744 165.000159,145.794577 164.892669,145.115799 C164.675401,143.78102 165.368372,143.275353 165.372946,142.412074 C165.384381,140.243628 163.806328,137.236959 164.410105,133.695012 C164.634234,132.469567 164.858363,131.241844 165.08478,130.016398 C165.215141,128.15773 164.609077,126.189729 164.986437,123.877782 C165.08478,122.973504 165.180835,122.076059 165.27689,121.176336 C163.854356,113.604997 165.839501,104.138545 164.698271,95.1481491 L164.698271,89.0095333 C164.019022,84.1100295 164.282031,78.638803 164.314049,72.8054096 C164.439836,71.6596865 164.570197,70.5139634 164.698271,69.3682403 C164.50616,68.8352399 164.314049,68.3022395 164.121938,67.7692391 C164.15167,66.5005159 164.183688,65.2340705 164.217994,63.9653473 C163.675967,59.2867881 164.288892,54.7950069 164.50616,50.8293927 C164.551901,49.9501698 164.08992,49.1438358 164.025883,48.4969464 C163.954985,47.8250015 164.565623,42.8343865 164.698271,42.2330527 C164.897243,41.331052 164.615938,39.8960509 164.50616,39.1648837 C164.570197,36.5909928 164.634234,34.0125464 164.698271,31.4318222 C164.858363,27.0539299 165.018456,22.6737598 165.180835,18.2958676 C165.638242,15.3620875 165.921834,12.1048628 166.141389,8.96380481 C166.013315,8.47635999 165.885241,7.98435961 165.757168,7.49463701 C165.713714,7.00719219 166.237445,3.07118915 166.237445,3.07118915 C165.844075,2.91857792 165.960714,3.17368923 165.757168,2.70218887 C164.7989,0.367464842 166.429555,-1.75542569 166.237445,-4.41814996 C166.141389,-5.72559542 166.466148,-7.31776331 166.717722,-8.71176439 C166.859518,-9.49076499 166.582787,-10.7526549 166.717722,-11.7822112 C167.152258,-15.0371582 168.238599,-19.7817729 167.968729,-23.5697203 C168.238599,-23.8635539 168.403265,-23.934165 168.547349,-24.4284432 C168.156266,-24.6174989 168.208868,-24.5172766 168.064785,-25.0411659 C168.865246,-25.9750555 168.389543,-29.3051692 168.16084,-30.6900591 C168.51533,-31.1501706 168.792061,-31.2686151 169.318079,-31.5510598 C169.28606,-31.6307821 169.254042,-31.7127821 169.219737,-31.7947822 L168.256895,-31.7947822 C168.165414,-32.2025047 168.09909,-32.1797269 168.16084,-32.530505 C167.769757,-34.3140064 168.208868,-37.1202308 168.643404,-38.7921209 C167.454147,-39.6326216 168.988746,-43.8077915 168.355238,-44.6824588 C168.083081,-45.971682 168.629682,-48.3132394 168.355238,-49.2289068 C167.91384,-50.6889635 167.367239,-55.8025785 167.584507,-56.841246 C168.030479,-58.9459143 168.458154,-63.009473 167.968729,-64.94103 C167.712581,-65.963753 168.117386,-74.5919819 168.16084,-74.6420931 C166.78862,-77.5963731 168.586228,-83.5914889 167.776618,-88.3930481 C166.969295,-93.1968852 168.105951,-99.4106677 167.584507,-104.720172 C167.111091,-109.53312 167.712581,-114.216235 167.392397,-118.097571 C167.264323,-119.45285 167.136249,-120.801295 167.008175,-122.152019 C167.088221,-122.707797 167.449572,-124.659854 167.10423,-125.837466 C167.012749,-126.142688 166.715435,-126.008299 166.717722,-126.570911 C166.724583,-127.712078 167.41298,-128.071968 167.488452,-128.782635 C167.10423,-129.151635 166.717722,-129.51608 166.3335,-129.887358 C166.525611,-131.226692 165.688557,-132.837082 165.949278,-134.431528 C166.049908,-135.046529 166.575926,-135.026029 166.717722,-135.410973 C167.152258,-136.568085 166.495879,-138.228587 166.909833,-139.340143 C167.360378,-139.832143 167.810924,-140.319588 168.256895,-140.813866 C168.323219,-142.244312 168.387256,-143.679313 168.451293,-145.109759 C169.135116,-148.373817 171.4839,-151.699375 173.359267,-153.583098 C176.282097,-156.519156 184.396492,-154.842711 189.046031,-155.298266 C195.221022,-155.904156 201.99979,-155.421267 208.099309,-156.651267 C211.049582,-156.692268 214.002143,-156.735545 216.952416,-156.77199 C219.98731,-157.371046 223.369833,-157.261712 226.768365,-157.261712 L229.848999,-157.261712 C229.79411,-155.090988 228.527094,-153.667376 229.368722,-152.107097 L229.464778,-152.107097 C229.798685,-154.02271 230.189767,-155.564767 230.523674,-157.261712 C242.134944,-157.46899 253.748501,-157.676268 265.359771,-157.876713 C270.425551,-158.024769 276.67144,-158.544102 281.625155,-158.247991 C283.96479,-158.163713 286.306713,-158.081713 288.648635,-158.001991 C293.140369,-158.204713 297.632103,-158.409713 302.123838,-158.616991 C304.431455,-158.530436 306.741359,-158.448436 309.051263,-158.366435 C311.361167,-158.491713 313.668784,-158.616991 315.978688,-158.737714 C318.800887,-158.216102 322.72315,-158.277602 325.50647,-158.860714 C333.270949,-158.901714 341.033142,-158.942714 348.795334,-158.983714 C376.349516,-159.514436 403.908271,-160.049715 431.460166,-160.575882 C444.420786,-160.94716 457.381406,-161.31616 470.339739,-161.680605 L480.155687,-161.680605 C483.332377,-161.72616 486.509067,-161.76716 489.683469,-161.805883 C496.885339,-161.80816 504.06205,-161.512049 511.913437,-161.680605 L534.625968,-161.680605 C537.992482,-161.76716 541.363569,-161.846883 544.73237,-161.93116 C549.855326,-161.93116 555.671252,-162.086049 560.032625,-161.93116 C565.514645,-161.730716 570.964646,-162.379883 576.295722,-161.31616 C578.383784,-160.901604 580.819474,-161.669216 582.841212,-161.19316 C584.188275,-160.86516 585.533051,-160.537159 586.880114,-160.211437 C588.709741,-159.307158 590.539368,-158.409713 592.366708,-157.505435 C595.536536,-156.781101 598.296986,-157.594268 601.318157,-157.38699 C609.144387,-156.844879 617.983772,-157.12049 624.70079,-155.546544 C626.018121,-155.669544 627.333165,-155.790267 628.64821,-155.913267 C632.792315,-156.557879 636.906688,-155.933767 640.389841,-155.052266 C641.44645,-154.890544 642.507634,-154.726544 643.561956,-154.562544 C645.686611,-153.651432 650.576289,-149.428429 651.552852,-147.319205 C652.165777,-145.991259 652.650628,-142.825146 653.668358,-142.039312 C653.988543,-141.877589 654.311015,-141.713589 654.631199,-141.549589 C654.663218,-141.344589 654.695236,-141.141867 654.727255,-140.934589 C654.40707,-140.690866 654.084598,-140.442588 653.764414,-140.198866 C653.565442,-138.17392 654.567162,-134.691195 654.436802,-132.342804 C653.954237,-123.584742 654.022848,-115.904069 655.207532,-106.806618 C655.552874,-104.17806 655.260134,-99.6635013 655.015421,-97.8412776 C655.1778,-90.5204942 655.337893,-83.1905997 655.495698,-75.8698162 C655.433948,-65.4330304 655.369911,-54.9962446 655.303587,-44.5640143 C654.987977,-42.6666239 655.118338,-41.1655672 654.82331,-39.4048436 C654.692949,-38.6303986 654.066302,-37.5643978 654.244691,-36.4619525 C654.642635,-34.0042284 655.07031,-31.0248927 655.399643,-28.3553351 C655.834179,-24.8634991 655.294439,-21.0186072 655.690096,-17.187382 C655.591754,-15.3856584 655.495698,-13.5839348 655.399643,-11.7822112 C655.831892,-7.51137457 655.294439,-3.19042679 655.690096,0.987020876 C655.754133,2.7431889 655.81817,4.50391248 655.882207,6.26463606 C655.27843,11.544529 656.451678,17.0430888 655.690096,22.7170376 C655.090893,27.1678189 654.887347,32.8372121 655.591754,36.7094373 C655.530004,38.3494386 655.465967,39.9848843 655.399643,41.6226078 C655.228115,44.1372764 655.653503,47.2008899 655.882207,49.6016695 C656.190956,52.8156164 655.772429,56.3416192 655.399643,58.6877321 C655.465967,60.0361776 655.530004,61.3846231 655.591754,62.7399019 C655.495698,64.3343476 655.399643,65.931071 655.303587,67.5255167 C655.790725,73.4955768 655.23955,80.716138 655.690096,86.4310868 C655.754133,89.2942557 655.81817,92.1619801 655.882207,95.0274268 C655.701531,98.6422629 655.790725,104.566767 655.882207,108.161104 C656.012568,113.372663 655.637494,117.233499 655.882207,121.666058 C656.051447,124.745616 655.63292,128.638342 655.303587,131.364844 C655.399643,133.982012 655.495698,136.603737 655.591754,139.220905 C655.433948,142.371074 655.273856,145.523521 655.111476,148.67369 C655.006273,149.630358 655.470541,150.320525 655.591754,150.883137 C655.626059,152.359138 655.658078,153.830583 655.690096,155.308862 C655.591754,157.964753 655.495698,160.627477 655.399643,163.285646 C655.683235,171.531208 655.417939,180.036437 654.631199,187.717109 C654.155496,192.359224 654.994838,196.992228 655.591754,200.730064 L655.591754,208.094125 C655.530004,209.119126 655.465967,210.141849 655.399643,211.164572 C655.109189,213.993574 655.740411,216.922799 655.495698,219.268912 C655.166365,222.487414 654.768421,226.304973 655.111476,229.824142 C655.241837,232.281866 655.369911,234.737312 655.495698,237.195037 C655.465967,240.509206 655.433948,243.823375 655.399643,247.137544 C656.092614,252.492604 656.090327,261.414666 655.495698,265.794836 C655.626059,269.314006 655.754133,272.837731 655.882207,276.354622 C656.186382,278.830569 655.953105,283.761961 655.591754,285.563685 C655.722114,289.490577 655.850188,293.419747 655.978262,297.351194 C655.882207,300.175641 655.786151,302.993254 655.690096,305.819978 C655.850188,310.646593 656.010281,315.477764 656.170373,320.304378 C656.106336,322.964825 656.042299,325.627549 655.978262,328.285718 C656.513428,333.005277 654.962819,338.125726 656.074318,341.421673 C655.914225,341.669951 655.754133,341.913673 655.591754,342.159673 C656.140642,344.526286 655.813596,347.7744 655.978262,350.264013 C656.360197,356.047295 656.261854,361.773633 656.362484,368.31086 C656.421947,372.101085 656.058308,374.577031 656.458539,377.761367 L656.458539,384.143706 C656.362484,387.091152 656.266428,390.038599 656.170373,392.986046 C656.710113,396.983549 656.353336,401.766886 656.65065,406.734723 C656.5889,407.677724 656.522576,408.620724 656.458539,409.55917 C656.957113,413.014561 656.845048,416.946009 656.845048,420.854678 C656.810742,429.164018 656.781011,437.47108 656.746706,445.773586 C656.845048,457.071373 656.941103,468.366882 657.037159,479.660113 C656.973122,484.286283 656.906798,488.912453 656.845048,493.53179 C657.414519,498.212627 657.149223,503.806853 657.133214,508.510468 L657.133214,516.368808 L657.133214,524.468592 C657.192677,524.75787 657.567751,524.653092 657.517436,525.20887 C656.874779,532.764265 656.945677,543.048439 657.325325,550.132334 C657.574612,554.799504 657.080612,561.673843 657.517436,565.967457 C657.517436,565.967457 657.037159,568.17007 657.037159,568.912626 C657.133214,573.948796 657.22927,578.982689 657.325325,584.014304 L657.325325,591.622088 C657.551741,592.647089 657.773584,593.669812 658,594.692535 L658,594.94309 C657.76901,595.69248 657.31389,595.612758 657.325325,597.152537 C657.293307,601.530429 657.261288,605.910599 657.22927,610.286213 C657.293307,611.839659 657.359631,613.39766 657.42138,614.951106 C657.117205,620.962166 657.849056,626.85706 657.22927,632.141508 C657.197251,633.938676 657.165233,635.7404 657.133214,637.542123 C656.344188,642.316349 656.115484,645.416407 654.340746,648.958354 C653.924506,649.778355 653.508266,650.598356 653.089739,651.413801 C646.541961,657.413472 630.178235,653.495691 620.371435,654.97397 L613.251899,654.97397 C610.118663,655.559359 607.287315,654.716581 604.49256,655.217693 C602.608044,655.561637 600.446798,654.964859 597.949357,655.217693 C590.891571,655.38397 583.833785,655.550248 576.775999,655.714248 L564.169869,655.714248 L542.324124,655.714248 L536.83753,655.714248 C532.542481,655.834971 528.242857,655.957971 523.945521,656.078693 C522.660208,656.039971 521.377182,655.996693 520.094156,655.957971 C515.154164,655.996693 510.214171,656.039971 505.274178,656.078693 C504.439411,655.996693 503.604643,655.916971 502.772163,655.834971 C498.1798,656.365693 493.296983,655.543415 488.624573,656.447694 C487.792093,656.324693 486.957325,656.203971 486.124845,656.078693 C482.977887,656.60486 479.348364,655.789415 476.212841,656.203971 C472.292865,656.716471 466.072134,656.914638 462.737639,656.203971 C459.627273,656.283693 456.51462,656.365693 453.404254,656.447694 L447.919947,656.447694 C443.554,656.572971 439.192627,656.695971 434.831254,656.816694 C430.53163,657.281361 424.814046,656.039971 420.39321,656.572971 C415.245097,657.19025 409.593837,656.23586 404.324512,656.939694 C403.009467,656.900972 401.694423,656.857694 400.377091,656.816694 C396.082042,656.939694 391.782419,657.062694 387.482796,657.185694 C385.653169,657.144694 383.825829,657.101416 381.996202,657.062694 C376.19171,657.101416 370.382645,657.144694 364.578153,657.185694 L355.242482,657.185694 C350.670701,657.730083 345.170385,658.001139 340.616901,657.306416 C339.139478,657.388416 337.666628,657.472694 336.189204,657.552417 L328.68316,657.552417 C327.109681,657.472694 325.538488,657.388416 323.967296,657.306416 C319.052461,657.629861 314.688801,657.618472 309.918048,657.306416 C307.640163,657.388416 305.362277,657.472694 303.082105,657.552417 C301.426292,657.315528 299.909989,657.730083 298.368528,657.429416 C297.309632,657.265416 296.250735,657.101416 295.191839,656.939694 C293.277591,657.078638 290.851049,657.923695 288.744691,657.429416 C286.363889,656.878194 281.872154,656.70736 278.832687,657.306416 C276.332959,657.80525 272.790344,657.782472 270.17169,657.429416 L263.818311,657.429416 C259.717659,656.611694 255.66961,658.379251 252.273365,657.923695 C248.330518,657.388416 244.051478,656.427193 240.243567,656.078693 C238.670088,656.160693 237.098896,656.240416 235.525417,656.324693 C231.132025,655.456859 223.262342,655.92836 218.878099,656.695971 C216.600213,656.654971 214.322328,656.613971 212.046729,656.572971 C204.094713,656.572971 197.032353,655.869138 189.91053,655.588971 C189.944836,655.470526 189.974567,655.34297 190.008873,655.217693 C191.852222,654.513859 192.597795,652.390968 192.606943,649.329632 C192.414832,649.409355 192.222721,649.493633 192.03061,649.575633 C192.09236,649.981077 192.156397,650.391078 192.222721,650.801078 C192.13124,651.242967 190.745297,653.34308 190.393094,654.115247 C187.083757,654.97397 188.179246,652.557246 186.157508,652.272524 C186.33361,653.67108 187.113488,654.238247 187.216405,655.217693 C184.009983,655.194915 180.295841,654.281525 177.976788,653.010524 C176.716633,652.318079 174.749784,652.99458 173.647434,652.156357 C173.51936,651.867079 173.391286,651.580079 173.263212,651.295356 C172.897287,651.58919 172.824102,651.652968 172.300371,651.539079 C172.076242,651.131356 171.852112,650.719078 171.627983,650.311355 C171.241474,650.555078 170.857253,650.801078 170.473031,651.0448 C170.312939,650.924078 170.150559,650.801078 169.990467,650.678078 C169.901273,649.026688 169.672569,647.395798 168.93157,646.136186 C170.633123,642.330016 170.344957,639.065958 171.145419,634.473954 C171.509057,632.389786 170.818373,628.519839 172.012205,627.474338 C171.42215,626.387837 171.584529,622.757056 171.916149,621.704722 C171.884131,621.666 171.852112,621.622722 171.820094,621.584 C171.660001,621.704722 171.497622,621.827722 171.33753,621.950722 L171.33753,621.584 C171.593677,621.064666 171.703455,620.515721 171.820094,619.738999 C172.206603,619.670665 172.10826,619.745832 172.300371,619.495276 C172.471898,618.48622 171.403854,616.83483 171.529641,615.566106 C171.689733,615.238106 171.852112,614.910106 172.012205,614.584383 C172.373556,612.390882 171.973325,608.748712 171.820094,606.113321" id="Fill-4" transform="translate(411.000000, 248.000000) rotate(-270.000000) translate(-411.000000, -248.000000) "></path>
                    <path d="M966.304264,606.113321 C966.68999,606.065488 966.678578,606.072321 966.879429,605.867321 C965.306853,603.655597 967.002679,600.393817 966.112542,597.762982 C966.491421,597.348426 966.772156,596.546647 967.073434,596.047814 C966.591847,595.211868 966.493703,594.485257 966.400125,593.344089 C966.527939,593.262089 966.655754,593.180089 966.783569,593.100367 C966.626083,592.444366 966.464032,591.792921 966.304264,591.132365 C966.495986,591.216643 966.687708,591.298643 966.879429,591.378366 C966.037222,588.879641 967.084846,585.216972 966.783569,583.155581 C965.961903,577.488466 966.543916,570.513905 965.918537,564.493734 C965.713121,562.505232 966.468597,559.917675 966.112542,557.619395 C965.79757,555.596727 965.694862,550.706334 966.304264,548.16661 C966.557611,547.102887 965.907125,542.449383 965.918537,541.410716 C965.941361,539.727437 966.331653,538.139824 965.918537,536.502101 C965.754204,535.843823 966.493703,534.775544 966.400125,534.046655 C965.836371,529.689262 966.441208,524.555147 966.014398,519.316254 C965.902561,517.938198 966.406972,514.398528 965.918537,513.667361 C966.048634,512.76536 966.174167,511.870193 966.304264,510.965915 C966.247204,510.385081 965.872889,510.453414 965.726815,510.107192 C965.676603,509.986469 966.208403,506.515133 966.112542,505.567577 C965.67432,501.264851 966.251768,496.843681 966.208403,493.411068 C966.014398,492.634345 965.822676,491.857622 965.630954,491.078621 C965.464339,489.839509 965.868324,488.84412 966.014398,488.133452 C965.952773,487.229174 965.886584,486.334007 965.822676,485.432006 C965.765616,484.671228 965.770181,483.163338 966.112542,482.607559 C965.688015,481.445892 965.74051,479.664668 965.918537,478.065667 C966.489138,478.136278 966.555328,478.2365 966.879429,477.819667 L966.879429,477.694389 C966.162755,477.503055 965.955056,477.268444 965.630954,476.589666 C966.130801,474.822109 965.480316,472.460051 965.343372,471.06605 C965.236099,469.974994 965.491728,467.378325 965.630954,466.524158 C965.535093,465.501435 965.439233,464.478712 965.343372,463.455989 C965.400432,460.67482 965.459774,456.670484 965.630954,454.369926 C964.97134,454.39726 964.679192,454.347149 964.47834,453.757204 C964.97134,453.702537 965.183603,453.595481 965.439233,453.262926 C965.053506,452.463425 965.149367,450.998813 965.439233,450.076312 C965.407279,449.992034 965.375325,449.910034 965.343372,449.828034 C965.247511,449.910034 965.15165,449.992034 965.055789,450.076312 C964.800159,450.768757 964.542248,451.465758 964.286618,452.158202 L964.094897,452.158202 L964.094897,451.547758 C965.594436,447.737032 965.010141,445.270197 965.343372,440.495971 C965.247511,440.454971 965.15165,440.413971 965.055789,440.375249 C964.800159,440.495971 964.542248,440.621249 964.286618,440.744249 L964.286618,440.621249 C964.318572,440.495971 964.350526,440.375249 964.382479,440.249971 C964.670062,439.965249 964.959928,439.678248 965.247511,439.38897 C965.557918,436.484801 965.541941,431.981631 964.765923,429.571741 C964.345961,429.421407 964.229558,429.321185 963.999036,428.95674 C964.083485,428.564962 964.674627,427.227905 964.765923,427.483017 C965.126543,425.685849 965.153932,423.182569 964.864067,421.469679 C964.959928,420.813678 965.055789,420.157678 965.15165,419.503955 C964.727122,416.492731 964.569637,412.549894 964.670062,409.55917 C964.800159,409.479447 964.925692,409.395169 965.055789,409.313169 C964.850372,408.996558 964.800159,409.058058 964.670062,408.575169 C964.950798,408.336002 964.948516,408.033057 965.15165,407.721002 C965.621825,408.814336 966.858888,408.661724 966.495986,410.538615 C966.991267,410.15367 966.888559,409.891725 967.361017,410.048892 C967.678271,410.538615 968.00009,411.035171 968.321909,411.524893 L969.282801,411.524893 L969.282801,411.155893 C968.840015,410.110392 967.792391,409.966892 967.361017,409.069447 L967.361017,407.349723 C967.080281,406.379389 965.843218,405.889667 965.247511,405.632278 C965.514552,405.096999 965.544223,404.86011 965.343372,404.156277 L964.959928,404.156277 C964.765923,404.406832 964.574201,404.650555 964.382479,404.896555 C964.286618,404.814555 964.190758,404.732555 964.094897,404.650555 L964.094897,404.035554 C964.457799,403.570887 964.631261,403.500276 964.864067,402.807831 C964.800159,402.725831 964.73397,402.643831 964.670062,402.561831 L964.574201,402.561831 C964.416716,403.005998 964.546813,402.851109 964.190758,403.051553 C964.12685,402.605109 964.062943,402.151831 963.999036,401.70083 L963.999036,401.582386 C964.615285,401.559608 964.565072,401.441163 965.15165,401.213385 C965.083177,402.38872 965.240663,403.75311 965.822676,404.406832 C966.174167,404.074276 966.527939,403.748554 966.879429,403.420554 L966.879429,403.051553 C966.345347,402.730387 966.153625,402.648386 965.822676,402.072108 C966.048634,401.500386 966.27231,400.924107 966.495986,400.352385 C966.559893,400.393385 966.626083,400.434385 966.687708,400.475385 C966.854323,401.10633 967.342758,401.450274 967.840322,401.213385 C968.280826,401.069885 968.340168,400.917274 968.609492,400.596107 L968.609492,400.475385 C968.011502,399.915051 966.797263,399.514162 966.112542,399.493662 C965.961903,398.912828 965.804417,398.880939 965.630954,398.386661 C965.726815,398.101939 965.822676,397.812661 965.918537,397.52566 C965.471186,397.812661 965.021553,398.101939 964.574201,398.386661 C964.512576,398.673661 964.446387,398.958384 964.382479,399.247662 C964.813854,399.637162 964.866349,399.757884 964.670062,400.352385 C964.382479,400.475385 964.094897,400.596107 963.807314,400.721385 C963.77536,400.639385 963.743406,400.557385 963.70917,400.475385 C963.839267,400.024384 963.9648,399.573384 964.094897,399.126939 C963.77536,399.083662 963.453541,399.040384 963.134004,399.001661 C963.200194,398.876384 963.264101,398.755661 963.325726,398.632661 C964.407586,397.748883 963.467235,396.122548 963.325726,394.580491 C963.649828,394.190991 963.670369,394.231991 963.613309,393.598768 C963.9648,393.557768 964.318572,393.516768 964.670062,393.475768 L964.670062,393.724046 C964.89602,394.539491 965.117414,395.359492 965.343372,396.179493 L965.343372,395.933492 C965.735945,395.295714 965.640084,394.377769 965.726815,393.598768 C965.886584,393.557768 966.048634,393.516768 966.208403,393.475768 C966.375018,393.810602 966.548481,394.799158 966.687708,395.318492 C967.361017,395.555381 967.808368,395.91527 968.321909,395.19777 C968.226048,395.033769 968.127904,394.865214 968.034326,394.701214 C967.018656,394.544047 966.379583,393.603324 966.014398,392.619323 C966.299699,392.011156 966.397842,391.778823 966.304264,390.897322 L966.208403,390.897322 C966.048634,390.979322 965.886584,391.0636 965.726815,391.143322 C965.665191,391.512322 965.599001,391.8836 965.535093,392.248045 C964.822983,392.097712 964.729405,392.30499 963.903175,392.248045 C963.706888,391.521433 963.428435,391.430322 963.325726,390.528322 C963.026731,389.98621 963.633851,390.02721 963.807314,390.038599 C963.569944,389.421321 963.296055,389.357543 963.134004,388.690153 C963.302902,388.168542 963.298338,388.063764 963.70917,387.829153 C963.421587,387.091152 963.134004,386.357707 962.846422,385.619707 C963.134004,385.537707 963.421587,385.457984 963.70917,385.373706 C963.549402,384.69265 963.264101,384.581039 962.846422,384.268983 C963.049555,382.430815 962.793926,381.435426 962.460695,379.973091 C962.526885,378.827368 962.590792,377.679367 962.652417,376.535922 C962.837292,374.813921 962.4082,369.438361 961.885529,368.675305 C962.04758,368.513582 962.205066,368.35186 962.364834,368.18786 C961.27841,366.55697 962.451566,363.864634 962.173112,361.928522 C962.011062,360.79191 961.94259,359.744131 962.268973,358.858075 C961.600229,356.359351 961.303516,352.935848 961.597946,349.769735 C961.661854,349.687734 961.725761,349.605734 961.789668,349.523734 C963.314314,350.655791 963.218453,347.977122 963.229865,346.699288 C962.974236,346.742566 962.718607,346.781288 962.460695,346.824566 C962.431024,346.908843 962.39907,346.988566 962.364834,347.070566 C962.205066,347.920178 962.357987,348.248178 962.364834,348.911012 C962.143441,349.034012 961.917483,349.15929 961.693807,349.280012 C961.677831,347.494233 961.483826,345.90662 960.924637,344.98412 C960.477286,344.243841 960.954309,336.754502 960.061889,334.672612 C959.765176,333.982445 960.43392,329.636441 960.253611,328.902996 C960.125796,328.734441 959.995699,328.57044 959.870167,328.408718 L959.870167,327.795995 C959.963745,327.445217 960.397402,327.351828 960.253611,326.565994 C959.97744,325.069493 959.712681,322.31338 959.966028,321.042379 C959.870167,319.732656 959.774306,318.42521 959.678445,317.117765 C959.555195,315.562041 960.01624,313.641873 960.253611,312.081594 C960.700962,309.127314 959.267612,307.908702 960.637054,305.204978 C960.650749,305.179922 959.776588,300.066307 959.870167,299.435362 C960.191986,297.230472 960.438485,294.043858 960.637054,292.192023 C960.703244,291.597523 960.265023,291.656745 960.15775,291.331023 C959.72181,290.0418 960.351754,288.891521 960.541193,288.016854 C960.317518,286.953131 960.09156,285.889407 959.870167,284.827962 C960.01624,284.226628 960.516087,283.595683 960.637054,282.739238 C960.207962,282.28596 959.966028,280.454625 960.061889,279.425069 C960.726068,278.894347 960.714656,277.857957 961.116359,277.338623 C959.792565,274.928732 960.74661,274.782954 961.116359,272.673731 C961.292104,271.687452 960.641619,272.129341 961.21222,271.325285 C960.894966,270.464284 960.573147,269.603284 960.253611,268.744561 C960.584559,267.849394 961.038758,267.623893 961.116359,266.412115 C960.762587,265.446336 960.484133,265.268669 960.445332,264.081946 C960.732915,263.628668 961.020498,263.177668 961.308081,262.731223 C961.271563,261.184611 960.518369,260.683499 960.637054,259.291776 C960.924637,258.471775 961.21222,257.654052 961.502086,256.836329 C960.970285,256.132496 960.637054,255.424106 960.349471,254.383161 C960.669008,253.60416 960.990827,252.82516 961.308081,252.046159 C960.440768,251.738659 960.217092,251.285381 959.774306,250.451713 L959.774306,250.328713 C961.755432,247.909711 960.684985,244.315375 959.005135,242.347374 C959.329237,239.901039 960.066453,237.507092 961.693807,236.08348 L961.693807,235.965036 C960.719221,235.705369 960.194268,235.662091 959.48444,234.981035 C959.452487,233.992479 959.552912,233.259034 960.253611,232.894589 C960.064171,232.167977 959.657903,231.220421 959.390862,230.44142 C961.235044,226.295861 959.386297,220.904357 960.828776,216.567465 C960.228504,216.303243 959.938639,215.75202 959.774306,214.973019 C959.966028,214.235019 960.15775,213.497018 960.349471,212.759018 C960.221657,209.362848 960.09156,205.966679 959.966028,202.572788 C960.267305,201.443009 960.958873,200.347397 960.637054,199.502341 C959.151209,198.782562 959.708116,195.044726 959.48444,193.117725 C959.85419,192.751002 961.171137,190.404889 961.020498,189.680555 C960.922355,189.199944 960.102972,188.739832 960.15775,187.837832 C960.317518,186.694386 960.477286,185.546386 960.637054,184.40294 C960.413379,183.62394 960.189703,182.844939 959.966028,182.070494 C960.198833,175.453544 959.838213,168.61565 959.678445,162.670646 C959.566607,158.545587 958.893298,153.586861 960.061889,150.149692 C959.014265,149.27958 960.372296,147.619079 960.15775,146.587244 C960.059606,146.115744 959.498135,145.794577 959.390862,145.115799 C959.174033,143.78102 959.865602,143.275353 959.870167,142.412074 C959.881579,140.243628 958.30672,137.236959 958.909275,133.695012 C959.13295,132.469567 959.356626,131.241844 959.582584,130.016398 C959.712681,128.15773 959.107844,126.189729 959.48444,123.877782 C959.582584,122.973504 959.678445,122.076059 959.774306,121.176336 C958.35465,113.604997 960.335777,104.138545 959.196857,95.1481491 L959.196857,89.0095333 C958.518983,84.1100295 958.78146,78.638803 958.813414,72.8054096 C958.938946,71.6596865 959.069043,70.5139634 959.196857,69.3682403 C959.005135,68.8352399 958.813414,68.3022395 958.621692,67.7692391 C958.651363,66.5005159 958.683317,65.2340705 958.717553,63.9653473 C958.176623,59.2867881 958.788307,54.7950069 959.005135,50.8293927 C959.050784,49.9501698 958.589738,49.1438358 958.525831,48.4969464 C958.455076,47.8250015 959.064478,42.8343865 959.196857,42.2330527 C959.395427,41.331052 959.114691,39.8960509 959.005135,39.1648837 C959.069043,36.5909928 959.13295,34.0125464 959.196857,31.4318222 C959.356626,27.0539299 959.516394,22.6737598 959.678445,18.2958676 C960.134926,15.3620875 960.417944,12.1048628 960.637054,8.96380481 C960.50924,8.47635999 960.381425,7.98435961 960.253611,7.49463701 C960.210245,7.00719219 960.732915,3.07118915 960.732915,3.07118915 C960.340342,2.91857792 960.456744,3.17368923 960.253611,2.70218887 C959.297283,0.367464842 960.924637,-1.75542569 960.732915,-4.41814996 C960.637054,-5.72559542 960.961156,-7.31776331 961.21222,-8.71176439 C961.353729,-9.49076499 961.077558,-10.7526549 961.21222,-11.7822112 C961.645877,-15.0371582 962.730019,-19.7817729 962.460695,-23.5697203 C962.730019,-23.8635539 962.894352,-23.934165 963.038143,-24.4284432 C962.647852,-24.6174989 962.700348,-24.5172766 962.556556,-25.0411659 C963.355398,-25.9750555 962.880658,-29.3051692 962.652417,-30.6900591 C963.00619,-31.1501706 963.282361,-31.2686151 963.807314,-31.5510598 C963.77536,-31.6307821 963.743406,-31.7127821 963.70917,-31.7947822 L962.748278,-31.7947822 C962.656982,-32.2025047 962.590792,-32.1797269 962.652417,-32.530505 C962.262126,-34.3140064 962.700348,-37.1202308 963.134004,-38.7921209 C961.947154,-39.6326216 963.478647,-43.8077915 962.846422,-44.6824588 C962.574815,-45.971682 963.12031,-48.3132394 962.846422,-49.2289068 C962.405918,-50.6889635 961.860423,-55.8025785 962.077251,-56.841246 C962.52232,-58.9459143 962.94913,-63.009473 962.460695,-64.94103 C962.205066,-65.963753 962.609051,-74.5919819 962.652417,-74.6420931 C961.282975,-77.5963731 963.076944,-83.5914889 962.268973,-88.3930481 C961.463285,-93.1968852 962.597639,-99.4106677 962.077251,-104.720172 C961.604794,-109.53312 962.205066,-114.216235 961.885529,-118.097571 C961.757715,-119.45285 961.6299,-120.801295 961.502086,-122.152019 C961.58197,-122.707797 961.94259,-124.659854 961.597946,-125.837466 C961.50665,-126.142688 961.209938,-126.008299 961.21222,-126.570911 C961.219067,-127.712078 961.906071,-128.071968 961.98139,-128.782635 C961.597946,-129.151635 961.21222,-129.51608 960.828776,-129.887358 C961.020498,-131.226692 960.185138,-132.837082 960.445332,-134.431528 C960.545758,-135.046529 961.070711,-135.026029 961.21222,-135.410973 C961.645877,-136.568085 960.990827,-138.228587 961.403942,-139.340143 C961.853576,-139.832143 962.303209,-140.319588 962.748278,-140.813866 C962.814468,-142.244312 962.878375,-143.679313 962.942282,-145.109759 C963.624721,-148.373817 965.96875,-151.699375 967.840322,-153.583098 C970.757234,-156.519156 978.855204,-154.842711 983.495331,-155.298266 C989.657822,-155.904156 996.422868,-155.421267 1002.51004,-156.651267 C1005.45434,-156.692268 1008.40092,-156.735545 1011.34523,-156.77199 C1014.37398,-157.371046 1017.74965,-157.261712 1021.1413,-157.261712 L1024.2157,-157.261712 C1024.16092,-155.090988 1022.89647,-153.667376 1023.7364,-152.107097 L1023.83226,-152.107097 C1024.16549,-154.02271 1024.55578,-155.564767 1024.88901,-157.261712 C1036.47678,-157.46899 1048.06682,-157.676268 1059.65459,-157.876713 C1064.71011,-158.024769 1070.94336,-158.544102 1075.88705,-158.247991 C1078.22195,-158.163713 1080.55913,-158.081713 1082.89631,-158.001991 C1087.37895,-158.204713 1091.86159,-158.409713 1096.34423,-158.616991 C1098.64718,-158.530436 1100.95241,-158.448436 1103.25764,-158.366435 C1105.56286,-158.491713 1107.86581,-158.616991 1110.17104,-158.737714 C1112.98753,-158.216102 1116.90185,-158.277602 1119.67953,-158.860714 C1127.4283,-158.901714 1135.17477,-158.942714 1142.92125,-158.983714 C1170.41966,-159.514436 1197.92263,-160.049715 1225.41875,-160.575882 C1238.35313,-160.94716 1251.28752,-161.31616 1264.21962,-161.680605 L1274.0157,-161.680605 C1277.18596,-161.72616 1280.35621,-161.76716 1283.52419,-161.805883 C1290.71148,-161.80816 1297.87367,-161.512049 1305.70916,-161.680605 L1328.37571,-161.680605 C1331.73541,-161.76716 1335.09968,-161.846883 1338.46166,-161.93116 C1343.57424,-161.93116 1349.3784,-162.086049 1353.73094,-161.93116 C1359.20186,-161.730716 1364.64083,-162.379883 1369.96112,-161.31616 C1372.04495,-160.901604 1374.47571,-161.669216 1376.49336,-161.19316 C1377.83769,-160.86516 1379.17975,-160.537159 1380.52408,-160.211437 C1382.35,-159.307158 1384.17593,-158.409713 1385.99957,-157.505435 C1389.16298,-156.781101 1391.91784,-157.594268 1394.9329,-157.38699 C1402.74328,-156.844879 1411.56478,-157.12049 1418.2682,-155.546544 C1419.58286,-155.669544 1420.89524,-155.790267 1422.20763,-155.913267 C1426.34334,-156.557879 1430.44939,-155.933767 1433.92549,-155.052266 C1434.97996,-154.890544 1436.03899,-154.726544 1437.09118,-154.562544 C1439.21154,-153.651432 1444.09132,-149.428429 1445.0659,-147.319205 C1445.67759,-145.991259 1446.16146,-142.825146 1447.17713,-142.039312 C1447.49666,-141.877589 1447.81848,-141.713589 1448.13802,-141.549589 C1448.16997,-141.344589 1448.20193,-141.141867 1448.23388,-140.934589 C1447.91434,-140.690866 1447.59252,-140.442588 1447.27299,-140.198866 C1447.07442,-138.17392 1448.07411,-134.691195 1447.94401,-132.342804 C1447.46243,-123.584742 1447.5309,-115.904069 1448.71318,-106.806618 C1449.05783,-104.17806 1448.76568,-99.6635013 1448.52146,-97.8412776 C1448.68351,-90.5204942 1448.84328,-83.1905997 1449.00077,-75.8698162 C1448.93914,-65.4330304 1448.87524,-54.9962446 1448.80905,-44.5640143 C1448.49407,-42.6666239 1448.62417,-41.1655672 1448.32974,-39.4048436 C1448.19964,-38.6303986 1447.57427,-37.5643978 1447.75229,-36.4619525 C1448.14943,-34.0042284 1448.57624,-31.0248927 1448.90491,-28.3553351 C1449.33856,-24.8634991 1448.79992,-21.0186072 1449.19477,-17.187382 C1449.09663,-15.3856584 1449.00077,-13.5839348 1448.90491,-11.7822112 C1449.33628,-7.51137457 1448.79992,-3.19042679 1449.19477,0.987020876 C1449.25868,2.7431889 1449.32259,4.50391248 1449.38649,6.26463606 C1448.78394,11.544529 1449.95481,17.0430888 1449.19477,22.7170376 C1448.59678,27.1678189 1448.39365,32.8372121 1449.09663,36.7094373 C1449.035,38.3494386 1448.9711,39.9848843 1448.90491,41.6226078 C1448.73373,44.1372764 1449.15825,47.2008899 1449.38649,49.6016695 C1449.69462,52.8156164 1449.27694,56.3416192 1448.90491,58.6877321 C1448.9711,60.0361776 1449.035,61.3846231 1449.09663,62.7399019 C1449.00077,64.3343476 1448.90491,65.931071 1448.80905,67.5255167 C1449.2952,73.4955768 1448.74514,80.716138 1449.19477,86.4310868 C1449.25868,89.2942557 1449.32259,92.1619801 1449.38649,95.0274268 C1449.20618,98.6422629 1449.2952,104.566767 1449.38649,108.161104 C1449.51659,113.372663 1449.14228,117.233499 1449.38649,121.666058 C1449.55539,124.745616 1449.13771,128.638342 1448.80905,131.364844 C1448.90491,133.982012 1449.00077,136.603737 1449.09663,139.220905 C1448.93914,142.371074 1448.77937,145.523521 1448.61732,148.67369 C1448.51233,149.630358 1448.97566,150.320525 1449.09663,150.883137 C1449.13086,152.359138 1449.16282,153.830583 1449.19477,155.308862 C1449.09663,157.964753 1449.00077,160.627477 1448.90491,163.285646 C1449.18792,171.531208 1448.92317,180.036437 1448.13802,187.717109 C1447.66328,192.359224 1448.50092,196.992228 1449.09663,200.730064 L1449.09663,208.094125 C1449.035,209.119126 1448.9711,210.141849 1448.90491,211.164572 C1448.61504,213.993574 1449.24498,216.922799 1449.00077,219.268912 C1448.6721,222.487414 1448.27496,226.304973 1448.61732,229.824142 C1448.74742,232.281866 1448.87524,234.737312 1449.00077,237.195037 C1448.9711,240.509206 1448.93914,243.823375 1448.90491,247.137544 C1449.59648,252.492604 1449.59419,261.414666 1449.00077,265.794836 C1449.13086,269.314006 1449.25868,272.837731 1449.38649,276.354622 C1449.69005,278.830569 1449.45725,283.761961 1449.09663,285.563685 C1449.22673,289.490577 1449.35454,293.419747 1449.48235,297.351194 C1449.38649,300.175641 1449.29063,302.993254 1449.19477,305.819978 C1449.35454,310.646593 1449.51431,315.477764 1449.67408,320.304378 C1449.61017,322.964825 1449.54626,325.627549 1449.48235,328.285718 C1450.01644,333.005277 1448.46897,338.125726 1449.57822,341.421673 C1449.41845,341.669951 1449.25868,341.913673 1449.09663,342.159673 C1449.64441,344.526286 1449.31802,347.7744 1449.48235,350.264013 C1449.86352,356.047295 1449.76537,361.773633 1449.8658,368.31086 C1449.92514,372.101085 1449.56224,374.577031 1449.96166,377.761367 L1449.96166,384.143706 C1449.8658,387.091152 1449.76994,390.038599 1449.67408,392.986046 C1450.21272,396.983549 1449.85667,401.766886 1450.15338,406.734723 C1450.09176,407.677724 1450.02557,408.620724 1449.96166,409.55917 C1450.45922,413.014561 1450.34739,416.946009 1450.34739,420.854678 C1450.31315,429.164018 1450.28348,437.47108 1450.24924,445.773586 C1450.34739,457.071373 1450.44325,468.366882 1450.53911,479.660113 C1450.4752,484.286283 1450.40901,488.912453 1450.34739,493.53179 C1450.9157,498.212627 1450.65095,503.806853 1450.63497,508.510468 L1450.63497,516.368808 L1450.63497,524.468592 C1450.69431,524.75787 1451.06863,524.653092 1451.01841,525.20887 C1450.37706,532.764265 1450.44781,543.048439 1450.82669,550.132334 C1451.07547,554.799504 1450.58247,561.673843 1451.01841,565.967457 C1451.01841,565.967457 1450.53911,568.17007 1450.53911,568.912626 C1450.63497,573.948796 1450.73083,578.982689 1450.82669,584.014304 L1450.82669,591.622088 C1451.05265,592.647089 1451.27404,593.669812 1451.5,594.692535 L1451.5,594.94309 C1451.26948,595.69248 1450.81528,595.612758 1450.82669,597.152537 C1450.79474,601.530429 1450.76278,605.910599 1450.73083,610.286213 C1450.79474,611.839659 1450.86093,613.39766 1450.92255,614.951106 C1450.61899,620.962166 1451.34936,626.85706 1450.73083,632.141508 C1450.69888,633.938676 1450.66692,635.7404 1450.63497,637.542123 C1449.84754,642.316349 1449.6193,645.416407 1447.84815,648.958354 C1447.43276,649.778355 1447.01736,650.598356 1446.59968,651.413801 C1440.06516,657.413472 1423.73455,653.495691 1413.94761,654.97397 L1406.84248,654.97397 C1403.71559,655.559359 1400.88997,654.716581 1398.10087,655.217693 C1396.22017,655.561637 1394.0633,654.964859 1391.57092,655.217693 C1384.52742,655.38397 1377.48392,655.550248 1370.44042,655.714248 L1357.85981,655.714248 L1336.05829,655.714248 L1330.5828,655.714248 C1326.29644,655.834971 1322.00552,655.957971 1317.71689,656.078693 C1316.43418,656.039971 1315.15375,655.996693 1313.87332,655.957971 C1308.94333,655.996693 1304.01333,656.039971 1299.08334,656.078693 C1298.25026,655.996693 1297.41718,655.916971 1296.58639,655.834971 C1292.00332,656.365693 1287.13039,655.543415 1282.46744,656.447694 C1281.63664,656.324693 1280.80357,656.203971 1279.97277,656.078693 C1276.83218,656.60486 1273.21001,655.789415 1270.08083,656.203971 C1266.16879,656.716471 1259.96065,656.914638 1256.63291,656.203971 C1253.52884,656.283693 1250.42249,656.365693 1247.31842,656.447694 L1241.84521,656.447694 C1237.4881,656.572971 1233.13556,656.695971 1228.78301,656.816694 C1224.49209,657.281361 1218.78608,656.039971 1214.3742,656.572971 C1209.2365,657.19025 1203.59668,656.23586 1198.33802,656.939694 C1197.02564,656.900972 1195.71326,656.857694 1194.3986,656.816694 C1190.11224,656.939694 1185.82132,657.062694 1181.5304,657.185694 C1179.70448,657.144694 1177.88084,657.101416 1176.05491,657.062694 C1170.26217,657.101416 1164.46487,657.144694 1158.67212,657.185694 L1149.35535,657.185694 C1144.79283,657.730083 1139.30364,658.001139 1134.75938,657.306416 C1133.28494,657.388416 1131.81508,657.472694 1130.34064,657.552417 L1122.84979,657.552417 C1121.2795,657.472694 1119.71149,657.388416 1118.14348,657.306416 C1113.23859,657.629861 1108.88376,657.618472 1104.12267,657.306416 C1101.84939,657.388416 1099.57612,657.472694 1097.30056,657.552417 C1095.6481,657.315528 1094.13487,657.730083 1092.59653,657.429416 C1091.53977,657.265416 1090.48302,657.101416 1089.42627,656.939694 C1087.5159,657.078638 1085.09427,657.923695 1082.99217,657.429416 C1080.61619,656.878194 1076.13355,656.70736 1073.10023,657.306416 C1070.60556,657.80525 1067.07012,657.782472 1064.45677,657.429416 L1058.11625,657.429416 C1054.0239,656.611694 1049.98404,658.379251 1046.59467,657.923695 C1042.65981,657.388416 1038.38943,656.427193 1034.58923,656.078693 C1033.01893,656.160693 1031.45092,656.240416 1029.88063,656.324693 C1025.49613,655.456859 1017.64238,655.92836 1013.26701,656.695971 C1010.99374,656.654971 1008.72046,656.613971 1006.44947,656.572971 C998.51355,656.572971 991.465486,655.869138 984.35808,655.588971 C984.392316,655.470526 984.421987,655.34297 984.456223,655.217693 C986.295841,654.513859 987.039904,652.390968 987.049034,649.329632 C986.857312,649.409355 986.66559,649.493633 986.473868,649.575633 C986.535493,649.981077 986.599401,650.391078 986.66559,650.801078 C986.574294,651.242967 985.191157,653.34308 984.839667,654.115247 C981.537028,654.97397 982.6303,652.557246 980.612655,652.272524 C980.7884,653.67108 981.5667,654.238247 981.669408,655.217693 C978.469477,655.194915 974.762853,654.281525 972.448495,653.010524 C971.190891,652.318079 969.228023,652.99458 968.127904,652.156357 C968.00009,651.867079 967.872275,651.580079 967.744461,651.295356 C967.379276,651.58919 967.306239,651.652968 966.783569,651.539079 C966.559893,651.131356 966.336217,650.719078 966.112542,650.311355 C965.726815,650.555078 965.343372,650.801078 964.959928,651.0448 C964.800159,650.924078 964.638109,650.801078 964.47834,650.678078 C964.389327,649.026688 964.161086,647.395798 963.421587,646.136186 C965.119696,642.330016 964.832113,639.065958 965.630954,634.473954 C965.993857,632.389786 965.304571,628.519839 966.495986,627.474338 C965.907125,626.387837 966.069176,622.757056 966.400125,621.704722 C966.368171,621.666 966.336217,621.622722 966.304264,621.584 C966.144495,621.704722 965.982445,621.827722 965.822676,621.950722 L965.822676,621.584 C966.078306,621.064666 966.187861,620.515721 966.304264,619.738999 C966.68999,619.670665 966.591847,619.745832 966.783569,619.495276 C966.954749,618.48622 965.888866,616.83483 966.014398,615.566106 C966.174167,615.238106 966.336217,614.910106 966.495986,614.584383 C966.856605,612.390882 966.457185,608.748712 966.304264,606.113321" id="Fill-4" transform="translate(1205.000000, 248.000000) scale(-1, 1) rotate(-270.000000) translate(-1205.000000, -248.000000) "></path>
                </g>
            </g>
        </g>
    </g>
</svg>