<?xml version="1.0" encoding="UTF-8" standalone="no"?>
<svg width="1600px" height="206px" viewBox="0 0 1600 206" version="1.1" xmlns="http://www.w3.org/2000/svg" xmlns:xlink="http://www.w3.org/1999/xlink" xmlns:sketch="http://www.bohemiancoding.com/sketch/ns">
    <!-- Generator: Sketch 3.2.2 (9983) - http://www.bohemiancoding.com/sketch -->
    <title>section-lightgrass-blades</title>
    <desc>Created with Sketch.</desc>
    <defs></defs>
    <g id="Design" stroke="none" stroke-width="1" fill="none" fill-rule="evenodd" sketch:type="MSPage">
        <g id="Style-Guide" sketch:type="MSArtboardGroup" transform="translate(0.000000, -2569.000000)" fill-opacity="0.5" fill="#D4E2D2">
            <g id="section-lightgrass-blades" sketch:type="MSLayerGroup" transform="translate(0.000000, 2569.000000)">
                <path d="M334.353423,-297 L503,-297 L503,503 L321.008766,503 C318.387448,497.717225 311.757283,495.090104 309.044501,490.809279 C308.225866,490.86116 307.665406,490.654285 307.433827,490.119263 C309.908544,489.813814 312.39299,491.433796 313.875874,492.879977 C318.556105,493.79373 321.42976,494.612151 327.220532,494.949377 C327.81602,493.92862 326.602988,494.023951 326.990899,493.569345 C327.879591,493.61474 328.685901,493.577775 329.291769,493.339123 C328.632061,491.926665 325.694835,491.571929 325.610506,490.349485 C327.851049,490.708111 330.855089,492.690611 332.282835,491.729517 C330.460691,490.100456 328.728714,488.382549 326.530335,487.128976 C327.412541,486.422098 329.116625,488.158812 331.362357,487.128976 C327.885429,485.161392 324.681596,482.920136 321.008766,481.148402 C322.910698,480.603004 324.793817,483.139333 326.760617,482.528435 C326.722994,481.646459 325.143456,482.305347 325.380225,481.148402 C325.781109,481.165912 326.095719,481.09717 326.300054,480.918181 C327.337294,481.656835 326.525146,482.829344 328.371291,482.758656 C325.652671,475.377946 316.088524,474.551094 311.575653,470.108141 C314.455146,471.477797 316.176096,472.818271 319.858007,473.558223 C319.852169,472.163274 319.856709,471.931756 319.628374,471.257303 C321.676907,471.739796 322.853614,473.093888 325.610506,472.868206 C325.384117,470.640569 322.963889,470.606846 321.929244,469.187903 C324.326767,468.890885 326.101558,469.383105 328.371291,468.957681 C328.670333,468.386343 327.696014,468.003072 328.371291,467.807222 C328.714443,467.683356 330.860927,467.388932 331.822272,467.117854 C331.462903,466.349368 331.604315,466.508253 331.132076,465.967394 C331.403873,465.85585 331.653615,465.721609 331.822272,465.5076 C329.525942,463.644426 328.03268,461.016657 325.840139,459.296804 C326.977276,459.597714 327.899051,460.005627 328.600924,459.296804 C328.115711,458.862302 327.655796,458.402507 327.220532,457.916772 C327.954189,457.720273 328.094304,458.11781 328.371291,458.377215 C328.375183,457.69109 328.969374,457.594461 329.061487,456.996534 C328.261015,455.880445 326.188481,456.03544 325.840139,454.46669 C327.002575,454.696912 328.279827,454.729986 329.291769,454.46669 C327.621416,453.989385 326.697695,452.766293 325.610506,451.706625 C325.881006,451.670308 326.263728,451.746184 326.300054,451.476403 C324.915769,451.1729 325.3679,450.538655 323.999832,450.556814 C320.866056,446.440711 313.801925,445.692977 310.195261,442.735764 C314.992902,444.456265 318.874607,447.092465 324.690029,447.7961 C325.498933,447.275994 323.949884,446.78507 324.690029,446.416067 C325.286815,446.64564 326.231294,446.82009 326.530335,446.185846 C318.585295,441.248078 310.400892,436.55026 300.071951,433.995125 C299.372025,434.010689 297.963739,434.750641 298.000714,433.53533 C300.248392,434.296683 303.636451,432.757765 305.363887,434.225346 C309.287756,433.666978 313.297251,434.850512 317.327504,435.605379 C321.794318,436.441959 324.817819,437.928996 328.371291,438.135871 C327.19199,436.47633 324.405906,435.414717 321.929244,434.685141 C317.790662,433.465939 313.062429,432.889413 308.814868,431.925076 C316.562709,430.493162 321.975949,435.41342 329.291769,433.995125 C328.813691,433.859586 328.506865,433.55284 328.371291,433.074887 C329.359231,433.477613 330.076024,433.406925 331.132076,433.305108 C330.942012,432.654651 331.456416,432.709126 331.362357,432.155297 C330.860927,430.813527 327.99311,430.619622 328.141009,429.395232 C329.554484,430.070981 329.727033,430.530127 331.362357,430.314822 C331.474579,429.637127 331.330572,427.96267 330.672161,426.86474 C328.975861,426.259679 327.378161,425.557989 326.070421,424.564469 C327.05901,424.828414 330.052671,425.224006 329.291769,424.334248 C330.408148,423.788201 331.357816,424.47692 332.052553,423.64488 C330.111052,422.902334 328.547083,421.781706 326.760617,420.884166 C328.120252,419.886107 329.893096,421.06964 330.901794,420.884166 C331.084722,420.347199 331.131427,419.765484 330.901794,419.273912 C330.252465,417.884152 323.790309,415.78492 319.168459,414.674019 C317.501999,414.273239 315.88873,414.506055 314.566719,414.213576 C313.835007,414.052097 313.03259,413.319927 312.496131,413.293338 C310.764802,413.208383 308.454851,413.370511 307.204194,412.834192 C310.832914,412.747291 315.235509,413.19671 318.707896,413.984003 C318.529509,414.035235 318.254468,413.989839 318.247333,414.213576 C318.835037,413.670772 320.684426,414.664291 319.628374,413.753781 C320.763565,414.075443 322.168607,414.127324 323.309636,414.443798 C323.87334,414.137052 322.895129,413.749242 323.539918,413.52356 C325.895926,414.755083 331.433712,413.851706 334.123142,413.52356 C333.713824,413.412016 334.223039,413.278422 334.353423,413.063116 C333.685931,411.583861 332.217967,410.904221 330.901794,410.073478 C331.397386,409.8024 331.93644,409.573476 332.052553,408.923018 C331.102236,405.626634 326.367517,407.536501 323.999832,405.703158 C318.808442,405.292651 314.27611,404.973583 310.655175,403.863331 C316.654822,403.973578 321.789129,405.857504 327.681095,405.013142 C328.146199,403.184988 325.378279,403.581877 324.229465,402.712871 C327.577306,402.866569 330.207057,404.096147 331.132076,400.873044 C330.151271,399.92946 329.490265,400.79198 328.600924,400.412601 C329.833417,399.529328 331.103534,400.314676 332.742749,399.262141 C332.140774,399.326993 331.752863,399.178483 331.822272,398.572774 C332.844592,398.146701 333.132607,397.376918 334.813338,397.192092 C335.08773,394.555244 333.63728,393.022811 332.282835,391.44174 C328.333019,391.131103 322.708958,391.522156 319.168459,390.291929 C324.167841,390.660932 328.296693,391.232271 333.202664,390.061707 C332.868594,389.936545 332.013633,390.33084 332.052553,389.832134 C332.322404,389.262741 333.008709,390.389854 332.973031,389.371691 C329.895042,388.249118 324.771114,387.891788 321.008766,387.531864 C321.409651,387.098658 321.894864,387.845743 321.468681,387.071421 C321.101527,387.740036 316.390809,388.28284 315.947111,386.382053 C319.016019,385.959872 322.808206,387.017594 326.300054,385.92161 C325.133077,384.558438 322.191311,384.968946 321.468681,383.161544 C326.079502,383.324321 333.890265,385.69463 334.123142,380.861274 C332.651934,380.721844 332.592256,379.170604 331.59199,378.561003 C332.210183,378.182272 333.191636,378.166708 333.662579,377.640765 C332.363271,376.716636 330.695514,376.160862 329.291769,375.340495 C330.242086,374.738676 331.313057,375.687448 332.512468,375.570716 C330.504153,373.607023 327.677203,372.2445 325.840139,370.740602 C329.228847,371.148516 330.775301,371.791191 333.662579,371.890413 C334.180874,370.930616 333.085253,370.574583 332.512468,370.050586 C333.23899,369.733463 333.901293,370.619979 334.123142,370.050586 C333.412188,369.819067 334.784147,369.832686 334.583056,369.359921 C331.265055,368.071328 327.247127,368.605702 325.149943,367.520093 C326.239078,367.638771 326.067177,367.810627 325.610506,367.060299 C326.751535,367.721132 329.64984,366.87677 329.061487,367.520093 C329.752981,367.75226 329.468859,367.007769 329.521402,366.599855 L331.132076,366.599855 C328.082628,363.217219 322.981404,362.819681 318.247333,360.849503 C323.161737,360.042755 328.560057,365.070665 332.973031,364.760028 C332.627933,364.490896 332.031796,364.473386 331.822272,364.070012 C332.613013,363.968844 333.111849,364.160803 333.662579,364.300233 C333.946052,362.483752 332.067473,362.828112 331.362357,361.999963 C332.525441,362.016824 332.67853,361.708781 333.662579,361.999963 C331.16905,360.352743 329.145167,358.236001 325.840139,357.399422 C325.819381,356.771662 326.223509,356.936384 325.840139,356.479184 C323.408236,355.843642 320.687021,355.497337 318.707896,354.409135 C322.643441,354.510951 325.445741,357.018745 329.981965,356.479184 C329.344961,355.302784 328.277232,355.469451 327.681095,354.639356 C328.852612,354.614713 331.088614,354.244413 331.362357,353.258675 C331.387656,353.846875 332.13299,353.715227 332.742749,353.719118 C331.094452,351.105617 322.814693,350.868261 321.698962,348.428561 C325.66759,348.824801 330.408148,351.074488 332.512468,350.269037 C332.462519,349.481744 331.75416,349.577723 332.512468,349.119226 C331.938386,349.002494 331.56734,348.684074 331.132076,348.428561 C332.10315,348.522595 332.446302,349.059563 332.973031,348.658782 C331.521933,346.566684 326.133343,346.669797 323.539918,344.978479 C322.854262,345.155523 319.794436,344.854613 318.707896,343.828668 C324.397474,344.351368 328.445241,346.514803 334.813338,346.358512 C333.815019,344.289111 329.459777,345.577055 328.141009,343.828668 C327.377512,344.190538 325.002693,343.804025 324.690029,342.907782 C323.588569,342.935668 322.527327,342.923346 321.929244,342.447987 C322.107631,342.396755 322.382672,342.44215 322.389158,342.217765 C321.438193,341.865624 319.852169,342.148375 319.858007,340.837733 C317.985915,341.556284 317.188686,339.216454 314.796352,339.687922 C315.049338,338.279354 313.685811,339.258607 313.875874,338.308537 C311.515326,338.955104 310.632471,337.606199 309.504416,337.387651 C309.806052,337.391542 309.797619,338.025786 309.504416,338.078316 C309.070448,337.668457 308.486636,337.409052 308.584587,336.467413 C310.384675,336.45574 314.757431,336.750813 315.256915,338.538111 C317.937264,339.317622 320.690913,339.014767 322.158877,340.60816 C325.271246,338.844208 330.983528,343.114657 334.123142,341.298176 C333.824749,340.44668 332.599391,340.521908 332.052553,339.918143 C332.660367,339.911658 333.493922,340.132801 333.202664,339.228127 C330.746111,337.850688 328.129982,336.632135 325.380225,335.547824 C328.348587,335.279988 331.03153,337.696343 333.202664,336.697635 C327.622714,331.220954 313.571643,330.617839 305.363887,331.86752 C305.743366,331.864278 305.492326,331.229385 305.823802,331.177504 C308.283599,331.959609 310.590956,330.766348 313.186327,330.487488 C312.182169,329.651556 310.653878,329.338325 309.504416,328.647012 C316.492652,328.314325 323.964804,332.278677 332.742749,332.327315 C333.118984,331.323419 334.217849,331.042614 334.813338,330.257266 C333.597711,330.169069 332.960706,329.503696 332.282835,328.877234 L332.973031,328.877234 C328.441997,325.834417 323.502943,324.728705 316.867589,324.047119 C316.831263,323.776041 316.90651,323.394717 316.637308,323.356454 C313.462665,323.868779 310.255588,322.645037 306.743631,323.586676 C307.045268,322.538033 306.714441,322.859695 306.283717,322.206643 C309.348084,321.235173 312.016756,322.120391 314.796352,322.667087 C314.327356,322.863586 313.52883,322.304569 314.106156,322.206643 C317.353451,323.242965 320.924438,322.364232 322.849073,324.047119 C323.61257,323.093807 325.012423,324.634671 323.999832,323.356454 C325.709754,323.600295 328.178633,322.618448 328.831205,324.047119 C329.062136,323.741022 329.048513,323.191084 329.521402,323.126233 C329.442911,324.00756 332.536469,323.190435 333.202664,322.206643 C336.715269,321.526355 342.63448,322.222856 346.547321,321.287054 C342.525502,319.782507 338.114474,319.242945 333.89286,317.146307 C330.179812,317.201431 325.70716,316.169 321.929244,315.536053 C328.153334,314.6878 334.058274,318.233213 339.644711,316.685864 C337.19205,315.222174 334.734199,314.271456 333.89286,312.775988 C334.91064,311.896606 336.075022,313.50686 337.114208,312.085972 C336.154161,312.290901 335.631973,311.404386 334.813338,311.165734 C331.594585,310.227337 327.610389,311.052893 325.840139,308.63589 C329.562917,309.21112 331.132076,308.45301 333.89286,308.63589 C335.36796,307.225377 338.997328,307.604108 339.874993,305.875176 C338.515358,305.364149 337.667533,306.390094 337.114208,305.18516 C337.384708,305.149492 337.766781,305.224719 337.804404,304.955587 C335.428287,304.831721 330.29398,304.638465 327.681095,303.345332 C328.693685,302.954928 329.800334,302.432228 329.291769,301.735078 C331.625722,302.488 333.228611,301.684494 334.353423,300.81484 C331.123643,298.177992 327.424866,299.600827 322.61944,298.744791 C319.333873,298.159834 315.852404,296.872538 313.186327,296.904315 C313.096809,296.905612 313.19476,297.421179 312.725764,297.364759 C311.261043,297.189012 309.872866,296.384209 308.354305,296.904315 C308.020235,295.996399 305.708337,297.135185 305.363887,295.754504 C310.457976,297.217546 315.545578,294.607936 320.31857,295.984726 C320.133696,295.109884 321.406407,295.692247 321.929244,295.524931 C322.290559,295.700029 322.272396,296.254507 322.849073,296.214948 C327.470922,295.95684 327.486491,296.784989 331.132076,295.754504 C330.923849,295.27266 329.833417,295.672792 329.751683,295.064488 C331.128183,294.229854 333.994703,295.539198 334.123142,293.914677 C333.851345,293.497035 332.923731,293.733742 332.512468,293.454882 C333.260397,292.710391 332.240671,292.559288 331.822272,292.304423 C334.200335,292.07485 337.13302,292.400402 338.034686,290.694168 C332.341216,288.77652 324.270981,289.458105 318.247333,289.314136 C315.4366,289.246691 312.413748,290.812846 310.195261,289.314136 C318.561943,287.471066 323.962209,290.155904 331.132076,286.3232 C324.608943,285.050821 318.993964,285.105296 313.875874,285.864054 C313.645593,285.214894 313.539858,285.287527 313.41596,284.944465 C313.120161,285.728515 310.605227,285.497645 309.964979,285.174038 C311.032059,285.208409 312.679059,284.275201 313.186327,285.174038 C313.17984,284.832921 313.201895,284.613075 313.41596,284.484021 C315.834241,283.028113 320.309488,283.886742 323.539918,283.33421 C326.530335,282.822535 329.283985,281.899054 330.901794,280.343924 C331.716537,279.954817 332.21148,280.578036 332.742749,280.113702 C332.483926,279.448978 335.217466,280.063118 335.963449,279.193464 C335.85966,279.219404 335.715004,277.514467 335.04362,278.273226 C335.688408,278.330295 331.995469,278.583215 331.132076,277.813431 C332.959409,278.189568 332.04931,277.223286 333.432946,278.043653 C333.353807,276.907461 335.413368,277.333533 336.19373,277.352988 C336.515476,276.697991 336.696458,276.814723 337.574123,276.433399 C335.277145,273.985916 332.139477,274.930149 329.061487,273.902906 C324.899552,273.706407 321.855294,275.277751 318.707896,274.133128 C320.570907,274.614324 323.309636,272.967104 325.610506,272.753095 C327.976893,272.53325 330.669566,273.404201 332.512468,272.293301 C329.41891,271.56178 323.670951,272.24985 320.548203,271.373063 C326.414222,270.577988 331.728213,270.213524 335.273253,267.922333 C333.840966,266.982639 330.92839,268.085758 329.061487,267.232316 C331.108074,266.384712 335.816847,267.426221 335.273253,264.702473 C326.172912,264.306881 318.950503,265.931402 310.195261,267.232316 C311.80334,267.122718 309.850163,266.948268 309.964979,266.312727 C310.689555,265.679131 311.700848,266.69924 312.265849,266.082505 C311.276611,265.764735 312.562945,265.020243 312.956045,264.702473 C316.106038,265.041644 320.17132,262.915175 324.229465,262.402202 C327.891916,261.939165 332.757669,262.082486 332.973031,259.411915 C332.055797,258.570796 331.259866,259.54486 330.211598,258.721899 C331.692536,258.438499 333.309696,258.291936 333.662579,256.882071 C331.953305,256.61683 330.339388,257.630454 329.291769,256.65185 C328.618438,257.135639 326.848189,257.728379 325.840139,257.112293 C327.895808,256.482588 331.40517,256.585702 334.123142,255.041596 C334.407264,254.297753 333.378456,254.865849 333.662579,254.121358 C334.046597,253.819151 335.705922,252.996839 336.19373,252.051309 C335.028051,251.052601 332.297106,251.518232 331.362357,250.900849 C331.952657,251.012393 334.328125,251.176466 334.583056,250.210833 C333.170879,250.197214 330.42177,250.066863 329.291769,249.061022 C332.670097,249.070749 335.170761,247.480599 337.34449,246.990973 C336.499259,246.738702 335.364716,246.422228 335.04362,246.300956 C335.229791,245.413793 336.886521,245.996804 337.114208,245.151145 C336.723054,245.202378 336.544666,244.891741 337.114208,244.920924 C336.889116,244.191997 336.58229,244.71794 336.19373,243.540891 C337.469036,243.408595 337.644829,243.116116 338.724882,242.390432 C338.021064,241.852815 335.061783,242.487708 334.583056,242.16021 C336.473312,241.289907 339.138092,241.194576 340.334907,239.630366 C338.842942,239.730237 337.550121,239.870964 336.653645,239.630366 C337.063611,239.503258 337.6098,239.512337 337.804404,239.170572 C336.027019,238.110904 333.205907,238.093394 330.672161,237.790539 C332.877026,237.771084 334.887288,237.557723 336.424012,236.870301 C333.980432,235.256804 330.929687,237.106359 328.831205,235.490268 C332.0052,235.136829 335.119515,234.723728 337.114208,233.189998 C336.808679,232.959128 336.25795,232.972746 336.19373,232.499981 C336.920901,232.536947 337.582555,232.508412 337.804404,232.040187 C337.416493,231.660807 336.770407,231.540184 336.424012,231.1193 C337.428818,230.747055 337.695426,231.288562 338.4946,230.889727 C337.648721,230.523318 339.425457,230.942257 338.955164,230.199711 C332.646745,226.734713 322.751771,230.892321 315.947111,230.429932 C314.581639,231.434477 311.49327,232.225012 310.195261,231.349522 C311.421267,230.431229 312.346934,230.352111 313.186327,230.429932 C312.964478,230.112162 313.380282,229.443546 314.566719,229.0499 C314.652994,229.617996 313.129243,229.730188 313.875874,230.199711 C314.612127,229.317735 314.029612,231.064825 314.336438,230.889727 C314.73343,230.750297 314.318923,229.798282 314.796352,229.739916 C315.276376,230.055741 315.81024,229.720461 315.026634,230.429932 C316.841642,229.644585 318.978396,229.060276 320.088288,229.280121 C319.909901,229.22824 319.634212,229.273636 319.628374,229.0499 C320.502147,229.153013 321.265644,228.453918 321.929244,229.0499 C326.510875,226.878034 332.791401,228.6141 337.34449,226.059613 C336.492772,225.451309 334.784147,225.510972 333.89286,226.059613 C334.254824,226.081662 334.690737,226.028484 334.583056,226.519408 C331.723672,226.568046 329.389071,225.562204 327.220532,225.59917 C329.752332,224.91045 332.476142,224.412393 334.353423,223.069326 C333.139742,222.412384 331.453172,223.416928 330.441879,222.839104 C332.670097,221.846882 335.35304,221.309265 336.424012,219.158801 C335.590457,218.995376 334.516242,219.0719 333.89286,218.699006 C334.596679,218.865674 334.569434,218.302117 335.273253,218.468785 C335.319958,217.272281 334.171793,217.270335 333.432946,216.85853 C333.180609,216.301459 334.771822,215.456448 334.353423,214.788481 C333.756637,214.219088 333.224719,215.012218 332.282835,214.788481 C333.001573,214.091332 331.530365,214.566042 331.59199,213.868244 C332.800482,213.667853 333.877941,214.002485 334.353423,212.718432 C333.626252,212.755398 332.964598,212.726863 332.742749,212.257989 C334.054382,212.079 331.511554,211.013496 332.282835,210.648384 C334.284015,210.121144 336.323466,208.049798 338.724882,207.198302 C338.818941,206.106857 337.30492,206.623721 336.883926,206.047842 C338.020415,205.920734 336.644563,205.929813 336.653645,205.588048 C337.6098,205.556271 336.70035,205.436296 336.653645,205.127604 C337.297136,204.464826 338.484221,205.3909 338.264319,204.207366 C337.992522,203.588686 337.064908,204.208663 336.653645,204.207366 C335.715004,202.548474 330.793464,204.243683 328.831205,203.057555 C332.199155,202.547825 335.388718,203.301396 338.724882,201.677523 C338.328538,200.693082 336.704891,200.936274 335.733167,200.527712 C336.348116,200.375311 337.171292,200.431083 337.574123,200.067268 C337.233565,200.025115 337.363301,199.511494 337.34449,199.147679 C335.883661,199.033541 335.43672,199.336396 334.813338,198.457014 C335.565159,197.996571 336.416876,197.831849 336.883926,198.687236 C337.145993,196.55039 335.585917,197.662588 334.813338,196.617187 C335.989396,196.433658 335.052052,195.11264 334.123142,194.776711 C335.519751,194.449213 336.042588,194.676192 336.883926,193.856473 C336.359144,193.921324 336.019235,193.801998 335.963449,193.397327 C336.103564,192.999789 337.054529,193.414837 337.114208,192.936884 C333.443973,192.556856 330.442528,191.953092 327.681095,192.246867 C327.209504,190.382396 324.608943,193.00368 323.309636,191.787073 C326.989601,190.270852 333.419323,189.877854 337.804404,188.336991 C337.982791,187.161239 336.396119,187.750736 336.19373,186.95631 C336.756136,186.828553 337.03442,186.416748 337.34449,186.036072 C336.702945,185.833736 335.944637,185.74943 335.502885,185.346056 C336.806733,185.20468 335.434125,184.890152 335.963449,184.425818 C335.142868,184.771474 335.288172,184.655391 334.813338,185.346056 C334.440347,184.604807 333.467326,185.15669 334.353423,185.576277 C333.330454,185.473164 333.135201,185.279907 332.512468,185.576277 C332.446302,185.232566 332.21667,183.91479 331.822272,184.656039 C332.123908,184.65993 332.115475,185.294175 331.822272,185.346056 C330.978338,184.04125 327.012954,185.879781 323.769551,184.886261 C325.595587,184.879127 329.995587,183.709861 329.291769,184.656039 C331.155428,183.625554 333.422567,184.169007 335.04362,182.356417 C335.157787,181.875222 334.311259,181.951746 333.89286,181.436179 C334.332666,181.339551 334.883395,181.352521 334.813338,180.746163 C334.228877,180.410234 333.931132,179.788311 333.202664,179.596352 C334.912586,179.388828 337.309461,179.868078 338.034686,178.676114 C335.600836,178.245502 330.978987,179.339541 328.141009,178.215671 C331.106777,178.357695 333.183204,177.799326 335.963449,177.296081 C335.586565,176.51657 334.977454,176.476363 335.963449,175.916049 C334.761444,174.483486 332.921785,176.232522 332.052553,174.305794 C334.350829,174.424472 334.658303,174.679337 336.424012,174.075573 C336.352657,172.997746 334.598625,173.161171 334.813338,172.465318 C334.980049,171.94197 336.125619,172.397225 335.963449,171.54508 C334.79777,170.946504 333.501057,170.480873 332.742749,169.475031 C333.021682,168.873213 337.761591,170.12484 336.653645,168.555442 C336.882629,167.940653 338.646392,168.860243 338.4946,167.865426 C330.681243,169.903049 333.969405,168.079435 327.032414,167.070351 C327.040198,165.31483 324.666027,166.751931 324.27163,166.380334 C324.666027,166.440646 325.720782,165.860876 324.732193,165.919891 C323.870096,166.294731 320.513823,166.642981 318.059215,165.919891 C318.700112,165.181236 320.722049,165.822614 321.279915,165.000302 C320.430143,164.853738 318.988775,165.297968 318.519779,164.77008 C322.5163,164.784347 324.853496,164.869951 328.412807,165.919891 C333.963566,164.235706 330.76103,166.105365 336.424012,164.875139 C334.68944,162.903015 335.70203,162.765531 333.159851,162.083296 C329.794496,161.181217 328.384265,159.727902 325.192107,159.061881 C325.292653,158.527507 326.207292,158.445795 325.652022,157.91207 C322.918482,156.97951 320.155102,156.48275 318.306363,156.537225 C319.4435,155.985342 319.448041,154.856283 321.050282,154.46134 C322.005788,154.22593 323.022271,154.495062 324.041348,154.231118 C326.708723,153.540453 327.545521,153.447068 330.197976,152.778452 C333.261694,152.004778 330.659187,150.728507 332.052553,148.543672 C331.170348,148.585176 331.968874,148.354955 331.822272,147.853007 C332.548145,147.812151 333.194231,147.692176 333.202664,146.933417 C329.990398,147.389321 331.549177,149.971046 328.55876,149.003466 C328.912291,149.05859 328.59314,149.382197 328.329127,149.46391 C321.887728,148.449637 320.070125,150.127985 315.382111,149.651978 C318.340094,148.450934 318.122137,148.953531 320.945844,148.543672 C322.301587,148.346524 320.614368,148.821883 322.075197,148.773893 C325.901115,148.647433 326.170966,147.778428 329.333284,147.163639 C331.057477,146.828358 330.890766,146.67077 332.512468,146.013828 C332.750534,144.089046 330.767517,144.384118 329.751683,143.712909 C330.548912,143.666864 331.246892,143.521598 331.132076,142.563098 C330.674756,141.717439 328.619087,142.468415 327.911376,141.873081 C329.052406,141.864002 329.806821,141.46841 330.211598,140.72327 C329.926178,139.781632 329.044621,139.436623 328.371291,138.882795 C330.50545,138.639603 332.504035,138.260872 334.123142,137.502762 C333.651551,135.732325 334.35018,134.956705 335.273253,134.05268 C334.881449,133.448267 333.511436,133.820513 332.973031,133.362664 C333.657389,133.19016 335.243413,132.992364 335.733167,131.982631 C334.730956,131.528025 333.318778,131.483277 332.742749,130.60195 C332.849133,129.865241 333.619117,129.791311 333.662579,128.992344 C333.173473,128.336051 332.197858,128.85032 331.822272,128.53255 C332.346406,128.052003 333.010006,127.573401 332.512468,126.692074 C331.451875,126.969637 329.812659,127.858098 328.831205,127.38209 C331.403224,126.119438 335.495101,126.376897 336.19373,123.241992 C333.753394,122.500743 332.156991,124.120077 330.441879,122.781549 C331.058126,122.324997 332.161532,122.35418 332.512468,121.631089 C332.190722,120.699827 330.677999,121.172592 330.211598,120.941722 C331.250135,120.478684 330.347172,120.189448 330.672161,119.56104 C329.290471,119.483867 325.132429,120.167399 323.769551,119.791262 C327.484545,117.984509 332.050607,117.0299 334.813338,114.271131 C334.127683,111.982534 331.416846,113.573333 329.291769,113.580467 C329.64984,112.679684 329.179547,112.145959 329.521402,111.511066 C332.140125,111.292518 334.816581,111.131038 335.733167,109.210795 C334.455915,109.362547 333.152067,108.858005 332.512468,108.751001 C332.986005,109.099251 330.625456,109.725065 329.751683,109.210795 C330.724704,108.62065 333.602251,107.945549 334.353423,107.830763 C334.803608,107.217271 335.203844,105.487042 336.19373,106.450082 C336.204758,105.356043 335.65792,105.893659 335.273253,105.530492 C335.341364,105.051242 335.895986,105.871609 335.963449,105.070049 C335.005347,104.158242 333.632091,104.848907 332.512468,104.380033 C332.685017,103.94553 333.199421,104.220499 332.742749,103.690016 C331.817082,104.114143 330.619618,104.348256 329.061487,103.920238 C330.72665,103.783402 331.535555,103.658239 332.973031,103 C333.168284,102.131643 332.208237,101.920228 332.742749,101.389746 C335.354986,101.274311 335.337472,99.2314992 337.574123,98.4001073 C335.572294,97.8670308 334.084221,98.9565303 332.052553,98.6303289 C333.842263,97.5823342 336.047777,96.9500354 337.804404,95.8696151 C333.647659,94.4286224 331.335761,96.4746764 328.831205,96.5596315 C328.731309,95.9779166 330.36274,95.973377 329.751683,95.6393935 C328.001543,96.6646903 327.605199,98.1316235 325.840139,97.4798694 C327.683041,95.4091719 333.471866,95.5064486 334.353423,91.7295172 C332.421653,90.8994223 330.14673,92.6607798 328.600924,92.1893119 C330.757787,91.6880124 332.91465,90.1302876 334.813338,90.1192629 C334.455915,89.4798305 333.682039,89.2567425 333.202664,88.7392302 C333.967458,88.2003171 334.919073,87.8481753 335.273253,86.8994029 C335.027403,86.3014752 333.909077,86.5764441 333.662579,85.9791649 C334.318395,85.7904481 334.830852,85.4597072 335.04362,84.8287054 C333.982378,84.356589 332.153099,84.6510132 331.132076,84.1386891 C335.427638,82.4694202 333.471218,79.5563062 329.061487,80.2288127 C326.546552,80.6114346 322.572735,82.2417927 320.548203,82.0686401 C323.962209,80.3435993 329.426046,80.6691521 332.282835,78.3883368 C331.932547,74.8772951 326.409032,78.7651221 324.459098,77.6983205 C325.635156,77.9927448 324.703002,77.0277595 325.149943,77.0083042 C328.940184,75.6853406 334.73355,74.5128316 336.883926,70.7981573 C334.95475,69.3013925 330.626105,72.4187877 328.371291,71.7177467 C330.476908,70.6029553 333.2098,70.114626 334.353423,68.0374434 C332.373002,67.987508 331.908546,68.9855674 330.441879,68.0374434 C330.636484,67.5419806 331.908546,68.124344 332.052553,67.5776487 C331.893627,66.9732359 331.981198,65.2002053 332.052553,63.8973455 C329.199007,62.5147188 327.393729,64.4550654 324.459098,64.1269186 C327.908782,62.696302 332.853025,62.1269089 335.04362,58.8363611 C330.335496,57.6969262 325.2693,61.0938299 321.468681,61.5970749 C325.323141,58.3960217 332.706423,58.7235201 335.963449,54.9264847 C335.552834,54.6469762 334.625221,54.88498 334.353423,54.46669 C333.299966,51.6826298 328.42578,54.8506089 326.300054,54.9264847 C328.369345,54.0814741 330.647511,53.4452843 332.052553,51.9368463 C331.976658,51.3992302 331.776215,50.9861283 331.59199,50.5561652 C333.293479,50.0334648 334.161414,48.6774271 335.733167,48.025673 C334.529865,47.6294324 332.387273,48.0691232 331.59199,47.5658782 C332.456033,47.2792361 333.094334,46.766912 334.353423,46.8758619 C334.68944,45.9095797 334.955399,44.8713126 335.502885,44.1157966 C334.513648,44.0191684 333.481597,44.5665122 332.512468,44.1157966 C333.729393,43.8829809 333.972648,42.7266848 334.583056,42.2759692 C335.582673,42.2779148 336.153512,41.8518427 336.19373,40.8959366 C334.639492,40.4277112 332.155045,41.2967167 330.901794,39.9750501 C332.070068,39.6469033 333.780638,37.5398891 332.973031,36.7545416 C333.175419,37.559993 330.047482,38.3375584 329.981965,37.6754281 C328.920723,38.8401549 326.418114,39.7830907 324.92031,39.745477 C326.767104,38.1858067 331.308517,38.202668 330.901794,35.1449359 C331.919574,34.8589422 332.158937,33.7947347 333.432946,33.7649032 C333.521166,32.8336406 332.805023,32.7058838 332.512468,32.1552974 C332.03958,32.6786463 330.525559,32.1611341 329.981965,32.6150922 C330.966662,31.7603539 331.055531,30.5865479 330.901794,29.8550269 C331.63156,29.7104088 333.20461,28.5554096 333.662579,26.8647399 C331.78854,26.3757622 330.990663,28.1740848 329.521402,27.3238861 C332.284781,26.0813379 334.12898,25.608573 336.424012,22.4937719 C330.155163,23.1267192 323.631382,26.9406158 317.557137,27.5541078 C322.771231,25.3647326 329.809416,23.118937 333.662579,18.8141171 C330.687081,17.6247469 329.109489,20.9619875 326.990899,19.5041335 C329.156843,18.4496536 330.689027,16.7609294 332.742749,15.5936086 C332.064878,15.4632578 329.911259,15.6130639 329.291769,16.2836249 C329.008295,15.281026 330.317333,14.6869894 329.061487,13.7537812 C329.483129,13.7414595 329.840553,14.9321268 330.211598,14.2135759 C329.466912,13.7641574 332.030498,11.3717982 332.282835,11.223289 C333.763773,10.3477984 336.318926,10.5929358 337.574123,8.69279682 C335.199952,8.14480453 331.920222,9.74144005 329.521402,9.15324004 C330.307603,8.71160366 331.708104,8.88605327 331.822272,7.77320739 C330.616374,7.45932779 327.541628,8.15518072 326.300054,7.77320739 C329.959261,6.29330396 334.617436,5.81405389 336.19373,2.25242827 C335.801279,1.64801547 334.431914,2.02090963 333.89286,1.56241194 C334.573326,1.4982093 335.212277,0.774470369 335.733167,-0.0478423209 C335.393258,-0.0906440855 335.522346,-0.603616749 335.502885,-0.967431748 C334.503269,-0.936303192 333.988216,-0.156792267 332.512468,-0.737858647 C332.677881,-1.56860199 333.84875,-1.39480088 333.89286,-2.3474644 C333.102119,-2.44863221 332.603283,-2.25732129 332.052553,-2.1178913 C332.024011,-3.85006574 329.623245,-3.96420378 328.831205,-4.64773499 C331.571232,-5.5887253 335.914798,-4.92659497 336.883926,-7.63867042 C335.194113,-8.52388873 332.374948,-7.40585476 331.59199,-8.55825985 C332.277646,-8.76448653 332.153099,-9.19574674 332.282835,-9.47849779 C336.004964,-10.2807066 339.478649,-11.3312954 341.715948,-13.6185957 C339.540922,-14.3792998 337.236809,-12.877347 335.502885,-14.0783905 C336.841114,-14.6257342 339.724499,-14.2729439 340.565189,-15.9188663 C339.036897,-15.6069323 338.119014,-14.6847488 336.19373,-14.7690553 C336.125619,-15.2366321 335.732518,-15.3812502 335.502885,-15.6886447 C336.418822,-15.7664661 337.203726,-16.1490879 337.804404,-17.0686774 C337.536499,-17.1075881 337.554662,-17.4324924 337.574123,-17.7586937 C335.780521,-18.7593471 334.359262,-16.8475349 332.742749,-17.7586937 C334.503269,-18.8358714 332.537118,-20.9811478 331.132076,-20.7489806 C331.71978,-20.8514455 332.190074,-21.0712909 332.512468,-21.4396455 C331.926709,-21.8495048 332.267915,-22.0609196 331.59199,-22.5894565 C333.693715,-22.8508067 335.770791,-22.8987965 337.114208,-24.4292839 C334.11406,-25.6024413 330.160352,-23.7211092 328.831205,-24.4292839 C328.440051,-24.042771 327.239992,-23.2749332 326.530335,-23.9688406 C327.869861,-25.2159284 330.555399,-26.1588643 331.59199,-25.8093165 C332.421653,-26.9759889 336.140538,-27.2405816 336.883926,-29.2593981 C335.231737,-30.5259413 332.497548,-28.0842952 330.672161,-28.7996034 C332.053202,-29.948766 334.413102,-30.119973 335.04362,-32.020112 C334.647276,-33.3009223 332.553335,-32.220502 331.822272,-32.7101283 C332.779076,-33.8236227 334.05503,-34.6180494 334.583056,-36.1602099 C334.668034,-36.9351813 333.615874,-36.5739603 333.662579,-37.3106695 C333.512085,-37.8281817 334.347585,-37.762682 334.583056,-38.4604805 C334.608355,-40.0006955 332.583174,-40.2581546 332.512468,-40.9903242 C331.598477,-40.8995326 330.435393,-39.8573745 329.521402,-40.5305295 C331.392196,-41.1077048 335.015078,-41.7425976 331.822272,-44.2108327 C336.98058,-45.1829516 334.664141,-49.2795993 330.672161,-49.2711686 C332.19202,-49.4767468 332.094718,-50.7465325 332.282835,-51.8010123 C333.495868,-52.1985499 334.372884,-52.9320165 334.583056,-54.332153 C334.404021,-54.3827369 334.3158,-54.5241125 334.353423,-54.7919478 C333.785179,-55.5299539 332.343162,-54.3496629 332.282835,-55.2517425 C332.880918,-55.4404593 333.21434,-55.9741844 333.202664,-57.0915698 C330.941363,-57.6531809 329.747791,-55.9599171 327.911376,-56.8619967 C330.587184,-58.3140142 333.954485,-59.8224521 334.123142,-63.0721437 C333.314237,-62.5721412 331.514797,-61.8529419 330.441879,-62.3821273 C332.234833,-63.3445185 334.330071,-64.0799307 335.04362,-65.8328575 C334.762741,-65.858798 334.498728,-65.9009512 334.583056,-66.2926522 C332.589012,-66.059188 330.625456,-65.8659316 329.521402,-65.8328575 C328.662549,-64.658403 324.544075,-64.3120978 323.999832,-63.7628085 C324.05497,-64.1155988 324.378662,-63.7958826 324.459098,-63.5325869 C323.870745,-63.6395913 323.15525,-62.7187049 322.849073,-63.3023653 C323.548999,-63.5325869 323.142925,-63.6817446 322.849073,-63.9923816 C323.990751,-64.0429655 323.82404,-64.715472 323.769551,-64.9126195 C324.499316,-64.2628109 325.847923,-64.8672237 324.92031,-65.3724143 C325.693537,-65.5527005 326.425898,-65.4677455 327.220532,-66.0624306 C326.554337,-66.1914844 327.573414,-66.421706 327.450813,-66.7524469 C327.153069,-67.3639933 326.499199,-67.2615285 326.300054,-67.4424632 C326.870893,-67.5617894 327.119986,-68.0034258 327.450813,-68.3627012 C327.597415,-68.1694447 328.526326,-67.6428533 328.600924,-68.1324796 C328.295395,-68.3633497 327.744665,-68.3503795 327.681095,-68.8224959 C331.25273,-70.2634886 333.572412,-71.2414441 335.963449,-74.343275 L333.662579,-74.343275 L333.662579,-75.2628644 C332.661664,-75.6247339 330.788275,-74.315389 331.362357,-75.2628644 C330.076024,-75.0157815 329.242469,-74.315389 328.141009,-73.8828318 C328.400482,-75.0041083 329.911259,-74.873109 329.751683,-76.413324 C329.855472,-77.0534049 328.497784,-76.2330378 328.600924,-76.8731187 C329.937206,-78.3523736 329.846391,-80.3536804 331.822272,-81.4736599 C331.426577,-81.5644515 331.232621,-81.1325428 331.132076,-81.4736599 C332.618852,-82.9775583 334.703062,-83.8835289 335.733167,-85.8439795 C334.352775,-86.0767951 332.422301,-84.920499 331.822272,-85.8439795 C332.72783,-86.6779654 334.736794,-86.9302364 334.583056,-88.1442501 C332.210183,-89.510664 327.989867,-87.8913305 325.380225,-87.6838068 C325.6384,-87.635817 325.738296,-87.4289418 325.840139,-87.2240121 C322.930807,-86.3368483 319.124998,-84.896504 316.407675,-83.5443574 C318.295335,-85.2817199 318.562592,-85.9444988 321.239048,-86.5339958 C318.619027,-86.1967698 324.994908,-89.5087184 325.840139,-89.2947096 C326.009445,-89.2512593 326.041879,-88.5995052 326.300054,-88.6040448 C326.647747,-89.1345272 325.814841,-89.7720141 326.300054,-90.2149475 C327.040198,-89.7395886 327.431353,-90.4769462 326.760617,-90.4445206 C328.901912,-91.7862911 329.455236,-91.89135 332.052553,-93.4348076 C330.926444,-93.9873394 333.679444,-95.1034279 332.742749,-96.1942244 C330.064347,-96.0962991 329.516212,-95.4581637 327.911376,-95.2746349 C329.8665,-96.8583002 333.735879,-97.7169296 333.432946,-100.795414 C332.036336,-101.17609 331.213809,-100.078809 330.672161,-100.334971 C331.372087,-101.504237 331.261812,-101.938091 330.672161,-103.095685 C329.510374,-103.25911 328.992078,-102.781157 328.141009,-102.635241 C328.176687,-103.366762 328.663197,-103.647568 328.600924,-104.475069 C328.102088,-104.346015 327.17707,-103.466633 326.760617,-104.015274 C328.775419,-105.215021 328.785149,-107.02761 330.211598,-108.846037 C330.303062,-109.780542 329.232739,-109.553563 329.061487,-110.22607 C330.556696,-112.268881 334.381317,-113.172258 334.813338,-115.516627 C332.397651,-114.771487 329.459128,-112.943982 326.990899,-113.676151 C329.464966,-114.576285 332.06423,-115.350608 333.662579,-117.126233 C333.687228,-118.739081 334.062166,-119.795506 332.742749,-120.346741 C332.271807,-119.905753 330.208354,-119.737789 329.981965,-121.266331 C330.910227,-122.763744 333.090442,-122.99656 332.742749,-125.177504 C335.19606,-126.40384 337.066854,-128.214484 338.4946,-130.467413 C336.56737,-130.929802 334.073842,-130.491408 333.202664,-130.00697 C333.327859,-131.072474 334.010271,-131.069232 333.432946,-132.077019 C333.725501,-131.322151 332.265969,-131.903218 332.052553,-132.077019 C333.479651,-132.288434 334.789337,-132.421379 335.273253,-133.917495 C335.297254,-135.273532 334.166603,-135.122429 334.583056,-134.607511 C333.828641,-135.539422 335.541158,-134.966138 334.583056,-135.988192 C333.277262,-135.626323 333.997298,-135.650966 333.432946,-135.067954 C332.463168,-135.630214 332.186182,-135.857841 331.132076,-135.988192 C333.216935,-136.539427 334.664141,-139.240478 335.04362,-141.278101 C334.278825,-141.072523 333.374564,-141.276804 332.282835,-141.508323 C333.584737,-141.83193 331.745079,-143.081612 331.822272,-144.26774 C332.961355,-145.333244 334.367694,-146.903291 333.89286,-148.868281 C333.021682,-148.957775 332.243265,-149.007711 332.052553,-150.248962 C332.792049,-151.007072 332.494305,-152.231462 331.59199,-152.549233 C332.096664,-153.25611 332.520901,-154.844315 333.432946,-155.769741 C333.001573,-156.739266 332.809564,-157.470138 333.202664,-158.529158 C332.592904,-158.799587 331.848219,-158.088819 331.822272,-158.529158 C332.117421,-159.43448 331.143752,-160.081046 332.282835,-160.829428 C331.525825,-160.482475 330.235599,-160.495445 329.981965,-161.289872 C331.270245,-161.221778 330.9725,-162.533068 332.282835,-162.899477 C332.02466,-162.948764 331.924115,-163.154991 331.822272,-163.359921 C333.639226,-164.970175 335.13703,-167.742562 336.19373,-170.030511 C335.295956,-170.448152 334.154278,-169.379405 333.202664,-169.110273 C334.106925,-170.258787 334.579164,-171.101203 335.502885,-172.560355 C334.8568,-172.708215 334.434508,-172.227668 333.662579,-173.020798 C336.574506,-175.439746 340.554161,-178.58373 340.105274,-182.911248 C340.214253,-181.820451 339.818557,-182.657031 339.415078,-182.221232 C339.304802,-182.944971 339.742662,-183.120069 339.874993,-183.601264 C336.304655,-184.675848 332.977572,-184.071435 329.291769,-183.371691 C330.862873,-185.940446 334.821771,-186.123326 337.114208,-187.971584 C336.64132,-188.449537 334.444239,-188.066915 335.04362,-188.891822 C334.463699,-188.672625 334.127683,-188.131118 333.662579,-188.891822 C333.857183,-189.843837 334.909991,-189.251746 334.353423,-190.502076 C335.54505,-190.199221 336.798949,-192.356171 338.034686,-193.032568 C339.018086,-193.570833 339.420916,-194.175894 339.184797,-195.33219 C338.39146,-195.382774 337.430764,-194.659035 336.424012,-194.872396 C337.502119,-195.410012 338.420002,-196.523506 339.415078,-196.48265 C339.018734,-196.46968 338.824779,-196.659045 338.724882,-196.942445 C339.700498,-197.475521 342.382792,-199.025464 341.025752,-199.70251 C341.460368,-199.804326 342.411982,-199.389927 342.175863,-200.162953 C337.976305,-200.886692 334.066707,-198.022216 331.132076,-198.092256 C331.746376,-199.625337 334.044003,-199.474234 335.04362,-200.622748 C334.956696,-201.498887 333.515328,-200.318596 332.973031,-201.082543 C334.254175,-202.343898 334.741334,-204.253116 334.353423,-204.762846 C335.253792,-206.239507 336.354603,-207.516426 337.34449,-208.902944 C335.760412,-208.867276 335.19087,-207.738217 333.662579,-208.213576 C335.908311,-209.167536 339.671956,-209.814751 340.105274,-211.203214 C336.911171,-212.029418 332.060986,-210.32513 329.751683,-210.053403 C330.952391,-210.539787 331.902708,-211.276496 332.973031,-211.893879 C332.75702,-213.054066 330.788275,-212.50348 330.672161,-212.583896 C333.074874,-213.938636 335.211628,-215.559267 336.653645,-217.873805 C334.090708,-220.190936 330.244681,-218.553445 326.990899,-218.104026 C328.731957,-220.056046 331.844327,-219.438663 333.89286,-219.71428 C334.365748,-220.301832 333.194231,-220.719473 333.202664,-221.554108 C335.744843,-222.225966 337.592934,-224.583954 337.804404,-226.844665 C337.112911,-227.226639 336.447364,-227.634552 336.653645,-228.914714 C334.92037,-229.313549 333.510139,-227.689027 331.822272,-227.30446 C331.494688,-229.02561 333.447217,-228.858294 335.273253,-230.524969 C335.554131,-230.781131 335.405583,-231.624844 335.963449,-231.215633 C336.32152,-232.032109 335.181789,-231.353766 335.273253,-231.905001 C336.882629,-234.589839 340.339448,-235.427716 341.025752,-239.035386 C337.871218,-239.311003 335.066323,-236.375192 332.512468,-237.195559 C331.994821,-236.769487 329.55643,-236.713066 328.371291,-236.505542 C331.061369,-237.904382 340.734494,-240.904396 336.653645,-243.635927 C334.090708,-242.796753 333.600954,-242.094415 331.132076,-241.795451 C332.613013,-243.074965 333.717716,-244.730615 335.273253,-245.936198 C335.585917,-247.163182 335.115623,-247.179395 335.502885,-248.466042 C336.211245,-248.143083 336.854736,-248.642437 337.574123,-248.926485 C335.778575,-248.93297 335.362122,-249.367473 333.89286,-249.156706 C333.737177,-250.073702 333.168933,-250.578892 332.973031,-251.456328 C332.197858,-251.602244 330.835629,-251.159959 330.441879,-251.68655 C334.22239,-254.087988 334.786093,-254.993311 337.804404,-257.436902 C335.72668,-257.48165 333.639226,-256.968677 332.742749,-257.667124 C332.178397,-256.507585 331.286462,-257.102919 330.441879,-256.287091 C329.791253,-257.004994 331.216404,-257.042607 331.362357,-257.667124 C330.750651,-257.796826 330.19084,-256.720945 329.751683,-257.436902 C330.458096,-257.975167 329.930719,-257.660639 329.521402,-258.127567 C331.306571,-259.746901 334.225633,-259.888276 334.353423,-262.267017 C334.320989,-262.647044 333.393376,-262.027067 332.742749,-262.267017 C332.942543,-263.482976 332.180343,-262.300091 332.052553,-263.187254 C332.44241,-264.036156 332.938002,-264.326689 332.512468,-265.027082 C330.74157,-265.077666 330.145432,-264.300749 329.061487,-264.797509 C330.732488,-265.196992 331.386358,-266.61399 332.973031,-267.097779 C333.168933,-270.009596 336.50834,-270.605578 336.883926,-272.61791 C337.200483,-272.627638 337.389249,-272.509609 337.574123,-272.388337 C337.489145,-274.275506 338.307132,-275.357223 336.653645,-276.98823 C337.103829,-278.071892 338.893539,-277.816379 339.184797,-279.058278 C336.083455,-280.191228 333.704094,-276.056318 332.052553,-277.218451 C331.452524,-277.639984 331.087965,-277.25801 331.132076,-277.218451 C330.526857,-277.762552 330.381552,-279.073194 329.521402,-280.208738 C331.215107,-280.968794 332.878972,-281.758681 333.89286,-283.199025 C333.041791,-285.95909 334.396885,-287.145218 335.273253,-290.32941 C334.972913,-290.933174 333.839668,-292.205554 333.89286,-293.319697 C331.240405,-293.558998 330.218733,-292.339147 327.911376,-291.939664 C328.410212,-292.418266 327.882834,-292.682858 327.681095,-293.090124 C328.196147,-293.341098 328.8338,-293.4708 329.291769,-293.779491 C329.511671,-293.351474 328.602221,-293.011005 329.291769,-292.859902 C330.77076,-292.999332 332.518955,-294.630987 333.89286,-295.619967 C333.819559,-295.337865 333.929835,-294.199078 334.123142,-294.929951 C333.914915,-295.831382 333.842263,-296.364459 334.353423,-297 L334.353423,-297 Z M333.89286,-90.4445206 C335.055296,-90.8654047 334.827609,-91.360219 335.273253,-92.2849965 C334.104979,-91.920533 334.403372,-91.1183242 333.89286,-90.4445206 L333.89286,-90.4445206 Z M329.521402,166.484745 C331.467443,166.575536 333.994703,167.86802 335.502885,166.945188 C334.195145,166.145573 331.189159,165.513274 329.521402,166.484745 L329.521402,166.484745 Z M330.672161,167.174761 C329.627137,167.024306 328.211067,166.5042 328.141009,166.945188 C328.789041,167.075539 329.96445,167.866723 330.672161,167.174761 L330.672161,167.174761 Z" id="Fill-2" sketch:type="MSShapeGroup" transform="translate(400.500000, 103.000000) rotate(-270.000000) translate(-400.500000, -103.000000) "></path>
                <path d="M1134.35342,-297 L1303,-297 L1303,503 L1121.00877,503 C1118.38745,497.717225 1111.75728,495.090104 1109.0445,490.809279 C1108.22587,490.86116 1107.66541,490.654285 1107.43383,490.119263 C1109.90854,489.813814 1112.39299,491.433796 1113.87587,492.879977 C1118.5561,493.79373 1121.42976,494.612151 1127.22053,494.949377 C1127.81602,493.92862 1126.60299,494.023951 1126.9909,493.569345 C1127.87959,493.61474 1128.6859,493.577775 1129.29177,493.339123 C1128.63206,491.926665 1125.69483,491.571929 1125.61051,490.349485 C1127.85105,490.708111 1130.85509,492.690611 1132.28283,491.729517 C1130.46069,490.100456 1128.72871,488.382549 1126.53034,487.128976 C1127.41254,486.422098 1129.11662,488.158812 1131.36236,487.128976 C1127.88543,485.161392 1124.6816,482.920136 1121.00877,481.148402 C1122.9107,480.603004 1124.79382,483.139333 1126.76062,482.528435 C1126.72299,481.646459 1125.14346,482.305347 1125.38022,481.148402 C1125.78111,481.165912 1126.09572,481.09717 1126.30005,480.918181 C1127.33729,481.656835 1126.52515,482.829344 1128.37129,482.758656 C1125.65267,475.377946 1116.08852,474.551094 1111.57565,470.108141 C1114.45515,471.477797 1116.1761,472.818271 1119.85801,473.558223 C1119.85217,472.163274 1119.85671,471.931756 1119.62837,471.257303 C1121.67691,471.739796 1122.85361,473.093888 1125.61051,472.868206 C1125.38412,470.640569 1122.96389,470.606846 1121.92924,469.187903 C1124.32677,468.890885 1126.10156,469.383105 1128.37129,468.957681 C1128.67033,468.386343 1127.69601,468.003072 1128.37129,467.807222 C1128.71444,467.683356 1130.86093,467.388932 1131.82227,467.117854 C1131.4629,466.349368 1131.60432,466.508253 1131.13208,465.967394 C1131.40387,465.85585 1131.65361,465.721609 1131.82227,465.5076 C1129.52594,463.644426 1128.03268,461.016657 1125.84014,459.296804 C1126.97728,459.597714 1127.89905,460.005627 1128.60092,459.296804 C1128.11571,458.862302 1127.6558,458.402507 1127.22053,457.916772 C1127.95419,457.720273 1128.0943,458.11781 1128.37129,458.377215 C1128.37518,457.69109 1128.96937,457.594461 1129.06149,456.996534 C1128.26102,455.880445 1126.18848,456.03544 1125.84014,454.46669 C1127.00257,454.696912 1128.27983,454.729986 1129.29177,454.46669 C1127.62142,453.989385 1126.6977,452.766293 1125.61051,451.706625 C1125.88101,451.670308 1126.26373,451.746184 1126.30005,451.476403 C1124.91577,451.1729 1125.3679,450.538655 1123.99983,450.556814 C1120.86606,446.440711 1113.80192,445.692977 1110.19526,442.735764 C1114.9929,444.456265 1118.87461,447.092465 1124.69003,447.7961 C1125.49893,447.275994 1123.94988,446.78507 1124.69003,446.416067 C1125.28681,446.64564 1126.23129,446.82009 1126.53034,446.185846 C1118.5853,441.248078 1110.40089,436.55026 1100.07195,433.995125 C1099.37202,434.010689 1097.96374,434.750641 1098.00071,433.53533 C1100.24839,434.296683 1103.63645,432.757765 1105.36389,434.225346 C1109.28776,433.666978 1113.29725,434.850512 1117.3275,435.605379 C1121.79432,436.441959 1124.81782,437.928996 1128.37129,438.135871 C1127.19199,436.47633 1124.40591,435.414717 1121.92924,434.685141 C1117.79066,433.465939 1113.06243,432.889413 1108.81487,431.925076 C1116.56271,430.493162 1121.97595,435.41342 1129.29177,433.995125 C1128.81369,433.859586 1128.50687,433.55284 1128.37129,433.074887 C1129.35923,433.477613 1130.07602,433.406925 1131.13208,433.305108 C1130.94201,432.654651 1131.45642,432.709126 1131.36236,432.155297 C1130.86093,430.813527 1127.99311,430.619622 1128.14101,429.395232 C1129.55448,430.070981 1129.72703,430.530127 1131.36236,430.314822 C1131.47458,429.637127 1131.33057,427.96267 1130.67216,426.86474 C1128.97586,426.259679 1127.37816,425.557989 1126.07042,424.564469 C1127.05901,424.828414 1130.05267,425.224006 1129.29177,424.334248 C1130.40815,423.788201 1131.35782,424.47692 1132.05255,423.64488 C1130.11105,422.902334 1128.54708,421.781706 1126.76062,420.884166 C1128.12025,419.886107 1129.8931,421.06964 1130.90179,420.884166 C1131.08472,420.347199 1131.13143,419.765484 1130.90179,419.273912 C1130.25246,417.884152 1123.79031,415.78492 1119.16846,414.674019 C1117.502,414.273239 1115.88873,414.506055 1114.56672,414.213576 C1113.83501,414.052097 1113.03259,413.319927 1112.49613,413.293338 C1110.7648,413.208383 1108.45485,413.370511 1107.20419,412.834192 C1110.83291,412.747291 1115.23551,413.19671 1118.7079,413.984003 C1118.52951,414.035235 1118.25447,413.989839 1118.24733,414.213576 C1118.83504,413.670772 1120.68443,414.664291 1119.62837,413.753781 C1120.76356,414.075443 1122.16861,414.127324 1123.30964,414.443798 C1123.87334,414.137052 1122.89513,413.749242 1123.53992,413.52356 C1125.89593,414.755083 1131.43371,413.851706 1134.12314,413.52356 C1133.71382,413.412016 1134.22304,413.278422 1134.35342,413.063116 C1133.68593,411.583861 1132.21797,410.904221 1130.90179,410.073478 C1131.39739,409.8024 1131.93644,409.573476 1132.05255,408.923018 C1131.10224,405.626634 1126.36752,407.536501 1123.99983,405.703158 C1118.80844,405.292651 1114.27611,404.973583 1110.65518,403.863331 C1116.65482,403.973578 1121.78913,405.857504 1127.68109,405.013142 C1128.1462,403.184988 1125.37828,403.581877 1124.22947,402.712871 C1127.57731,402.866569 1130.20706,404.096147 1131.13208,400.873044 C1130.15127,399.92946 1129.49026,400.79198 1128.60092,400.412601 C1129.83342,399.529328 1131.10353,400.314676 1132.74275,399.262141 C1132.14077,399.326993 1131.75286,399.178483 1131.82227,398.572774 C1132.84459,398.146701 1133.13261,397.376918 1134.81334,397.192092 C1135.08773,394.555244 1133.63728,393.022811 1132.28283,391.44174 C1128.33302,391.131103 1122.70896,391.522156 1119.16846,390.291929 C1124.16784,390.660932 1128.29669,391.232271 1133.20266,390.061707 C1132.86859,389.936545 1132.01363,390.33084 1132.05255,389.832134 C1132.3224,389.262741 1133.00871,390.389854 1132.97303,389.371691 C1129.89504,388.249118 1124.77111,387.891788 1121.00877,387.531864 C1121.40965,387.098658 1121.89486,387.845743 1121.46868,387.071421 C1121.10153,387.740036 1116.39081,388.28284 1115.94711,386.382053 C1119.01602,385.959872 1122.80821,387.017594 1126.30005,385.92161 C1125.13308,384.558438 1122.19131,384.968946 1121.46868,383.161544 C1126.0795,383.324321 1133.89027,385.69463 1134.12314,380.861274 C1132.65193,380.721844 1132.59226,379.170604 1131.59199,378.561003 C1132.21018,378.182272 1133.19164,378.166708 1133.66258,377.640765 C1132.36327,376.716636 1130.69551,376.160862 1129.29177,375.340495 C1130.24209,374.738676 1131.31306,375.687448 1132.51247,375.570716 C1130.50415,373.607023 1127.6772,372.2445 1125.84014,370.740602 C1129.22885,371.148516 1130.7753,371.791191 1133.66258,371.890413 C1134.18087,370.930616 1133.08525,370.574583 1132.51247,370.050586 C1133.23899,369.733463 1133.90129,370.619979 1134.12314,370.050586 C1133.41219,369.819067 1134.78415,369.832686 1134.58306,369.359921 C1131.26506,368.071328 1127.24713,368.605702 1125.14994,367.520093 C1126.23908,367.638771 1126.06718,367.810627 1125.61051,367.060299 C1126.75154,367.721132 1129.64984,366.87677 1129.06149,367.520093 C1129.75298,367.75226 1129.46886,367.007769 1129.5214,366.599855 L1131.13208,366.599855 C1128.08263,363.217219 1122.9814,362.819681 1118.24733,360.849503 C1123.16174,360.042755 1128.56006,365.070665 1132.97303,364.760028 C1132.62793,364.490896 1132.0318,364.473386 1131.82227,364.070012 C1132.61301,363.968844 1133.11185,364.160803 1133.66258,364.300233 C1133.94605,362.483752 1132.06747,362.828112 1131.36236,361.999963 C1132.52544,362.016824 1132.67853,361.708781 1133.66258,361.999963 C1131.16905,360.352743 1129.14517,358.236001 1125.84014,357.399422 C1125.81938,356.771662 1126.22351,356.936384 1125.84014,356.479184 C1123.40824,355.843642 1120.68702,355.497337 1118.7079,354.409135 C1122.64344,354.510951 1125.44574,357.018745 1129.98196,356.479184 C1129.34496,355.302784 1128.27723,355.469451 1127.68109,354.639356 C1128.85261,354.614713 1131.08861,354.244413 1131.36236,353.258675 C1131.38766,353.846875 1132.13299,353.715227 1132.74275,353.719118 C1131.09445,351.105617 1122.81469,350.868261 1121.69896,348.428561 C1125.66759,348.824801 1130.40815,351.074488 1132.51247,350.269037 C1132.46252,349.481744 1131.75416,349.577723 1132.51247,349.119226 C1131.93839,349.002494 1131.56734,348.684074 1131.13208,348.428561 C1132.10315,348.522595 1132.4463,349.059563 1132.97303,348.658782 C1131.52193,346.566684 1126.13334,346.669797 1123.53992,344.978479 C1122.85426,345.155523 1119.79444,344.854613 1118.7079,343.828668 C1124.39747,344.351368 1128.44524,346.514803 1134.81334,346.358512 C1133.81502,344.289111 1129.45978,345.577055 1128.14101,343.828668 C1127.37751,344.190538 1125.00269,343.804025 1124.69003,342.907782 C1123.58857,342.935668 1122.52733,342.923346 1121.92924,342.447987 C1122.10763,342.396755 1122.38267,342.44215 1122.38916,342.217765 C1121.43819,341.865624 1119.85217,342.148375 1119.85801,340.837733 C1117.98591,341.556284 1117.18869,339.216454 1114.79635,339.687922 C1115.04934,338.279354 1113.68581,339.258607 1113.87587,338.308537 C1111.51533,338.955104 1110.63247,337.606199 1109.50442,337.387651 C1109.80605,337.391542 1109.79762,338.025786 1109.50442,338.078316 C1109.07045,337.668457 1108.48664,337.409052 1108.58459,336.467413 C1110.38468,336.45574 1114.75743,336.750813 1115.25692,338.538111 C1117.93726,339.317622 1120.69091,339.014767 1122.15888,340.60816 C1125.27125,338.844208 1130.98353,343.114657 1134.12314,341.298176 C1133.82475,340.44668 1132.59939,340.521908 1132.05255,339.918143 C1132.66037,339.911658 1133.49392,340.132801 1133.20266,339.228127 C1130.74611,337.850688 1128.12998,336.632135 1125.38022,335.547824 C1128.34859,335.279988 1131.03153,337.696343 1133.20266,336.697635 C1127.62271,331.220954 1113.57164,330.617839 1105.36389,331.86752 C1105.74337,331.864278 1105.49233,331.229385 1105.8238,331.177504 C1108.2836,331.959609 1110.59096,330.766348 1113.18633,330.487488 C1112.18217,329.651556 1110.65388,329.338325 1109.50442,328.647012 C1116.49265,328.314325 1123.9648,332.278677 1132.74275,332.327315 C1133.11898,331.323419 1134.21785,331.042614 1134.81334,330.257266 C1133.59771,330.169069 1132.96071,329.503696 1132.28283,328.877234 L1132.97303,328.877234 C1128.442,325.834417 1123.50294,324.728705 1116.86759,324.047119 C1116.83126,323.776041 1116.90651,323.394717 1116.63731,323.356454 C1113.46266,323.868779 1110.25559,322.645037 1106.74363,323.586676 C1107.04527,322.538033 1106.71444,322.859695 1106.28372,322.206643 C1109.34808,321.235173 1112.01676,322.120391 1114.79635,322.667087 C1114.32736,322.863586 1113.52883,322.304569 1114.10616,322.206643 C1117.35345,323.242965 1120.92444,322.364232 1122.84907,324.047119 C1123.61257,323.093807 1125.01242,324.634671 1123.99983,323.356454 C1125.70975,323.600295 1128.17863,322.618448 1128.83121,324.047119 C1129.06214,323.741022 1129.04851,323.191084 1129.5214,323.126233 C1129.44291,324.00756 1132.53647,323.190435 1133.20266,322.206643 C1136.71527,321.526355 1142.63448,322.222856 1146.54732,321.287054 C1142.5255,319.782507 1138.11447,319.242945 1133.89286,317.146307 C1130.17981,317.201431 1125.70716,316.169 1121.92924,315.536053 C1128.15333,314.6878 1134.05827,318.233213 1139.64471,316.685864 C1137.19205,315.222174 1134.7342,314.271456 1133.89286,312.775988 C1134.91064,311.896606 1136.07502,313.50686 1137.11421,312.085972 C1136.15416,312.290901 1135.63197,311.404386 1134.81334,311.165734 C1131.59458,310.227337 1127.61039,311.052893 1125.84014,308.63589 C1129.56292,309.21112 1131.13208,308.45301 1133.89286,308.63589 C1135.36796,307.225377 1138.99733,307.604108 1139.87499,305.875176 C1138.51536,305.364149 1137.66753,306.390094 1137.11421,305.18516 C1137.38471,305.149492 1137.76678,305.224719 1137.8044,304.955587 C1135.42829,304.831721 1130.29398,304.638465 1127.68109,303.345332 C1128.69369,302.954928 1129.80033,302.432228 1129.29177,301.735078 C1131.62572,302.488 1133.22861,301.684494 1134.35342,300.81484 C1131.12364,298.177992 1127.42487,299.600827 1122.61944,298.744791 C1119.33387,298.159834 1115.8524,296.872538 1113.18633,296.904315 C1113.09681,296.905612 1113.19476,297.421179 1112.72576,297.364759 C1111.26104,297.189012 1109.87287,296.384209 1108.35431,296.904315 C1108.02023,295.996399 1105.70834,297.135185 1105.36389,295.754504 C1110.45798,297.217546 1115.54558,294.607936 1120.31857,295.984726 C1120.1337,295.109884 1121.40641,295.692247 1121.92924,295.524931 C1122.29056,295.700029 1122.2724,296.254507 1122.84907,296.214948 C1127.47092,295.95684 1127.48649,296.784989 1131.13208,295.754504 C1130.92385,295.27266 1129.83342,295.672792 1129.75168,295.064488 C1131.12818,294.229854 1133.9947,295.539198 1134.12314,293.914677 C1133.85134,293.497035 1132.92373,293.733742 1132.51247,293.454882 C1133.2604,292.710391 1132.24067,292.559288 1131.82227,292.304423 C1134.20033,292.07485 1137.13302,292.400402 1138.03469,290.694168 C1132.34122,288.77652 1124.27098,289.458105 1118.24733,289.314136 C1115.4366,289.246691 1112.41375,290.812846 1110.19526,289.314136 C1118.56194,287.471066 1123.96221,290.155904 1131.13208,286.3232 C1124.60894,285.050821 1118.99396,285.105296 1113.87587,285.864054 C1113.64559,285.214894 1113.53986,285.287527 1113.41596,284.944465 C1113.12016,285.728515 1110.60523,285.497645 1109.96498,285.174038 C1111.03206,285.208409 1112.67906,284.275201 1113.18633,285.174038 C1113.17984,284.832921 1113.2019,284.613075 1113.41596,284.484021 C1115.83424,283.028113 1120.30949,283.886742 1123.53992,283.33421 C1126.53034,282.822535 1129.28398,281.899054 1130.90179,280.343924 C1131.71654,279.954817 1132.21148,280.578036 1132.74275,280.113702 C1132.48393,279.448978 1135.21747,280.063118 1135.96345,279.193464 C1135.85966,279.219404 1135.715,277.514467 1135.04362,278.273226 C1135.68841,278.330295 1131.99547,278.583215 1131.13208,277.813431 C1132.95941,278.189568 1132.04931,277.223286 1133.43295,278.043653 C1133.35381,276.907461 1135.41337,277.333533 1136.19373,277.352988 C1136.51548,276.697991 1136.69646,276.814723 1137.57412,276.433399 C1135.27714,273.985916 1132.13948,274.930149 1129.06149,273.902906 C1124.89955,273.706407 1121.85529,275.277751 1118.7079,274.133128 C1120.57091,274.614324 1123.30964,272.967104 1125.61051,272.753095 C1127.97689,272.53325 1130.66957,273.404201 1132.51247,272.293301 C1129.41891,271.56178 1123.67095,272.24985 1120.5482,271.373063 C1126.41422,270.577988 1131.72821,270.213524 1135.27325,267.922333 C1133.84097,266.982639 1130.92839,268.085758 1129.06149,267.232316 C1131.10807,266.384712 1135.81685,267.426221 1135.27325,264.702473 C1126.17291,264.306881 1118.9505,265.931402 1110.19526,267.232316 C1111.80334,267.122718 1109.85016,266.948268 1109.96498,266.312727 C1110.68956,265.679131 1111.70085,266.69924 1112.26585,266.082505 C1111.27661,265.764735 1112.56294,265.020243 1112.95605,264.702473 C1116.10604,265.041644 1120.17132,262.915175 1124.22947,262.402202 C1127.89192,261.939165 1132.75767,262.082486 1132.97303,259.411915 C1132.0558,258.570796 1131.25987,259.54486 1130.2116,258.721899 C1131.69254,258.438499 1133.3097,258.291936 1133.66258,256.882071 C1131.95331,256.61683 1130.33939,257.630454 1129.29177,256.65185 C1128.61844,257.135639 1126.84819,257.728379 1125.84014,257.112293 C1127.89581,256.482588 1131.40517,256.585702 1134.12314,255.041596 C1134.40726,254.297753 1133.37846,254.865849 1133.66258,254.121358 C1134.0466,253.819151 1135.70592,252.996839 1136.19373,252.051309 C1135.02805,251.052601 1132.29711,251.518232 1131.36236,250.900849 C1131.95266,251.012393 1134.32812,251.176466 1134.58306,250.210833 C1133.17088,250.197214 1130.42177,250.066863 1129.29177,249.061022 C1132.6701,249.070749 1135.17076,247.480599 1137.34449,246.990973 C1136.49926,246.738702 1135.36472,246.422228 1135.04362,246.300956 C1135.22979,245.413793 1136.88652,245.996804 1137.11421,245.151145 C1136.72305,245.202378 1136.54467,244.891741 1137.11421,244.920924 C1136.88912,244.191997 1136.58229,244.71794 1136.19373,243.540891 C1137.46904,243.408595 1137.64483,243.116116 1138.72488,242.390432 C1138.02106,241.852815 1135.06178,242.487708 1134.58306,242.16021 C1136.47331,241.289907 1139.13809,241.194576 1140.33491,239.630366 C1138.84294,239.730237 1137.55012,239.870964 1136.65364,239.630366 C1137.06361,239.503258 1137.6098,239.512337 1137.8044,239.170572 C1136.02702,238.110904 1133.20591,238.093394 1130.67216,237.790539 C1132.87703,237.771084 1134.88729,237.557723 1136.42401,236.870301 C1133.98043,235.256804 1130.92969,237.106359 1128.83121,235.490268 C1132.0052,235.136829 1135.11952,234.723728 1137.11421,233.189998 C1136.80868,232.959128 1136.25795,232.972746 1136.19373,232.499981 C1136.9209,232.536947 1137.58256,232.508412 1137.8044,232.040187 C1137.41649,231.660807 1136.77041,231.540184 1136.42401,231.1193 C1137.42882,230.747055 1137.69543,231.288562 1138.4946,230.889727 C1137.64872,230.523318 1139.42546,230.942257 1138.95516,230.199711 C1132.64674,226.734713 1122.75177,230.892321 1115.94711,230.429932 C1114.58164,231.434477 1111.49327,232.225012 1110.19526,231.349522 C1111.42127,230.431229 1112.34693,230.352111 1113.18633,230.429932 C1112.96448,230.112162 1113.38028,229.443546 1114.56672,229.0499 C1114.65299,229.617996 1113.12924,229.730188 1113.87587,230.199711 C1114.61213,229.317735 1114.02961,231.064825 1114.33644,230.889727 C1114.73343,230.750297 1114.31892,229.798282 1114.79635,229.739916 C1115.27638,230.055741 1115.81024,229.720461 1115.02663,230.429932 C1116.84164,229.644585 1118.9784,229.060276 1120.08829,229.280121 C1119.9099,229.22824 1119.63421,229.273636 1119.62837,229.0499 C1120.50215,229.153013 1121.26564,228.453918 1121.92924,229.0499 C1126.51087,226.878034 1132.7914,228.6141 1137.34449,226.059613 C1136.49277,225.451309 1134.78415,225.510972 1133.89286,226.059613 C1134.25482,226.081662 1134.69074,226.028484 1134.58306,226.519408 C1131.72367,226.568046 1129.38907,225.562204 1127.22053,225.59917 C1129.75233,224.91045 1132.47614,224.412393 1134.35342,223.069326 C1133.13974,222.412384 1131.45317,223.416928 1130.44188,222.839104 C1132.6701,221.846882 1135.35304,221.309265 1136.42401,219.158801 C1135.59046,218.995376 1134.51624,219.0719 1133.89286,218.699006 C1134.59668,218.865674 1134.56943,218.302117 1135.27325,218.468785 C1135.31996,217.272281 1134.17179,217.270335 1133.43295,216.85853 C1133.18061,216.301459 1134.77182,215.456448 1134.35342,214.788481 C1133.75664,214.219088 1133.22472,215.012218 1132.28283,214.788481 C1133.00157,214.091332 1131.53037,214.566042 1131.59199,213.868244 C1132.80048,213.667853 1133.87794,214.002485 1134.35342,212.718432 C1133.62625,212.755398 1132.9646,212.726863 1132.74275,212.257989 C1134.05438,212.079 1131.51155,211.013496 1132.28283,210.648384 C1134.28401,210.121144 1136.32347,208.049798 1138.72488,207.198302 C1138.81894,206.106857 1137.30492,206.623721 1136.88393,206.047842 C1138.02041,205.920734 1136.64456,205.929813 1136.65364,205.588048 C1137.6098,205.556271 1136.70035,205.436296 1136.65364,205.127604 C1137.29714,204.464826 1138.48422,205.3909 1138.26432,204.207366 C1137.99252,203.588686 1137.06491,204.208663 1136.65364,204.207366 C1135.715,202.548474 1130.79346,204.243683 1128.83121,203.057555 C1132.19916,202.547825 1135.38872,203.301396 1138.72488,201.677523 C1138.32854,200.693082 1136.70489,200.936274 1135.73317,200.527712 C1136.34812,200.375311 1137.17129,200.431083 1137.57412,200.067268 C1137.23357,200.025115 1137.3633,199.511494 1137.34449,199.147679 C1135.88366,199.033541 1135.43672,199.336396 1134.81334,198.457014 C1135.56516,197.996571 1136.41688,197.831849 1136.88393,198.687236 C1137.14599,196.55039 1135.58592,197.662588 1134.81334,196.617187 C1135.9894,196.433658 1135.05205,195.11264 1134.12314,194.776711 C1135.51975,194.449213 1136.04259,194.676192 1136.88393,193.856473 C1136.35914,193.921324 1136.01924,193.801998 1135.96345,193.397327 C1136.10356,192.999789 1137.05453,193.414837 1137.11421,192.936884 C1133.44397,192.556856 1130.44253,191.953092 1127.68109,192.246867 C1127.2095,190.382396 1124.60894,193.00368 1123.30964,191.787073 C1126.9896,190.270852 1133.41932,189.877854 1137.8044,188.336991 C1137.98279,187.161239 1136.39612,187.750736 1136.19373,186.95631 C1136.75614,186.828553 1137.03442,186.416748 1137.34449,186.036072 C1136.70294,185.833736 1135.94464,185.74943 1135.50289,185.346056 C1136.80673,185.20468 1135.43413,184.890152 1135.96345,184.425818 C1135.14287,184.771474 1135.28817,184.655391 1134.81334,185.346056 C1134.44035,184.604807 1133.46733,185.15669 1134.35342,185.576277 C1133.33045,185.473164 1133.1352,185.279907 1132.51247,185.576277 C1132.4463,185.232566 1132.21667,183.91479 1131.82227,184.656039 C1132.12391,184.65993 1132.11548,185.294175 1131.82227,185.346056 C1130.97834,184.04125 1127.01295,185.879781 1123.76955,184.886261 C1125.59559,184.879127 1129.99559,183.709861 1129.29177,184.656039 C1131.15543,183.625554 1133.42257,184.169007 1135.04362,182.356417 C1135.15779,181.875222 1134.31126,181.951746 1133.89286,181.436179 C1134.33267,181.339551 1134.8834,181.352521 1134.81334,180.746163 C1134.22888,180.410234 1133.93113,179.788311 1133.20266,179.596352 C1134.91259,179.388828 1137.30946,179.868078 1138.03469,178.676114 C1135.60084,178.245502 1130.97899,179.339541 1128.14101,178.215671 C1131.10678,178.357695 1133.1832,177.799326 1135.96345,177.296081 C1135.58657,176.51657 1134.97745,176.476363 1135.96345,175.916049 C1134.76144,174.483486 1132.92179,176.232522 1132.05255,174.305794 C1134.35083,174.424472 1134.6583,174.679337 1136.42401,174.075573 C1136.35266,172.997746 1134.59862,173.161171 1134.81334,172.465318 C1134.98005,171.94197 1136.12562,172.397225 1135.96345,171.54508 C1134.79777,170.946504 1133.50106,170.480873 1132.74275,169.475031 C1133.02168,168.873213 1137.76159,170.12484 1136.65364,168.555442 C1136.88263,167.940653 1138.64639,168.860243 1138.4946,167.865426 C1130.68124,169.903049 1133.9694,168.079435 1127.03241,167.070351 C1127.0402,165.31483 1124.66603,166.751931 1124.27163,166.380334 C1124.66603,166.440646 1125.72078,165.860876 1124.73219,165.919891 C1123.8701,166.294731 1120.51382,166.642981 1118.05922,165.919891 C1118.70011,165.181236 1120.72205,165.822614 1121.27991,165.000302 C1120.43014,164.853738 1118.98877,165.297968 1118.51978,164.77008 C1122.5163,164.784347 1124.8535,164.869951 1128.41281,165.919891 C1133.96357,164.235706 1130.76103,166.105365 1136.42401,164.875139 C1134.68944,162.903015 1135.70203,162.765531 1133.15985,162.083296 C1129.7945,161.181217 1128.38426,159.727902 1125.19211,159.061881 C1125.29265,158.527507 1126.20729,158.445795 1125.65202,157.91207 C1122.91848,156.97951 1120.1551,156.48275 1118.30636,156.537225 C1119.4435,155.985342 1119.44804,154.856283 1121.05028,154.46134 C1122.00579,154.22593 1123.02227,154.495062 1124.04135,154.231118 C1126.70872,153.540453 1127.54552,153.447068 1130.19798,152.778452 C1133.26169,152.004778 1130.65919,150.728507 1132.05255,148.543672 C1131.17035,148.585176 1131.96887,148.354955 1131.82227,147.853007 C1132.54815,147.812151 1133.19423,147.692176 1133.20266,146.933417 C1129.9904,147.389321 1131.54918,149.971046 1128.55876,149.003466 C1128.91229,149.05859 1128.59314,149.382197 1128.32913,149.46391 C1121.88773,148.449637 1120.07013,150.127985 1115.38211,149.651978 C1118.34009,148.450934 1118.12214,148.953531 1120.94584,148.543672 C1122.30159,148.346524 1120.61437,148.821883 1122.0752,148.773893 C1125.90112,148.647433 1126.17097,147.778428 1129.33328,147.163639 C1131.05748,146.828358 1130.89077,146.67077 1132.51247,146.013828 C1132.75053,144.089046 1130.76752,144.384118 1129.75168,143.712909 C1130.54891,143.666864 1131.24689,143.521598 1131.13208,142.563098 C1130.67476,141.717439 1128.61909,142.468415 1127.91138,141.873081 C1129.05241,141.864002 1129.80682,141.46841 1130.2116,140.72327 C1129.92618,139.781632 1129.04462,139.436623 1128.37129,138.882795 C1130.50545,138.639603 1132.50404,138.260872 1134.12314,137.502762 C1133.65155,135.732325 1134.35018,134.956705 1135.27325,134.05268 C1134.88145,133.448267 1133.51144,133.820513 1132.97303,133.362664 C1133.65739,133.19016 1135.24341,132.992364 1135.73317,131.982631 C1134.73096,131.528025 1133.31878,131.483277 1132.74275,130.60195 C1132.84913,129.865241 1133.61912,129.791311 1133.66258,128.992344 C1133.17347,128.336051 1132.19786,128.85032 1131.82227,128.53255 C1132.34641,128.052003 1133.01001,127.573401 1132.51247,126.692074 C1131.45188,126.969637 1129.81266,127.858098 1128.83121,127.38209 C1131.40322,126.119438 1135.4951,126.376897 1136.19373,123.241992 C1133.75339,122.500743 1132.15699,124.120077 1130.44188,122.781549 C1131.05813,122.324997 1132.16153,122.35418 1132.51247,121.631089 C1132.19072,120.699827 1130.678,121.172592 1130.2116,120.941722 C1131.25014,120.478684 1130.34717,120.189448 1130.67216,119.56104 C1129.29047,119.483867 1125.13243,120.167399 1123.76955,119.791262 C1127.48454,117.984509 1132.05061,117.0299 1134.81334,114.271131 C1134.12768,111.982534 1131.41685,113.573333 1129.29177,113.580467 C1129.64984,112.679684 1129.17955,112.145959 1129.5214,111.511066 C1132.14013,111.292518 1134.81658,111.131038 1135.73317,109.210795 C1134.45591,109.362547 1133.15207,108.858005 1132.51247,108.751001 C1132.986,109.099251 1130.62546,109.725065 1129.75168,109.210795 C1130.7247,108.62065 1133.60225,107.945549 1134.35342,107.830763 C1134.80361,107.217271 1135.20384,105.487042 1136.19373,106.450082 C1136.20476,105.356043 1135.65792,105.893659 1135.27325,105.530492 C1135.34136,105.051242 1135.89599,105.871609 1135.96345,105.070049 C1135.00535,104.158242 1133.63209,104.848907 1132.51247,104.380033 C1132.68502,103.94553 1133.19942,104.220499 1132.74275,103.690016 C1131.81708,104.114143 1130.61962,104.348256 1129.06149,103.920238 C1130.72665,103.783402 1131.53555,103.658239 1132.97303,103 C1133.16828,102.131643 1132.20824,101.920228 1132.74275,101.389746 C1135.35499,101.274311 1135.33747,99.2314992 1137.57412,98.4001073 C1135.57229,97.8670308 1134.08422,98.9565303 1132.05255,98.6303289 C1133.84226,97.5823342 1136.04778,96.9500354 1137.8044,95.8696151 C1133.64766,94.4286224 1131.33576,96.4746764 1128.83121,96.5596315 C1128.73131,95.9779166 1130.36274,95.973377 1129.75168,95.6393935 C1128.00154,96.6646903 1127.6052,98.1316235 1125.84014,97.4798694 C1127.68304,95.4091719 1133.47187,95.5064486 1134.35342,91.7295172 C1132.42165,90.8994223 1130.14673,92.6607798 1128.60092,92.1893119 C1130.75779,91.6880124 1132.91465,90.1302876 1134.81334,90.1192629 C1134.45591,89.4798305 1133.68204,89.2567425 1133.20266,88.7392302 C1133.96746,88.2003171 1134.91907,87.8481753 1135.27325,86.8994029 C1135.0274,86.3014752 1133.90908,86.5764441 1133.66258,85.9791649 C1134.31839,85.7904481 1134.83085,85.4597072 1135.04362,84.8287054 C1133.98238,84.356589 1132.1531,84.6510132 1131.13208,84.1386891 C1135.42764,82.4694202 1133.47122,79.5563062 1129.06149,80.2288127 C1126.54655,80.6114346 1122.57274,82.2417927 1120.5482,82.0686401 C1123.96221,80.3435993 1129.42605,80.6691521 1132.28283,78.3883368 C1131.93255,74.8772951 1126.40903,78.7651221 1124.4591,77.6983205 C1125.63516,77.9927448 1124.703,77.0277595 1125.14994,77.0083042 C1128.94018,75.6853406 1134.73355,74.5128316 1136.88393,70.7981573 C1134.95475,69.3013925 1130.6261,72.4187877 1128.37129,71.7177467 C1130.47691,70.6029553 1133.2098,70.114626 1134.35342,68.0374434 C1132.373,67.987508 1131.90855,68.9855674 1130.44188,68.0374434 C1130.63648,67.5419806 1131.90855,68.124344 1132.05255,67.5776487 C1131.89363,66.9732359 1131.9812,65.2002053 1132.05255,63.8973455 C1129.19901,62.5147188 1127.39373,64.4550654 1124.4591,64.1269186 C1127.90878,62.696302 1132.85303,62.1269089 1135.04362,58.8363611 C1130.3355,57.6969262 1125.2693,61.0938299 1121.46868,61.5970749 C1125.32314,58.3960217 1132.70642,58.7235201 1135.96345,54.9264847 C1135.55283,54.6469762 1134.62522,54.88498 1134.35342,54.46669 C1133.29997,51.6826298 1128.42578,54.8506089 1126.30005,54.9264847 C1128.36934,54.0814741 1130.64751,53.4452843 1132.05255,51.9368463 C1131.97666,51.3992302 1131.77622,50.9861283 1131.59199,50.5561652 C1133.29348,50.0334648 1134.16141,48.6774271 1135.73317,48.025673 C1134.52986,47.6294324 1132.38727,48.0691232 1131.59199,47.5658782 C1132.45603,47.2792361 1133.09433,46.766912 1134.35342,46.8758619 C1134.68944,45.9095797 1134.9554,44.8713126 1135.50289,44.1157966 C1134.51365,44.0191684 1133.4816,44.5665122 1132.51247,44.1157966 C1133.72939,43.8829809 1133.97265,42.7266848 1134.58306,42.2759692 C1135.58267,42.2779148 1136.15351,41.8518427 1136.19373,40.8959366 C1134.63949,40.4277112 1132.15504,41.2967167 1130.90179,39.9750501 C1132.07007,39.6469033 1133.78064,37.5398891 1132.97303,36.7545416 C1133.17542,37.559993 1130.04748,38.3375584 1129.98196,37.6754281 C1128.92072,38.8401549 1126.41811,39.7830907 1124.92031,39.745477 C1126.7671,38.1858067 1131.30852,38.202668 1130.90179,35.1449359 C1131.91957,34.8589422 1132.15894,33.7947347 1133.43295,33.7649032 C1133.52117,32.8336406 1132.80502,32.7058838 1132.51247,32.1552974 C1132.03958,32.6786463 1130.52556,32.1611341 1129.98196,32.6150922 C1130.96666,31.7603539 1131.05553,30.5865479 1130.90179,29.8550269 C1131.63156,29.7104088 1133.20461,28.5554096 1133.66258,26.8647399 C1131.78854,26.3757622 1130.99066,28.1740848 1129.5214,27.3238861 C1132.28478,26.0813379 1134.12898,25.608573 1136.42401,22.4937719 C1130.15516,23.1267192 1123.63138,26.9406158 1117.55714,27.5541078 C1122.77123,25.3647326 1129.80942,23.118937 1133.66258,18.8141171 C1130.68708,17.6247469 1129.10949,20.9619875 1126.9909,19.5041335 C1129.15684,18.4496536 1130.68903,16.7609294 1132.74275,15.5936086 C1132.06488,15.4632578 1129.91126,15.6130639 1129.29177,16.2836249 C1129.0083,15.281026 1130.31733,14.6869894 1129.06149,13.7537812 C1129.48313,13.7414595 1129.84055,14.9321268 1130.2116,14.2135759 C1129.46691,13.7641574 1132.0305,11.3717982 1132.28283,11.223289 C1133.76377,10.3477984 1136.31893,10.5929358 1137.57412,8.69279682 C1135.19995,8.14480453 1131.92022,9.74144005 1129.5214,9.15324004 C1130.3076,8.71160366 1131.7081,8.88605327 1131.82227,7.77320739 C1130.61637,7.45932779 1127.54163,8.15518072 1126.30005,7.77320739 C1129.95926,6.29330396 1134.61744,5.81405389 1136.19373,2.25242827 C1135.80128,1.64801547 1134.43191,2.02090963 1133.89286,1.56241194 C1134.57333,1.4982093 1135.21228,0.774470369 1135.73317,-0.0478423209 C1135.39326,-0.0906440855 1135.52235,-0.603616749 1135.50289,-0.967431748 C1134.50327,-0.936303192 1133.98822,-0.156792267 1132.51247,-0.737858647 C1132.67788,-1.56860199 1133.84875,-1.39480088 1133.89286,-2.3474644 C1133.10212,-2.44863221 1132.60328,-2.25732129 1132.05255,-2.1178913 C1132.02401,-3.85006574 1129.62324,-3.96420378 1128.83121,-4.64773499 C1131.57123,-5.5887253 1135.9148,-4.92659497 1136.88393,-7.63867042 C1135.19411,-8.52388873 1132.37495,-7.40585476 1131.59199,-8.55825985 C1132.27765,-8.76448653 1132.1531,-9.19574674 1132.28283,-9.47849779 C1136.00496,-10.2807066 1139.47865,-11.3312954 1141.71595,-13.6185957 C1139.54092,-14.3792998 1137.23681,-12.877347 1135.50289,-14.0783905 C1136.84111,-14.6257342 1139.7245,-14.2729439 1140.56519,-15.9188663 C1139.0369,-15.6069323 1138.11901,-14.6847488 1136.19373,-14.7690553 C1136.12562,-15.2366321 1135.73252,-15.3812502 1135.50289,-15.6886447 C1136.41882,-15.7664661 1137.20373,-16.1490879 1137.8044,-17.0686774 C1137.5365,-17.1075881 1137.55466,-17.4324924 1137.57412,-17.7586937 C1135.78052,-18.7593471 1134.35926,-16.8475349 1132.74275,-17.7586937 C1134.50327,-18.8358714 1132.53712,-20.9811478 1131.13208,-20.7489806 C1131.71978,-20.8514455 1132.19007,-21.0712909 1132.51247,-21.4396455 C1131.92671,-21.8495048 1132.26792,-22.0609196 1131.59199,-22.5894565 C1133.69372,-22.8508067 1135.77079,-22.8987965 1137.11421,-24.4292839 C1134.11406,-25.6024413 1130.16035,-23.7211092 1128.83121,-24.4292839 C1128.44005,-24.042771 1127.23999,-23.2749332 1126.53034,-23.9688406 C1127.86986,-25.2159284 1130.5554,-26.1588643 1131.59199,-25.8093165 C1132.42165,-26.9759889 1136.14054,-27.2405816 1136.88393,-29.2593981 C1135.23174,-30.5259413 1132.49755,-28.0842952 1130.67216,-28.7996034 C1132.0532,-29.948766 1134.4131,-30.119973 1135.04362,-32.020112 C1134.64728,-33.3009223 1132.55333,-32.220502 1131.82227,-32.7101283 C1132.77908,-33.8236227 1134.05503,-34.6180494 1134.58306,-36.1602099 C1134.66803,-36.9351813 1133.61587,-36.5739603 1133.66258,-37.3106695 C1133.51208,-37.8281817 1134.34759,-37.762682 1134.58306,-38.4604805 C1134.60835,-40.0006955 1132.58317,-40.2581546 1132.51247,-40.9903242 C1131.59848,-40.8995326 1130.43539,-39.8573745 1129.5214,-40.5305295 C1131.3922,-41.1077048 1135.01508,-41.7425976 1131.82227,-44.2108327 C1136.98058,-45.1829516 1134.66414,-49.2795993 1130.67216,-49.2711686 C1132.19202,-49.4767468 1132.09472,-50.7465325 1132.28283,-51.8010123 C1133.49587,-52.1985499 1134.37288,-52.9320165 1134.58306,-54.332153 C1134.40402,-54.3827369 1134.3158,-54.5241125 1134.35342,-54.7919478 C1133.78518,-55.5299539 1132.34316,-54.3496629 1132.28283,-55.2517425 C1132.88092,-55.4404593 1133.21434,-55.9741844 1133.20266,-57.0915698 C1130.94136,-57.6531809 1129.74779,-55.9599171 1127.91138,-56.8619967 C1130.58718,-58.3140142 1133.95448,-59.8224521 1134.12314,-63.0721437 C1133.31424,-62.5721412 1131.5148,-61.8529419 1130.44188,-62.3821273 C1132.23483,-63.3445185 1134.33007,-64.0799307 1135.04362,-65.8328575 C1134.76274,-65.858798 1134.49873,-65.9009512 1134.58306,-66.2926522 C1132.58901,-66.059188 1130.62546,-65.8659316 1129.5214,-65.8328575 C1128.66255,-64.658403 1124.54408,-64.3120978 1123.99983,-63.7628085 C1124.05497,-64.1155988 1124.37866,-63.7958826 1124.4591,-63.5325869 C1123.87074,-63.6395913 1123.15525,-62.7187049 1122.84907,-63.3023653 C1123.549,-63.5325869 1123.14293,-63.6817446 1122.84907,-63.9923816 C1123.99075,-64.0429655 1123.82404,-64.715472 1123.76955,-64.9126195 C1124.49932,-64.2628109 1125.84792,-64.8672237 1124.92031,-65.3724143 C1125.69354,-65.5527005 1126.4259,-65.4677455 1127.22053,-66.0624306 C1126.55434,-66.1914844 1127.57341,-66.421706 1127.45081,-66.7524469 C1127.15307,-67.3639933 1126.4992,-67.2615285 1126.30005,-67.4424632 C1126.87089,-67.5617894 1127.11999,-68.0034258 1127.45081,-68.3627012 C1127.59741,-68.1694447 1128.52633,-67.6428533 1128.60092,-68.1324796 C1128.2954,-68.3633497 1127.74467,-68.3503795 1127.68109,-68.8224959 C1131.25273,-70.2634886 1133.57241,-71.2414441 1135.96345,-74.343275 L1133.66258,-74.343275 L1133.66258,-75.2628644 C1132.66166,-75.6247339 1130.78827,-74.315389 1131.36236,-75.2628644 C1130.07602,-75.0157815 1129.24247,-74.315389 1128.14101,-73.8828318 C1128.40048,-75.0041083 1129.91126,-74.873109 1129.75168,-76.413324 C1129.85547,-77.0534049 1128.49778,-76.2330378 1128.60092,-76.8731187 C1129.93721,-78.3523736 1129.84639,-80.3536804 1131.82227,-81.4736599 C1131.42658,-81.5644515 1131.23262,-81.1325428 1131.13208,-81.4736599 C1132.61885,-82.9775583 1134.70306,-83.8835289 1135.73317,-85.8439795 C1134.35277,-86.0767951 1132.4223,-84.920499 1131.82227,-85.8439795 C1132.72783,-86.6779654 1134.73679,-86.9302364 1134.58306,-88.1442501 C1132.21018,-89.510664 1127.98987,-87.8913305 1125.38022,-87.6838068 C1125.6384,-87.635817 1125.7383,-87.4289418 1125.84014,-87.2240121 C1122.93081,-86.3368483 1119.125,-84.896504 1116.40767,-83.5443574 C1118.29534,-85.2817199 1118.56259,-85.9444988 1121.23905,-86.5339958 C1118.61903,-86.1967698 1124.99491,-89.5087184 1125.84014,-89.2947096 C1126.00944,-89.2512593 1126.04188,-88.5995052 1126.30005,-88.6040448 C1126.64775,-89.1345272 1125.81484,-89.7720141 1126.30005,-90.2149475 C1127.0402,-89.7395886 1127.43135,-90.4769462 1126.76062,-90.4445206 C1128.90191,-91.7862911 1129.45524,-91.89135 1132.05255,-93.4348076 C1130.92644,-93.9873394 1133.67944,-95.1034279 1132.74275,-96.1942244 C1130.06435,-96.0962991 1129.51621,-95.4581637 1127.91138,-95.2746349 C1129.8665,-96.8583002 1133.73588,-97.7169296 1133.43295,-100.795414 C1132.03634,-101.17609 1131.21381,-100.078809 1130.67216,-100.334971 C1131.37209,-101.504237 1131.26181,-101.938091 1130.67216,-103.095685 C1129.51037,-103.25911 1128.99208,-102.781157 1128.14101,-102.635241 C1128.17669,-103.366762 1128.6632,-103.647568 1128.60092,-104.475069 C1128.10209,-104.346015 1127.17707,-103.466633 1126.76062,-104.015274 C1128.77542,-105.215021 1128.78515,-107.02761 1130.2116,-108.846037 C1130.30306,-109.780542 1129.23274,-109.553563 1129.06149,-110.22607 C1130.5567,-112.268881 1134.38132,-113.172258 1134.81334,-115.516627 C1132.39765,-114.771487 1129.45913,-112.943982 1126.9909,-113.676151 C1129.46497,-114.576285 1132.06423,-115.350608 1133.66258,-117.126233 C1133.68723,-118.739081 1134.06217,-119.795506 1132.74275,-120.346741 C1132.27181,-119.905753 1130.20835,-119.737789 1129.98196,-121.266331 C1130.91023,-122.763744 1133.09044,-122.99656 1132.74275,-125.177504 C1135.19606,-126.40384 1137.06685,-128.214484 1138.4946,-130.467413 C1136.56737,-130.929802 1134.07384,-130.491408 1133.20266,-130.00697 C1133.32786,-131.072474 1134.01027,-131.069232 1133.43295,-132.077019 C1133.7255,-131.322151 1132.26597,-131.903218 1132.05255,-132.077019 C1133.47965,-132.288434 1134.78934,-132.421379 1135.27325,-133.917495 C1135.29725,-135.273532 1134.1666,-135.122429 1134.58306,-134.607511 C1133.82864,-135.539422 1135.54116,-134.966138 1134.58306,-135.988192 C1133.27726,-135.626323 1133.9973,-135.650966 1133.43295,-135.067954 C1132.46317,-135.630214 1132.18618,-135.857841 1131.13208,-135.988192 C1133.21694,-136.539427 1134.66414,-139.240478 1135.04362,-141.278101 C1134.27883,-141.072523 1133.37456,-141.276804 1132.28283,-141.508323 C1133.58474,-141.83193 1131.74508,-143.081612 1131.82227,-144.26774 C1132.96135,-145.333244 1134.36769,-146.903291 1133.89286,-148.868281 C1133.02168,-148.957775 1132.24327,-149.007711 1132.05255,-150.248962 C1132.79205,-151.007072 1132.4943,-152.231462 1131.59199,-152.549233 C1132.09666,-153.25611 1132.5209,-154.844315 1133.43295,-155.769741 C1133.00157,-156.739266 1132.80956,-157.470138 1133.20266,-158.529158 C1132.5929,-158.799587 1131.84822,-158.088819 1131.82227,-158.529158 C1132.11742,-159.43448 1131.14375,-160.081046 1132.28283,-160.829428 C1131.52582,-160.482475 1130.2356,-160.495445 1129.98196,-161.289872 C1131.27024,-161.221778 1130.9725,-162.533068 1132.28283,-162.899477 C1132.02466,-162.948764 1131.92411,-163.154991 1131.82227,-163.359921 C1133.63923,-164.970175 1135.13703,-167.742562 1136.19373,-170.030511 C1135.29596,-170.448152 1134.15428,-169.379405 1133.20266,-169.110273 C1134.10692,-170.258787 1134.57916,-171.101203 1135.50289,-172.560355 C1134.8568,-172.708215 1134.43451,-172.227668 1133.66258,-173.020798 C1136.57451,-175.439746 1140.55416,-178.58373 1140.10527,-182.911248 C1140.21425,-181.820451 1139.81856,-182.657031 1139.41508,-182.221232 C1139.3048,-182.944971 1139.74266,-183.120069 1139.87499,-183.601264 C1136.30465,-184.675848 1132.97757,-184.071435 1129.29177,-183.371691 C1130.86287,-185.940446 1134.82177,-186.123326 1137.11421,-187.971584 C1136.64132,-188.449537 1134.44424,-188.066915 1135.04362,-188.891822 C1134.4637,-188.672625 1134.12768,-188.131118 1133.66258,-188.891822 C1133.85718,-189.843837 1134.90999,-189.251746 1134.35342,-190.502076 C1135.54505,-190.199221 1136.79895,-192.356171 1138.03469,-193.032568 C1139.01809,-193.570833 1139.42092,-194.175894 1139.1848,-195.33219 C1138.39146,-195.382774 1137.43076,-194.659035 1136.42401,-194.872396 C1137.50212,-195.410012 1138.42,-196.523506 1139.41508,-196.48265 C1139.01873,-196.46968 1138.82478,-196.659045 1138.72488,-196.942445 C1139.7005,-197.475521 1142.38279,-199.025464 1141.02575,-199.70251 C1141.46037,-199.804326 1142.41198,-199.389927 1142.17586,-200.162953 C1137.9763,-200.886692 1134.06671,-198.022216 1131.13208,-198.092256 C1131.74638,-199.625337 1134.044,-199.474234 1135.04362,-200.622748 C1134.9567,-201.498887 1133.51533,-200.318596 1132.97303,-201.082543 C1134.25418,-202.343898 1134.74133,-204.253116 1134.35342,-204.762846 C1135.25379,-206.239507 1136.3546,-207.516426 1137.34449,-208.902944 C1135.76041,-208.867276 1135.19087,-207.738217 1133.66258,-208.213576 C1135.90831,-209.167536 1139.67196,-209.814751 1140.10527,-211.203214 C1136.91117,-212.029418 1132.06099,-210.32513 1129.75168,-210.053403 C1130.95239,-210.539787 1131.90271,-211.276496 1132.97303,-211.893879 C1132.75702,-213.054066 1130.78827,-212.50348 1130.67216,-212.583896 C1133.07487,-213.938636 1135.21163,-215.559267 1136.65364,-217.873805 C1134.09071,-220.190936 1130.24468,-218.553445 1126.9909,-218.104026 C1128.73196,-220.056046 1131.84433,-219.438663 1133.89286,-219.71428 C1134.36575,-220.301832 1133.19423,-220.719473 1133.20266,-221.554108 C1135.74484,-222.225966 1137.59293,-224.583954 1137.8044,-226.844665 C1137.11291,-227.226639 1136.44736,-227.634552 1136.65364,-228.914714 C1134.92037,-229.313549 1133.51014,-227.689027 1131.82227,-227.30446 C1131.49469,-229.02561 1133.44722,-228.858294 1135.27325,-230.524969 C1135.55413,-230.781131 1135.40558,-231.624844 1135.96345,-231.215633 C1136.32152,-232.032109 1135.18179,-231.353766 1135.27325,-231.905001 C1136.88263,-234.589839 1140.33945,-235.427716 1141.02575,-239.035386 C1137.87122,-239.311003 1135.06632,-236.375192 1132.51247,-237.195559 C1131.99482,-236.769487 1129.55643,-236.713066 1128.37129,-236.505542 C1131.06137,-237.904382 1140.73449,-240.904396 1136.65364,-243.635927 C1134.09071,-242.796753 1133.60095,-242.094415 1131.13208,-241.795451 C1132.61301,-243.074965 1133.71772,-244.730615 1135.27325,-245.936198 C1135.58592,-247.163182 1135.11562,-247.179395 1135.50289,-248.466042 C1136.21124,-248.143083 1136.85474,-248.642437 1137.57412,-248.926485 C1135.77857,-248.93297 1135.36212,-249.367473 1133.89286,-249.156706 C1133.73718,-250.073702 1133.16893,-250.578892 1132.97303,-251.456328 C1132.19786,-251.602244 1130.83563,-251.159959 1130.44188,-251.68655 C1134.22239,-254.087988 1134.78609,-254.993311 1137.8044,-257.436902 C1135.72668,-257.48165 1133.63923,-256.968677 1132.74275,-257.667124 C1132.1784,-256.507585 1131.28646,-257.102919 1130.44188,-256.287091 C1129.79125,-257.004994 1131.2164,-257.042607 1131.36236,-257.667124 C1130.75065,-257.796826 1130.19084,-256.720945 1129.75168,-257.436902 C1130.4581,-257.975167 1129.93072,-257.660639 1129.5214,-258.127567 C1131.30657,-259.746901 1134.22563,-259.888276 1134.35342,-262.267017 C1134.32099,-262.647044 1133.39338,-262.027067 1132.74275,-262.267017 C1132.94254,-263.482976 1132.18034,-262.300091 1132.05255,-263.187254 C1132.44241,-264.036156 1132.938,-264.326689 1132.51247,-265.027082 C1130.74157,-265.077666 1130.14543,-264.300749 1129.06149,-264.797509 C1130.73249,-265.196992 1131.38636,-266.61399 1132.97303,-267.097779 C1133.16893,-270.009596 1136.50834,-270.605578 1136.88393,-272.61791 C1137.20048,-272.627638 1137.38925,-272.509609 1137.57412,-272.388337 C1137.48915,-274.275506 1138.30713,-275.357223 1136.65364,-276.98823 C1137.10383,-278.071892 1138.89354,-277.816379 1139.1848,-279.058278 C1136.08345,-280.191228 1133.70409,-276.056318 1132.05255,-277.218451 C1131.45252,-277.639984 1131.08797,-277.25801 1131.13208,-277.218451 C1130.52686,-277.762552 1130.38155,-279.073194 1129.5214,-280.208738 C1131.21511,-280.968794 1132.87897,-281.758681 1133.89286,-283.199025 C1133.04179,-285.95909 1134.39689,-287.145218 1135.27325,-290.32941 C1134.97291,-290.933174 1133.83967,-292.205554 1133.89286,-293.319697 C1131.24041,-293.558998 1130.21873,-292.339147 1127.91138,-291.939664 C1128.41021,-292.418266 1127.88283,-292.682858 1127.68109,-293.090124 C1128.19615,-293.341098 1128.8338,-293.4708 1129.29177,-293.779491 C1129.51167,-293.351474 1128.60222,-293.011005 1129.29177,-292.859902 C1130.77076,-292.999332 1132.51895,-294.630987 1133.89286,-295.619967 C1133.81956,-295.337865 1133.92983,-294.199078 1134.12314,-294.929951 C1133.91492,-295.831382 1133.84226,-296.364459 1134.35342,-297 L1134.35342,-297 Z M1133.89286,-90.4445206 C1135.0553,-90.8654047 1134.82761,-91.360219 1135.27325,-92.2849965 C1134.10498,-91.920533 1134.40337,-91.1183242 1133.89286,-90.4445206 L1133.89286,-90.4445206 Z M1129.5214,166.484745 C1131.46744,166.575536 1133.9947,167.86802 1135.50289,166.945188 C1134.19515,166.145573 1131.18916,165.513274 1129.5214,166.484745 L1129.5214,166.484745 Z M1130.67216,167.174761 C1129.62714,167.024306 1128.21107,166.5042 1128.14101,166.945188 C1128.78904,167.075539 1129.96445,167.866723 1130.67216,167.174761 L1130.67216,167.174761 Z" id="Fill-2" sketch:type="MSShapeGroup" transform="translate(1200.500000, 103.000000) scale(-1, 1) rotate(-270.000000) translate(-1200.500000, -103.000000) "></path>
            </g>
        </g>
    </g>
</svg>